SplineFontDB: 3.0
FontName: GentiumBookBasic-Bold
FullName: Gentium Book Basic Bold
FamilyName: Gentium Book Basic
Weight: Bold
Copyright: Copyright (c) SIL International, 2003-2008.
Version: 1.100
ItalicAngle: 0
UnderlinePosition: -200
UnderlineWidth: 100
Ascent: 1638
Descent: 410
sfntRevision: 0x00011999
LayerCount: 2
Layer: 0 1 "Back"  1
Layer: 1 1 "Fore"  0
XUID: [1021 288 713564382 5126140]
FSType: 0
OS2Version: 3
OS2_WeightWidthSlopeOnly: 0
OS2_UseTypoMetrics: 1
CreationTime: 1207161450
ModificationTime: 1309535505
PfmFamily: 17
TTFWeight: 700
TTFWidth: 5
LineGap: 0
VLineGap: 0
Panose: 2 0 5 3 6 0 0 2 0 4
OS2TypoAscent: 2219
OS2TypoAOffset: 0
OS2TypoDescent: -735
OS2TypoDOffset: 0
OS2TypoLinegap: 0
OS2WinAscent: 2219
OS2WinAOffset: 0
OS2WinDescent: 735
OS2WinDOffset: 0
HheadAscent: 2219
HheadAOffset: 0
HheadDescent: -735
HheadDOffset: 0
OS2SubXSize: 856
OS2SubYSize: 856
OS2SubXOff: 0
OS2SubYOff: 1200
OS2SupXSize: 856
OS2SupYSize: 856
OS2SupXOff: 0
OS2SupYOff: 1200
OS2StrikeYSize: 100
OS2StrikeYPos: 500
OS2Vendor: 'SIL '
OS2CodePages: 20000013.00000000
OS2UnicodeRanges: a000007f.4000204a.00000000.00000000
Lookup: 5 0 0 "'ccmp' Glyph Composition/Decomposition lookup 0"  {"'ccmp' Glyph Composition/Decomposition lookup 0 subtable"  } ['ccmp' ('cyrl' <'dflt' > 'latn' <'IPA ' 'VIT ' 'dflt' > ) ]
Lookup: 1 0 0 "Single Substitution lookup 1"  {"Single Substitution lookup 1 subtable"  } []
Lookup: 2 0 0 "Multiple Substitution lookup 2"  {"Multiple Substitution lookup 2 subtable"  } []
Lookup: 4 0 0 "'ccmp' Glyph Composition/Decomposition lookup 3"  {"'ccmp' Glyph Composition/Decomposition lookup 3 subtable"  } ['ccmp' ('cyrl' <'dflt' > 'latn' <'IPA ' 'VIT ' 'dflt' > ) ]
Lookup: 4 256 0 "'ccmp' Glyph Composition/Decomposition in Latin lookup 4"  {"'ccmp' Glyph Composition/Decomposition in Latin lookup 4 subtable"  } ['ccmp' ('latn' <'VIT ' > ) ]

StartChar: .notdef
Encoding: 65536 -1 0
Width: 1400
Flags: W
LayerCount: 2
Fore
SplineSet
150 50 m 1,0,-1
 1250 50 l 1,1,-1
 1250 1750 l 1,2,-1
 150 1750 l 1,3,-1
 150 50 l 1,0,-1
100 1800 m 1,4,-1
 1300 1800 l 1,5,-1
 1300 0 l 1,6,-1
 100 0 l 1,7,-1
 100 1800 l 1,4,-1
EndSplineSet
EndChar

StartChar: exclam
Encoding: 33 33 4
Width: 658
Flags: W
LayerCount: 2
Fore
SplineSet
504 133 m 0,0,1
 504 91 504 91 488 58.5 c 128,-1,2
 472 26 472 26 445 4.5 c 128,-1,3
 418 -17 418 -17 382 -28.5 c 128,-1,4
 346 -40 346 -40 306 -40 c 0,5,6
 276 -40 276 -40 247 -32 c 128,-1,7
 218 -24 218 -24 195.5 -7 c 128,-1,8
 173 10 173 10 159.5 37 c 128,-1,9
 146 64 146 64 146 102 c 0,10,11
 146 143 146 143 162.5 175.5 c 128,-1,12
 179 208 179 208 206.5 230.5 c 128,-1,13
 234 253 234 253 270 264.5 c 128,-1,14
 306 276 306 276 345 276 c 0,15,16
 373 276 373 276 401.5 268 c 128,-1,17
 430 260 430 260 453 242.5 c 128,-1,18
 476 225 476 225 490 198 c 128,-1,19
 504 171 504 171 504 133 c 0,0,1
394 419 m 1,20,21
 385 412 385 412 370.5 406.5 c 128,-1,22
 356 401 356 401 340 396.5 c 128,-1,23
 324 392 324 392 308 388 c 128,-1,24
 292 384 292 384 280 380 c 1,25,-1
 251 401 l 1,26,-1
 164 1358 l 1,27,28
 187 1370 187 1370 223.5 1388 c 128,-1,29
 260 1406 260 1406 299 1424 c 128,-1,30
 338 1442 338 1442 373.5 1457.5 c 128,-1,31
 409 1473 409 1473 430 1480 c 1,32,-1
 483 1445 l 1,33,-1
 394 419 l 1,20,21
EndSplineSet
EndChar

StartChar: quotedbl
Encoding: 34 34 5
Width: 990
Flags: W
LayerCount: 2
Fore
SplineSet
359 834 m 1,0,1
 351 830 351 830 333.5 826 c 128,-1,2
 316 822 316 822 295 819 c 128,-1,3
 274 816 274 816 254.5 814.5 c 128,-1,4
 235 813 235 813 223 813 c 1,5,-1
 130 1386 l 1,6,7
 137 1390 137 1390 157.5 1398.5 c 128,-1,8
 178 1407 178 1407 204.5 1417 c 128,-1,9
 231 1427 231 1427 260.5 1437.5 c 128,-1,10
 290 1448 290 1448 316 1457 c 128,-1,11
 342 1466 342 1466 362 1472 c 128,-1,12
 382 1478 382 1478 389 1480 c 1,13,-1
 442 1449 l 1,14,-1
 359 834 l 1,0,1
777 834 m 1,15,16
 769 830 769 830 751.5 826 c 128,-1,17
 734 822 734 822 713 819 c 128,-1,18
 692 816 692 816 672.5 814.5 c 128,-1,19
 653 813 653 813 641 813 c 1,20,-1
 548 1386 l 1,21,22
 555 1390 555 1390 575.5 1398.5 c 128,-1,23
 596 1407 596 1407 622.5 1417 c 128,-1,24
 649 1427 649 1427 678.5 1437.5 c 128,-1,25
 708 1448 708 1448 734 1457 c 128,-1,26
 760 1466 760 1466 780 1472 c 128,-1,27
 800 1478 800 1478 807 1480 c 1,28,-1
 860 1449 l 1,29,-1
 777 834 l 1,15,16
EndSplineSet
EndChar

StartChar: numbersign
Encoding: 35 35 6
Width: 1061
Flags: W
LayerCount: 2
Fore
SplineSet
881 981 m 1,0,-1
 1037 981 l 1,1,-1
 1062 956 l 1,2,3
 1060 945 1060 945 1053 926.5 c 128,-1,4
 1046 908 1046 908 1038 888.5 c 128,-1,5
 1030 869 1030 869 1022.5 851.5 c 128,-1,6
 1015 834 1015 834 1011 826 c 1,7,-1
 837 826 l 1,8,-1
 775 610 l 1,9,-1
 931 610 l 1,10,-1
 953 583 l 1,11,12
 951 573 951 573 944.5 555 c 128,-1,13
 938 537 938 537 930.5 517.5 c 128,-1,14
 923 498 923 498 916 481 c 128,-1,15
 909 464 909 464 905 455 c 1,16,-1
 731 455 l 1,17,-1
 650 170 l 1,18,19
 641 163 641 163 624 157 c 128,-1,20
 607 151 607 151 588 146 c 2,21,-1
 550 136 l 2,22,23
 531 131 531 131 518 127 c 1,24,-1
 492 147 l 1,25,-1
 580 455 l 1,26,-1
 411 455 l 1,27,-1
 329 170 l 1,28,29
 320 163 320 163 303.5 157 c 128,-1,30
 287 151 287 151 268 146 c 128,-1,31
 249 141 249 141 230.5 136 c 128,-1,32
 212 131 212 131 199 127 c 1,33,-1
 173 147 l 1,34,-1
 261 455 l 1,35,-1
 89 455 l 1,36,-1
 67 480 l 1,37,38
 69 490 69 490 75.5 507.5 c 128,-1,39
 82 525 82 525 89.5 544.5 c 128,-1,40
 97 564 97 564 104.5 582 c 128,-1,41
 112 600 112 600 117 610 c 1,42,-1
 305 610 l 1,43,-1
 366 826 l 1,44,-1
 198 826 l 1,45,-1
 173 850 l 1,46,47
 175 861 175 861 182 879 c 128,-1,48
 189 897 189 897 197 916.5 c 128,-1,49
 205 936 205 936 212.5 953.5 c 128,-1,50
 220 971 220 971 224 981 c 1,51,-1
 411 981 l 1,52,-1
 488 1251 l 1,53,54
 499 1259 499 1259 516 1264.5 c 128,-1,55
 533 1270 533 1270 552 1274.5 c 128,-1,56
 571 1279 571 1279 588 1283 c 128,-1,57
 605 1287 605 1287 616 1292 c 1,58,-1
 645 1270 l 1,59,-1
 562 981 l 1,60,-1
 730 981 l 1,61,-1
 807 1251 l 1,62,63
 818 1259 818 1259 835 1264.5 c 128,-1,64
 852 1270 852 1270 871 1274.5 c 128,-1,65
 890 1279 890 1279 907.5 1283 c 128,-1,66
 925 1287 925 1287 937 1292 c 1,67,-1
 964 1270 l 1,68,-1
 881 981 l 1,0,-1
455 610 m 1,69,-1
 624 610 l 1,70,-1
 685 826 l 1,71,-1
 517 826 l 1,72,-1
 455 610 l 1,69,-1
EndSplineSet
EndChar

StartChar: dollar
Encoding: 36 36 7
Width: 1061
Flags: W
LayerCount: 2
Fore
SplineSet
305 948 m 0,0,1
 305 919 305 919 316.5 895.5 c 128,-1,2
 328 872 328 872 349 852.5 c 128,-1,3
 370 833 370 833 399 817 c 128,-1,4
 428 801 428 801 462 787 c 1,5,-1
 462 1083 l 1,6,7
 391 1074 391 1074 348 1036.5 c 128,-1,8
 305 999 305 999 305 948 c 0,0,1
747 314 m 0,9,10
 747 351 747 351 735.5 380 c 128,-1,11
 724 409 724 409 703 433 c 128,-1,12
 682 457 682 457 653.5 475.5 c 128,-1,13
 625 494 625 494 592 510 c 1,14,-1
 592 145 l 1,15,16
 623 150 623 150 651 162.5 c 128,-1,17
 679 175 679 175 700.5 195.5 c 128,-1,18
 722 216 722 216 734.5 245.5 c 128,-1,19
 747 275 747 275 747 314 c 0,9,10
592 -123 m 1,20,21
 574 -139 574 -139 549 -153.5 c 128,-1,22
 524 -168 524 -168 499 -174 c 1,23,-1
 462 -142 l 1,24,-1
 462 -9 l 1,25,26
 421 -7 421 -7 372.5 2.5 c 128,-1,27
 324 12 324 12 274 28.5 c 128,-1,28
 224 45 224 45 174.5 67 c 128,-1,29
 125 89 125 89 82 116 c 0,30,31
 77 119 77 119 75 138.5 c 128,-1,32
 73 158 73 158 72.5 186.5 c 128,-1,33
 72 215 72 215 73 250 c 128,-1,34
 74 285 74 285 76.5 318.5 c 128,-1,35
 79 352 79 352 83 382 c 128,-1,36
 87 412 87 412 92 430 c 1,37,-1
 175 426 l 1,38,39
 199 375 199 375 227 329.5 c 128,-1,40
 255 284 255 284 290 247.5 c 128,-1,41
 325 211 325 211 367.5 185 c 128,-1,42
 410 159 410 159 462 148 c 1,43,-1
 462 561 l 1,44,45
 394 585 394 585 325.5 611 c 128,-1,46
 257 637 257 637 202 674.5 c 128,-1,47
 147 712 147 712 112.5 766 c 128,-1,48
 78 820 78 820 78 901 c 0,49,50
 78 944 78 944 96.5 994 c 128,-1,51
 115 1044 115 1044 159.5 1089 c 128,-1,52
 204 1134 204 1134 278 1167 c 128,-1,53
 352 1200 352 1200 462 1210 c 1,54,-1
 462 1336 l 1,55,56
 476 1344 476 1344 487 1351 c 128,-1,57
 498 1358 498 1358 508.5 1364 c 128,-1,58
 519 1370 519 1370 530 1375 c 128,-1,59
 541 1380 541 1380 556 1384 c 1,60,-1
 592 1352 l 1,61,-1
 592 1212 l 1,62,63
 647 1208 647 1208 701.5 1197.5 c 128,-1,64
 756 1187 756 1187 803 1172 c 128,-1,65
 850 1157 850 1157 886.5 1139.5 c 128,-1,66
 923 1122 923 1122 941 1104 c 0,67,68
 945 1099 945 1099 943 1082 c 128,-1,69
 941 1065 941 1065 934.5 1040.5 c 128,-1,70
 928 1016 928 1016 918.5 988.5 c 128,-1,71
 909 961 909 961 898 935.5 c 128,-1,72
 887 910 887 910 876.5 890.5 c 128,-1,73
 866 871 866 871 857 863 c 1,74,-1
 778 871 l 1,75,76
 747 949 747 949 702.5 1000.5 c 128,-1,77
 658 1052 658 1052 592 1073 c 1,78,-1
 592 739 l 1,79,80
 661 715 661 715 730.5 686.5 c 128,-1,81
 800 658 800 658 856 616 c 128,-1,82
 912 574 912 574 947 514 c 128,-1,83
 982 454 982 454 982 367 c 0,84,85
 982 307 982 307 961 247 c 128,-1,86
 940 187 940 187 893.5 136 c 128,-1,87
 847 85 847 85 772.5 47.5 c 128,-1,88
 698 10 698 10 592 -3 c 1,89,-1
 592 -123 l 1,20,21
EndSplineSet
EndChar

StartChar: percent
Encoding: 37 37 8
Width: 1517
Flags: W
LayerCount: 2
Fore
SplineSet
1246 290 m 0,0,1
 1246 438 1246 438 1214.5 508.5 c 128,-1,2
 1183 579 1183 579 1132 579 c 0,3,4
 1106 579 1106 579 1087 566 c 128,-1,5
 1068 553 1068 553 1055.5 524 c 128,-1,6
 1043 495 1043 495 1037 448 c 128,-1,7
 1031 401 1031 401 1031 333 c 0,8,9
 1031 184 1031 184 1059 113 c 128,-1,10
 1087 42 1087 42 1145 42 c 0,11,12
 1172 42 1172 42 1191 55 c 128,-1,13
 1210 68 1210 68 1222 97.5 c 128,-1,14
 1234 127 1234 127 1240 174.5 c 128,-1,15
 1246 222 1246 222 1246 290 c 0,0,1
1471 310 m 256,16,17
 1471 240 1471 240 1446.5 178 c 128,-1,18
 1422 116 1422 116 1377.5 69.5 c 128,-1,19
 1333 23 1333 23 1270.5 -4 c 128,-1,20
 1208 -31 1208 -31 1132 -31 c 256,21,22
 1056 -31 1056 -31 995.5 -4 c 128,-1,23
 935 23 935 23 893 69.5 c 128,-1,24
 851 116 851 116 828.5 178 c 128,-1,25
 806 240 806 240 806 310 c 256,26,27
 806 380 806 380 828.5 442 c 128,-1,28
 851 504 851 504 894.5 550.5 c 128,-1,29
 938 597 938 597 1001 624.5 c 128,-1,30
 1064 652 1064 652 1145 652 c 0,31,32
 1224 652 1224 652 1284.5 625 c 128,-1,33
 1345 598 1345 598 1386.5 551.5 c 128,-1,34
 1428 505 1428 505 1449.5 442.5 c 128,-1,35
 1471 380 1471 380 1471 310 c 256,16,17
379 3 m 1,36,37
 367 -3 367 -3 347 -7.5 c 128,-1,38
 327 -12 327 -12 304.5 -16 c 128,-1,39
 282 -20 282 -20 260.5 -23.5 c 128,-1,40
 239 -27 239 -27 226 -30 c 1,41,-1
 201 0 l 1,42,-1
 1133 1203 l 1,43,44
 1143 1207 1143 1207 1163.5 1211.5 c 128,-1,45
 1184 1216 1184 1216 1206.5 1220.5 c 128,-1,46
 1229 1225 1229 1225 1250 1229 c 128,-1,47
 1271 1233 1271 1233 1282 1235 c 1,48,-1
 1307 1207 l 1,49,-1
 379 3 l 1,36,37
486 877 m 0,50,51
 486 1025 486 1025 454.5 1095.5 c 128,-1,52
 423 1166 423 1166 372 1166 c 0,53,54
 346 1166 346 1166 327 1153 c 128,-1,55
 308 1140 308 1140 295.5 1111 c 128,-1,56
 283 1082 283 1082 277 1035 c 128,-1,57
 271 988 271 988 271 920 c 0,58,59
 271 771 271 771 299 700 c 128,-1,60
 327 629 327 629 385 629 c 0,61,62
 412 629 412 629 431 642 c 128,-1,63
 450 655 450 655 462 684.5 c 128,-1,64
 474 714 474 714 480 761.5 c 128,-1,65
 486 809 486 809 486 877 c 0,50,51
711 897 m 256,66,67
 711 827 711 827 686.5 765 c 128,-1,68
 662 703 662 703 617.5 656.5 c 128,-1,69
 573 610 573 610 510.5 583 c 128,-1,70
 448 556 448 556 372 556 c 256,71,72
 296 556 296 556 235.5 583 c 128,-1,73
 175 610 175 610 133 656.5 c 128,-1,74
 91 703 91 703 68.5 765 c 128,-1,75
 46 827 46 827 46 897 c 256,76,77
 46 967 46 967 68.5 1029 c 128,-1,78
 91 1091 91 1091 134.5 1137.5 c 128,-1,79
 178 1184 178 1184 241 1211.5 c 128,-1,80
 304 1239 304 1239 385 1239 c 0,81,82
 464 1239 464 1239 524.5 1212 c 128,-1,83
 585 1185 585 1185 626.5 1138.5 c 128,-1,84
 668 1092 668 1092 689.5 1029.5 c 128,-1,85
 711 967 711 967 711 897 c 256,66,67
EndSplineSet
EndChar

StartChar: ampersand
Encoding: 38 38 9
Width: 1436
Flags: W
LayerCount: 2
Fore
SplineSet
514 1130 m 0,0,1
 514 1079 514 1079 527.5 1026 c 128,-1,2
 541 973 541 973 565 916 c 1,3,4
 605 942 605 942 633 973.5 c 128,-1,5
 661 1005 661 1005 677.5 1038.5 c 128,-1,6
 694 1072 694 1072 701.5 1106 c 128,-1,7
 709 1140 709 1140 709 1171 c 0,8,9
 709 1206 709 1206 700 1232.5 c 128,-1,10
 691 1259 691 1259 677 1277 c 128,-1,11
 663 1295 663 1295 645 1304 c 128,-1,12
 627 1313 627 1313 608 1313 c 0,13,14
 583 1313 583 1313 565.5 1299 c 128,-1,15
 548 1285 548 1285 536.5 1260.5 c 128,-1,16
 525 1236 525 1236 519.5 1202.5 c 128,-1,17
 514 1169 514 1169 514 1130 c 0,0,1
588 124 m 0,18,19
 636 124 636 124 682 138 c 128,-1,20
 728 152 728 152 771 176 c 1,21,22
 726 219 726 219 679.5 268 c 128,-1,23
 633 317 633 317 587.5 371.5 c 128,-1,24
 542 426 542 426 499 484 c 128,-1,25
 456 542 456 542 419 603 c 1,26,27
 380 547 380 547 366 491.5 c 128,-1,28
 352 436 352 436 352 373 c 0,29,30
 352 303 352 303 373.5 255.5 c 128,-1,31
 395 208 395 208 429 178.5 c 128,-1,32
 463 149 463 149 505 136.5 c 128,-1,33
 547 124 547 124 588 124 c 0,18,19
1436 748 m 1,34,35
 1424 733 1424 733 1408.5 712.5 c 128,-1,36
 1393 692 1393 692 1376.5 672 c 128,-1,37
 1360 652 1360 652 1344.5 635 c 128,-1,38
 1329 618 1329 618 1317 609 c 1,39,40
 1280 626 1280 626 1239.5 642 c 128,-1,41
 1199 658 1199 658 1165 660 c 1,42,43
 1186 634 1186 634 1192 603.5 c 128,-1,44
 1198 573 1198 573 1198 543 c 0,45,46
 1198 477 1198 477 1168 404.5 c 128,-1,47
 1138 332 1138 332 1084 261 c 1,48,49
 1116 232 1116 232 1148 206 c 0,50,51
 1204 159 1204 159 1263 148 c 128,-1,52
 1322 137 1322 137 1370 148 c 1,53,-1
 1389 65 l 1,54,55
 1346 46 1346 46 1295 28.5 c 128,-1,56
 1244 11 1244 11 1198 -2 c 128,-1,57
 1152 -15 1152 -15 1117 -22.5 c 128,-1,58
 1082 -30 1082 -30 1071 -30 c 0,59,60
 1045 -30 1045 -30 995.5 -1.5 c 128,-1,61
 946 27 946 27 882 79 c 1,62,63
 803 29 803 29 711 -0.5 c 128,-1,64
 619 -30 619 -30 518 -30 c 0,65,66
 409 -30 409 -30 323.5 -5.5 c 128,-1,67
 238 19 238 19 179.5 67 c 128,-1,68
 121 115 121 115 90.5 186.5 c 128,-1,69
 60 258 60 258 60 352 c 0,70,71
 60 455 60 455 124 558 c 128,-1,72
 188 661 188 661 331 768 c 1,73,74
 296 846 296 846 276.5 922.5 c 128,-1,75
 257 999 257 999 257 1073 c 0,76,77
 257 1154 257 1154 289.5 1223 c 128,-1,78
 322 1292 322 1292 378 1342.5 c 128,-1,79
 434 1393 434 1393 509.5 1421.5 c 128,-1,80
 585 1450 585 1450 671 1450 c 0,81,82
 751 1450 751 1450 809 1429.5 c 128,-1,83
 867 1409 867 1409 904.5 1375 c 128,-1,84
 942 1341 942 1341 960 1296.5 c 128,-1,85
 978 1252 978 1252 978 1204 c 0,86,87
 978 1152 978 1152 948.5 1096.5 c 128,-1,88
 919 1041 919 1041 872 988 c 128,-1,89
 825 935 825 935 766 887 c 128,-1,90
 707 839 707 839 648 802 c 2,91,-1
 631 791 l 1,92,93
 664 736 664 736 703 681.5 c 128,-1,94
 742 627 742 627 785 574.5 c 128,-1,95
 828 522 828 522 873.5 472 c 128,-1,96
 919 422 919 422 964 376 c 1,97,98
 980 408 980 408 988.5 439.5 c 128,-1,99
 997 471 997 471 997 502 c 0,100,101
 997 544 997 544 984.5 576.5 c 128,-1,102
 972 609 972 609 951 630.5 c 128,-1,103
 930 652 930 652 903 663.5 c 128,-1,104
 876 675 876 675 847 675 c 1,105,-1
 815 713 l 1,106,107
 820 719 820 719 831.5 731 c 128,-1,108
 843 743 843 743 857 756 c 128,-1,109
 871 769 871 769 885 779.5 c 128,-1,110
 899 790 899 790 909 794 c 1,111,-1
 1403 794 l 1,112,-1
 1436 748 l 1,34,35
EndSplineSet
EndChar

StartChar: quotesingle
Encoding: 39 39 10
Width: 572
Flags: W
LayerCount: 2
Fore
SplineSet
359 834 m 1,0,1
 351 830 351 830 333.5 826 c 128,-1,2
 316 822 316 822 295 819 c 128,-1,3
 274 816 274 816 254.5 814.5 c 128,-1,4
 235 813 235 813 223 813 c 1,5,-1
 130 1386 l 1,6,7
 137 1390 137 1390 157.5 1398.5 c 128,-1,8
 178 1407 178 1407 204.5 1417 c 128,-1,9
 231 1427 231 1427 260.5 1437.5 c 128,-1,10
 290 1448 290 1448 316 1457 c 128,-1,11
 342 1466 342 1466 362 1472 c 128,-1,12
 382 1478 382 1478 389 1480 c 1,13,-1
 442 1449 l 1,14,-1
 359 834 l 1,0,1
EndSplineSet
EndChar

StartChar: parenleft
Encoding: 40 40 11
Width: 689
Flags: W
LayerCount: 2
Fore
SplineSet
608 -315 m 1,0,1
 351 -173 351 -173 226 66 c 128,-1,2
 101 305 101 305 101 623 c 0,3,4
 101 787 101 787 136 933 c 128,-1,5
 171 1079 171 1079 236.5 1203 c 128,-1,6
 302 1327 302 1327 396 1427.5 c 128,-1,7
 490 1528 490 1528 608 1600 c 1,8,-1
 670 1515 l 1,9,10
 612 1453 612 1453 561.5 1370.5 c 128,-1,11
 511 1288 511 1288 473 1181.5 c 128,-1,12
 435 1075 435 1075 413 943 c 128,-1,13
 391 811 391 811 391 651 c 0,14,15
 391 357 391 357 461 134.5 c 128,-1,16
 531 -88 531 -88 670 -230 c 1,17,-1
 608 -315 l 1,0,1
EndSplineSet
EndChar

StartChar: parenright
Encoding: 41 41 12
Width: 689
Flags: W
LayerCount: 2
Fore
SplineSet
590 661 m 0,0,1
 590 497 590 497 555 351 c 128,-1,2
 520 205 520 205 454.5 81 c 128,-1,3
 389 -43 389 -43 295 -143.5 c 128,-1,4
 201 -244 201 -244 83 -316 c 1,5,-1
 21 -231 l 1,6,7
 79 -169 79 -169 129.5 -86.5 c 128,-1,8
 180 -4 180 -4 218 102.5 c 128,-1,9
 256 209 256 209 278 340.5 c 128,-1,10
 300 472 300 472 300 633 c 0,11,12
 300 927 300 927 230 1149.5 c 128,-1,13
 160 1372 160 1372 21 1514 c 1,14,-1
 83 1599 l 1,15,16
 339 1457 339 1457 464.5 1218 c 128,-1,17
 590 979 590 979 590 661 c 0,0,1
EndSplineSet
EndChar

StartChar: asterisk
Encoding: 42 42 13
Width: 904
Flags: W
LayerCount: 2
Fore
SplineSet
505 1230 m 1,0,-1
 707 1410 l 1,1,2
 717 1404 717 1404 738.5 1387.5 c 128,-1,3
 760 1371 760 1371 783 1352.5 c 128,-1,4
 806 1334 806 1334 826 1316.5 c 128,-1,5
 846 1299 846 1299 854 1291 c 1,6,-1
 842 1231 l 1,7,-1
 563 1136 l 1,8,-1
 819 1051 l 1,9,10
 818 1039 818 1039 814.5 1012.5 c 128,-1,11
 811 986 811 986 806.5 956.5 c 128,-1,12
 802 927 802 927 797 901 c 128,-1,13
 792 875 792 875 789 864 c 1,14,-1
 731 845 l 1,15,-1
 510 1038 l 1,16,-1
 564 775 l 1,17,18
 553 769 553 769 528 759 c 2,19,-1
 475 738 l 2,20,21
 448 727 448 727 423 718.5 c 128,-1,22
 398 710 398 710 387 707 c 1,23,-1
 341 748 l 1,24,-1
 398 1037 l 1,25,-1
 197 858 l 1,26,27
 187 864 187 864 165.5 880.5 c 128,-1,28
 144 897 144 897 121 915.5 c 128,-1,29
 98 934 98 934 77.5 951.5 c 128,-1,30
 57 969 57 969 50 977 c 1,31,-1
 62 1037 l 1,32,-1
 342 1132 l 1,33,-1
 85 1217 l 1,34,35
 86 1229 86 1229 89.5 1255.5 c 128,-1,36
 93 1282 93 1282 97.5 1311.5 c 128,-1,37
 102 1341 102 1341 107 1367 c 128,-1,38
 112 1393 112 1393 115 1404 c 1,39,-1
 173 1423 l 1,40,-1
 394 1229 l 1,41,-1
 340 1493 l 1,42,43
 351 1499 351 1499 376 1509 c 2,44,-1
 428 1530 l 2,45,46
 456 1541 456 1541 481 1549.5 c 128,-1,47
 506 1558 506 1558 517 1561 c 1,48,-1
 563 1520 l 1,49,-1
 505 1230 l 1,0,-1
EndSplineSet
EndChar

StartChar: plus
Encoding: 43 43 14
Width: 870
Flags: W
LayerCount: 2
Fore
SplineSet
515 221 m 1,0,1
 505 216 505 216 489 210 c 128,-1,2
 473 204 473 204 456 198 c 128,-1,3
 439 192 439 192 422.5 187 c 128,-1,4
 406 182 406 182 395 180 c 1,5,-1
 360 212 l 1,6,-1
 360 485 l 1,7,-1
 85 485 l 1,8,-1
 50 519 l 1,9,10
 53 530 53 530 59.5 546.5 c 128,-1,11
 66 563 66 563 73.5 580.5 c 128,-1,12
 81 598 81 598 88.5 614 c 128,-1,13
 96 630 96 630 101 640 c 1,14,-1
 360 640 l 1,15,-1
 360 906 l 1,16,17
 369 909 369 909 385 914.5 c 128,-1,18
 401 920 401 920 419 926 c 128,-1,19
 437 932 437 932 453.5 937 c 128,-1,20
 470 942 470 942 481 945 c 1,21,-1
 515 912 l 1,22,-1
 515 640 l 1,23,-1
 785 640 l 1,24,-1
 820 606 l 1,25,26
 817 595 817 595 810 578 c 128,-1,27
 803 561 803 561 795 543 c 128,-1,28
 787 525 787 525 780 509 c 128,-1,29
 773 493 773 493 769 485 c 1,30,-1
 515 485 l 1,31,-1
 515 221 l 1,0,1
EndSplineSet
EndChar

StartChar: comma
Encoding: 44 44 15
Width: 579
Flags: W
LayerCount: 2
Fore
SplineSet
510 70 m 0,0,1
 510 12 510 12 484.5 -55 c 128,-1,2
 459 -122 459 -122 416 -186.5 c 128,-1,3
 373 -251 373 -251 316 -308.5 c 128,-1,4
 259 -366 259 -366 196 -405 c 1,5,-1
 121 -350 l 1,6,7
 177 -285 177 -285 211.5 -211 c 128,-1,8
 246 -137 246 -137 246 -50 c 0,9,10
 246 -28 246 -28 236 -5.5 c 128,-1,11
 226 17 226 17 207.5 35 c 128,-1,12
 189 53 189 53 162.5 63.5 c 128,-1,13
 136 74 136 74 104 72 c 1,14,-1
 88 159 l 1,15,16
 94 167 94 167 114.5 178 c 128,-1,17
 135 189 135 189 164.5 201.5 c 128,-1,18
 194 214 194 214 228.5 226.5 c 128,-1,19
 263 239 263 239 296.5 248.5 c 128,-1,20
 330 258 330 258 360 264 c 128,-1,21
 390 270 390 270 409 269 c 1,22,23
 433 258 433 258 452 241.5 c 128,-1,24
 471 225 471 225 483.5 201.5 c 128,-1,25
 496 178 496 178 503 145.5 c 128,-1,26
 510 113 510 113 510 70 c 0,0,1
EndSplineSet
EndChar

StartChar: period
Encoding: 46 46 17
Width: 579
Flags: W
LayerCount: 2
Fore
SplineSet
489 133 m 0,0,1
 489 91 489 91 473 58.5 c 128,-1,2
 457 26 457 26 430 4.5 c 128,-1,3
 403 -17 403 -17 367 -28.5 c 128,-1,4
 331 -40 331 -40 291 -40 c 0,5,6
 261 -40 261 -40 232 -32 c 128,-1,7
 203 -24 203 -24 180.5 -7 c 128,-1,8
 158 10 158 10 144.5 37 c 128,-1,9
 131 64 131 64 131 102 c 0,10,11
 131 143 131 143 147.5 175.5 c 128,-1,12
 164 208 164 208 191.5 230.5 c 128,-1,13
 219 253 219 253 255 264.5 c 128,-1,14
 291 276 291 276 330 276 c 0,15,16
 358 276 358 276 386.5 268 c 128,-1,17
 415 260 415 260 438 242.5 c 128,-1,18
 461 225 461 225 475 198 c 128,-1,19
 489 171 489 171 489 133 c 0,0,1
EndSplineSet
EndChar

StartChar: slash
Encoding: 47 47 18
Width: 980
Flags: W
LayerCount: 2
Fore
SplineSet
252 -274 m 1,0,1
 242 -281 242 -281 218 -290 c 128,-1,2
 194 -299 194 -299 167 -307.5 c 128,-1,3
 140 -316 140 -316 114.5 -323.5 c 128,-1,4
 89 -331 89 -331 77 -335 c 1,5,-1
 30 -300 l 1,6,-1
 731 1541 l 1,7,8
 744 1550 744 1550 767.5 1558.5 c 128,-1,9
 791 1567 791 1567 816.5 1575 c 128,-1,10
 842 1583 842 1583 865.5 1589.5 c 128,-1,11
 889 1596 889 1596 903 1600 c 1,12,-1
 950 1568 l 1,13,-1
 252 -274 l 1,0,1
EndSplineSet
EndChar

StartChar: zero
Encoding: 48 48 19
Width: 1061
GlyphClass: 2
Flags: W
AnchorPoint: "Anchor-4" 1061 900 basechar 0
AnchorPoint: "Anchor-3" 530 -100 basechar 0
AnchorPoint: "Anchor-2" 530 -100 basechar 0
AnchorPoint: "Anchor-1" 530 -100 basechar 0
AnchorPoint: "Anchor-0" 530 1370 basechar 0
LayerCount: 2
Fore
SplineSet
711 565 m 0,0,1
 711 702 711 702 697.5 802.5 c 128,-1,2
 684 903 684 903 659 969 c 128,-1,3
 634 1035 634 1035 599 1067.5 c 128,-1,4
 564 1100 564 1100 521 1100 c 0,5,6
 477 1100 477 1100 445 1076 c 128,-1,7
 413 1052 413 1052 392 998 c 128,-1,8
 371 944 371 944 360.5 857 c 128,-1,9
 350 770 350 770 350 645 c 0,10,11
 350 370 350 370 397 237.5 c 128,-1,12
 444 105 444 105 540 105 c 0,13,14
 585 105 585 105 617 129.5 c 128,-1,15
 649 154 649 154 670 208.5 c 128,-1,16
 691 263 691 263 701 350.5 c 128,-1,17
 711 438 711 438 711 565 c 0,0,1
1005 602 m 0,18,19
 1005 473 1005 473 969.5 358 c 128,-1,20
 934 243 934 243 869.5 157 c 128,-1,21
 805 71 805 71 716 20.5 c 128,-1,22
 627 -30 627 -30 521 -30 c 0,23,24
 414 -30 414 -30 328.5 20.5 c 128,-1,25
 243 71 243 71 182 157 c 128,-1,26
 121 243 121 243 88.5 358 c 128,-1,27
 56 473 56 473 56 602 c 256,28,29
 56 731 56 731 89 846 c 128,-1,30
 122 961 122 961 184.5 1047.5 c 128,-1,31
 247 1134 247 1134 337 1184.5 c 128,-1,32
 427 1235 427 1235 540 1235 c 0,33,34
 650 1235 650 1235 736.5 1185 c 128,-1,35
 823 1135 823 1135 882.5 1049 c 128,-1,36
 942 963 942 963 973.5 847.5 c 128,-1,37
 1005 732 1005 732 1005 602 c 0,18,19
EndSplineSet
EndChar

StartChar: one
Encoding: 49 49 20
Width: 1061
GlyphClass: 2
Flags: W
AnchorPoint: "Anchor-4" 1061 900 basechar 0
AnchorPoint: "Anchor-3" 530 -100 basechar 0
AnchorPoint: "Anchor-2" 530 -100 basechar 0
AnchorPoint: "Anchor-1" 530 -100 basechar 0
AnchorPoint: "Anchor-0" 530 1370 basechar 0
LayerCount: 2
Fore
SplineSet
150 0 m 1,0,-1
 150 93 l 1,1,2
 228 102 228 102 280 113.5 c 128,-1,3
 332 125 332 125 363 137 c 128,-1,4
 394 149 394 149 407 160.5 c 128,-1,5
 420 172 420 172 420 183 c 2,6,-1
 420 900 l 2,7,8
 420 940 420 940 417 962 c 128,-1,9
 414 984 414 984 402 998 c 0,10,11
 396 1004 396 1004 380.5 1008 c 128,-1,12
 365 1012 365 1012 336 1011 c 128,-1,13
 307 1010 307 1010 261.5 1004 c 128,-1,14
 216 998 216 998 150 984 c 1,15,-1
 119 1075 l 1,16,17
 148 1080 148 1080 191 1092 c 128,-1,18
 234 1104 234 1104 284 1119.5 c 128,-1,19
 334 1135 334 1135 387 1153 c 128,-1,20
 440 1171 440 1171 488.5 1188 c 128,-1,21
 537 1205 537 1205 577.5 1220 c 128,-1,22
 618 1235 618 1235 643 1245 c 1,23,-1
 690 1200 l 1,24,-1
 690 183 l 2,25,26
 690 173 690 173 701 161.5 c 128,-1,27
 712 150 712 150 740 138 c 128,-1,28
 768 126 768 126 816.5 114 c 128,-1,29
 865 102 865 102 940 93 c 1,30,-1
 940 0 l 1,31,-1
 150 0 l 1,0,-1
EndSplineSet
EndChar

StartChar: two
Encoding: 50 50 21
Width: 1061
GlyphClass: 2
Flags: W
AnchorPoint: "Anchor-4" 1061 900 basechar 0
AnchorPoint: "Anchor-3" 530 -100 basechar 0
AnchorPoint: "Anchor-2" 530 -100 basechar 0
AnchorPoint: "Anchor-1" 530 -100 basechar 0
AnchorPoint: "Anchor-0" 530 1370 basechar 0
LayerCount: 2
Fore
SplineSet
941 0 m 1,0,-1
 107 0 l 1,1,-1
 78 74 l 1,2,3
 194 211 194 211 282.5 317.5 c 128,-1,4
 371 424 371 424 435.5 506.5 c 128,-1,5
 500 589 500 589 543 651.5 c 128,-1,6
 586 714 586 714 611.5 763 c 128,-1,7
 637 812 637 812 647.5 850.5 c 128,-1,8
 658 889 658 889 658 924 c 0,9,10
 658 965 658 965 650 1000 c 128,-1,11
 642 1035 642 1035 625 1060.5 c 128,-1,12
 608 1086 608 1086 581 1100.5 c 128,-1,13
 554 1115 554 1115 517 1115 c 0,14,15
 476 1115 476 1115 448 1098 c 128,-1,16
 420 1081 420 1081 404.5 1052.5 c 128,-1,17
 389 1024 389 1024 385.5 988 c 128,-1,18
 382 952 382 952 390 914 c 1,19,20
 373 905 373 905 341 893.5 c 128,-1,21
 309 882 309 882 272 872 c 128,-1,22
 235 862 235 862 200 854.5 c 128,-1,23
 165 847 165 847 142 845 c 1,24,-1
 105 925 l 1,25,26
 105 959 105 959 122 995.5 c 128,-1,27
 139 1032 139 1032 170.5 1066.5 c 128,-1,28
 202 1101 202 1101 246 1131.5 c 128,-1,29
 290 1162 290 1162 343.5 1185 c 128,-1,30
 397 1208 397 1208 458 1221.5 c 128,-1,31
 519 1235 519 1235 585 1235 c 0,32,33
 668 1235 668 1235 734 1219 c 128,-1,34
 800 1203 800 1203 846.5 1172.5 c 128,-1,35
 893 1142 893 1142 918 1096.5 c 128,-1,36
 943 1051 943 1051 943 992 c 0,37,38
 943 947 943 947 930.5 902.5 c 128,-1,39
 918 858 918 858 890.5 808 c 128,-1,40
 863 758 863 758 819 699.5 c 128,-1,41
 775 641 775 641 711.5 567 c 128,-1,42
 648 493 648 493 563.5 401 c 128,-1,43
 479 309 479 309 371 191 c 1,44,-1
 764 191 l 2,45,46
 781 191 781 191 794.5 200 c 128,-1,47
 808 209 808 209 818.5 223.5 c 128,-1,48
 829 238 829 238 836.5 256.5 c 128,-1,49
 844 275 844 275 849 295 c 0,50,51
 861 341 861 341 866 399 c 1,52,-1
 956 377 l 1,53,-1
 941 0 l 1,0,-1
EndSplineSet
EndChar

StartChar: three
Encoding: 51 51 22
Width: 1061
GlyphClass: 2
Flags: W
AnchorPoint: "Anchor-4" 1061 900 basechar 0
AnchorPoint: "Anchor-3" 530 -100 basechar 0
AnchorPoint: "Anchor-2" 530 -100 basechar 0
AnchorPoint: "Anchor-1" 530 -100 basechar 0
AnchorPoint: "Anchor-0" 530 1370 basechar 0
LayerCount: 2
Fore
SplineSet
945 381 m 0,0,1
 945 297 945 297 910 222 c 128,-1,2
 875 147 875 147 813 91 c 128,-1,3
 751 35 751 35 665 2.5 c 128,-1,4
 579 -30 579 -30 476 -30 c 0,5,6
 437 -30 437 -30 386.5 -20 c 128,-1,7
 336 -10 336 -10 282.5 11 c 128,-1,8
 229 32 229 32 176 64 c 128,-1,9
 123 96 123 96 78 139 c 1,10,-1
 122 246 l 1,11,12
 213 178 213 178 290.5 149 c 128,-1,13
 368 120 368 120 443 120 c 0,14,15
 486 120 486 120 524.5 133.5 c 128,-1,16
 563 147 563 147 592 175.5 c 128,-1,17
 621 204 621 204 638 249 c 128,-1,18
 655 294 655 294 655 358 c 0,19,20
 655 425 655 425 634 470.5 c 128,-1,21
 613 516 613 516 582 543 c 128,-1,22
 551 570 551 570 515 581.5 c 128,-1,23
 479 593 479 593 450 593 c 2,24,-1
 426 593 l 2,25,26
 417 593 417 593 407.5 592 c 128,-1,27
 398 591 398 591 387.5 590 c 128,-1,28
 377 589 377 589 362 586 c 1,29,-1
 343 686 l 1,30,31
 427 708 427 708 477 739 c 128,-1,32
 527 770 527 770 554 804.5 c 128,-1,33
 581 839 581 839 589.5 874 c 128,-1,34
 598 909 598 909 598 940 c 0,35,36
 598 974 598 974 592 1006 c 128,-1,37
 586 1038 586 1038 572 1062 c 128,-1,38
 558 1086 558 1086 534.5 1100.5 c 128,-1,39
 511 1115 511 1115 476 1115 c 0,40,41
 454 1115 454 1115 434 1102.5 c 128,-1,42
 414 1090 414 1090 400.5 1068.5 c 128,-1,43
 387 1047 387 1047 383 1017 c 128,-1,44
 379 987 379 987 390 953 c 1,45,46
 368 940 368 940 337.5 927 c 128,-1,47
 307 914 307 914 273.5 903 c 128,-1,48
 240 892 240 892 205.5 884.5 c 128,-1,49
 171 877 171 877 141 874 c 1,50,-1
 105 945 l 1,51,52
 105 987 105 987 135.5 1037.5 c 128,-1,53
 166 1088 166 1088 222 1132 c 128,-1,54
 278 1176 278 1176 357 1205.5 c 128,-1,55
 436 1235 436 1235 533 1235 c 256,56,57
 630 1235 630 1235 697.5 1211 c 128,-1,58
 765 1187 765 1187 807.5 1147.5 c 128,-1,59
 850 1108 850 1108 869 1058.5 c 128,-1,60
 888 1009 888 1009 888 958 c 0,61,62
 888 920 888 920 872.5 880.5 c 128,-1,63
 857 841 857 841 828.5 805 c 128,-1,64
 800 769 800 769 761 740.5 c 128,-1,65
 722 712 722 712 675 698 c 1,66,67
 738 692 738 692 788 664.5 c 128,-1,68
 838 637 838 637 873 594 c 128,-1,69
 908 551 908 551 926.5 496.5 c 128,-1,70
 945 442 945 442 945 381 c 0,0,1
EndSplineSet
EndChar

StartChar: four
Encoding: 52 52 23
Width: 1061
GlyphClass: 2
Flags: W
AnchorPoint: "Anchor-4" 1061 900 basechar 0
AnchorPoint: "Anchor-3" 530 -100 basechar 0
AnchorPoint: "Anchor-2" 530 -100 basechar 0
AnchorPoint: "Anchor-1" 530 -100 basechar 0
AnchorPoint: "Anchor-0" 530 1370 basechar 0
LayerCount: 2
Fore
SplineSet
565 960 m 1,0,-1
 263 480 l 1,1,-1
 565 480 l 1,2,-1
 565 960 l 1,0,-1
984 450 m 1,3,4
 973 434 973 434 959 416.5 c 128,-1,5
 945 399 945 399 930 382.5 c 128,-1,6
 915 366 915 366 900.5 352.5 c 128,-1,7
 886 339 886 339 875 330 c 1,8,-1
 825 330 l 1,9,-1
 825 144 l 2,10,11
 825 136 825 136 831 129.5 c 128,-1,12
 837 123 837 123 853 115.5 c 128,-1,13
 869 108 869 108 896 100 c 128,-1,14
 923 92 923 92 964 83 c 1,15,-1
 964 0 l 1,16,-1
 355 0 l 1,17,-1
 355 83 l 1,18,19
 420 94 420 94 461 103.5 c 128,-1,20
 502 113 502 113 525 121.5 c 128,-1,21
 548 130 548 130 556.5 138 c 128,-1,22
 565 146 565 146 565 155 c 2,23,-1
 565 330 l 1,24,-1
 98 330 l 1,25,-1
 55 373 l 1,26,-1
 531 1164 l 1,27,28
 556 1172 556 1172 588.5 1182.5 c 128,-1,29
 621 1193 621 1193 655 1204 c 128,-1,30
 689 1215 689 1215 721.5 1225.5 c 128,-1,31
 754 1236 754 1236 778 1245 c 1,32,-1
 825 1200 l 1,33,-1
 825 480 l 1,34,-1
 958 480 l 1,35,-1
 984 450 l 1,3,4
EndSplineSet
EndChar

StartChar: five
Encoding: 53 53 24
Width: 1061
GlyphClass: 2
Flags: W
AnchorPoint: "Anchor-4" 1061 900 basechar 0
AnchorPoint: "Anchor-3" 530 -100 basechar 0
AnchorPoint: "Anchor-2" 530 -100 basechar 0
AnchorPoint: "Anchor-1" 530 -100 basechar 0
AnchorPoint: "Anchor-0" 530 1370 basechar 0
LayerCount: 2
Fore
SplineSet
946 410 m 0,0,1
 946 323 946 323 919.5 243.5 c 128,-1,2
 893 164 893 164 836 103 c 128,-1,3
 779 42 779 42 691 6 c 128,-1,4
 603 -30 603 -30 480 -30 c 0,5,6
 434 -30 434 -30 381.5 -19.5 c 128,-1,7
 329 -9 329 -9 276 12 c 128,-1,8
 223 33 223 33 172 63.5 c 128,-1,9
 121 94 121 94 78 134 c 1,10,-1
 133 231 l 1,11,12
 186 194 186 194 232.5 170.5 c 128,-1,13
 279 147 279 147 319.5 133.5 c 128,-1,14
 360 120 360 120 394.5 115 c 128,-1,15
 429 110 429 110 458 110 c 0,16,17
 503 110 503 110 542.5 129 c 128,-1,18
 582 148 582 148 612 181.5 c 128,-1,19
 642 215 642 215 659 262.5 c 128,-1,20
 676 310 676 310 676 367 c 0,21,22
 676 435 676 435 658 486.5 c 128,-1,23
 640 538 640 538 609 572 c 128,-1,24
 578 606 578 606 535 623 c 128,-1,25
 492 640 492 640 443 640 c 0,26,27
 397 640 397 640 360.5 633.5 c 128,-1,28
 324 627 324 627 293.5 615 c 128,-1,29
 263 603 263 603 236.5 586.5 c 128,-1,30
 210 570 210 570 184 550 c 1,31,-1
 137 583 l 1,32,33
 143 619 143 619 151 669.5 c 128,-1,34
 159 720 159 720 167.5 777.5 c 128,-1,35
 176 835 176 835 184.5 895.5 c 128,-1,36
 193 956 193 956 200 1013 c 128,-1,37
 207 1070 207 1070 212 1120 c 128,-1,38
 217 1170 217 1170 219 1205 c 1,39,-1
 775 1205 l 2,40,41
 804 1205 804 1205 826 1207.5 c 128,-1,42
 848 1210 848 1210 864 1214 c 0,43,44
 882 1218 882 1218 896 1223 c 1,45,-1
 935 1184 l 1,46,47
 924 1168 924 1168 904.5 1141 c 128,-1,48
 885 1114 885 1114 863.5 1087 c 128,-1,49
 842 1060 842 1060 822.5 1037 c 128,-1,50
 803 1014 803 1014 791 1005 c 1,51,-1
 344 1005 l 1,52,53
 342 976 342 976 338 941.5 c 128,-1,54
 334 907 334 907 329 872.5 c 128,-1,55
 324 838 324 838 318 807 c 128,-1,56
 312 776 312 776 308 754 c 1,57,58
 354 776 354 776 409.5 788 c 128,-1,59
 465 800 465 800 533 800 c 0,60,61
 637 800 637 800 714.5 766.5 c 128,-1,62
 792 733 792 733 843.5 678.5 c 128,-1,63
 895 624 895 624 920.5 553.5 c 128,-1,64
 946 483 946 483 946 410 c 0,0,1
EndSplineSet
EndChar

StartChar: six
Encoding: 54 54 25
Width: 1061
GlyphClass: 2
Flags: W
AnchorPoint: "Anchor-4" 1061 900 basechar 0
AnchorPoint: "Anchor-3" 530 -100 basechar 0
AnchorPoint: "Anchor-2" 530 -100 basechar 0
AnchorPoint: "Anchor-1" 530 -100 basechar 0
AnchorPoint: "Anchor-0" 530 1370 basechar 0
LayerCount: 2
Fore
SplineSet
560 640 m 0,0,1
 520 640 520 640 473 612 c 128,-1,2
 426 584 426 584 380 536 c 1,3,4
 380 418 380 418 396 336 c 128,-1,5
 412 254 412 254 440 202.5 c 128,-1,6
 468 151 468 151 505.5 128 c 128,-1,7
 543 105 543 105 585 105 c 0,8,9
 625 105 625 105 651.5 125.5 c 128,-1,10
 678 146 678 146 693.5 180 c 128,-1,11
 709 214 709 214 715 258 c 128,-1,12
 721 302 721 302 721 348 c 0,13,14
 721 442 721 442 707.5 499 c 128,-1,15
 694 556 694 556 671.5 587.5 c 128,-1,16
 649 619 649 619 620 629.5 c 128,-1,17
 591 640 591 640 560 640 c 0,0,1
1001 412 m 0,18,19
 1001 365 1001 365 988.5 314 c 128,-1,20
 976 263 976 263 952 214 c 128,-1,21
 928 165 928 165 891.5 121 c 128,-1,22
 855 77 855 77 806.5 43.5 c 128,-1,23
 758 10 758 10 698 -10 c 128,-1,24
 638 -30 638 -30 566 -30 c 0,25,26
 467 -30 467 -30 380 6.5 c 128,-1,27
 293 43 293 43 228.5 109 c 128,-1,28
 164 175 164 175 127 267.5 c 128,-1,29
 90 360 90 360 90 473 c 0,30,31
 90 614 90 614 140 743.5 c 128,-1,32
 190 873 190 873 288.5 976.5 c 128,-1,33
 387 1080 387 1080 532 1151.5 c 128,-1,34
 677 1223 677 1223 868 1249 c 1,35,-1
 897 1150 l 1,36,37
 775 1124 775 1124 687 1079 c 128,-1,38
 599 1034 599 1034 539 974 c 128,-1,39
 479 914 479 914 444 842 c 128,-1,40
 409 770 409 770 394 691 c 1,41,42
 455 739 455 739 516.5 764.5 c 128,-1,43
 578 790 578 790 631 790 c 0,44,45
 718 790 718 790 786.5 761.5 c 128,-1,46
 855 733 855 733 902.5 683 c 128,-1,47
 950 633 950 633 975.5 563.5 c 128,-1,48
 1001 494 1001 494 1001 412 c 0,18,19
EndSplineSet
EndChar

StartChar: seven
Encoding: 55 55 26
Width: 1061
GlyphClass: 2
Flags: W
AnchorPoint: "Anchor-4" 1061 900 basechar 0
AnchorPoint: "Anchor-3" 530 -100 basechar 0
AnchorPoint: "Anchor-2" 530 -100 basechar 0
AnchorPoint: "Anchor-1" 530 -100 basechar 0
AnchorPoint: "Anchor-0" 530 1370 basechar 0
LayerCount: 2
Fore
SplineSet
985 1167 m 1,0,1
 939 1059 939 1059 894.5 950 c 128,-1,2
 850 841 850 841 808.5 735 c 128,-1,3
 767 629 767 629 730 529 c 128,-1,4
 693 429 693 429 661.5 341.5 c 128,-1,5
 630 254 630 254 604.5 180.5 c 128,-1,6
 579 107 579 107 562 54 c 1,7,8
 544 42 544 42 513.5 29.5 c 128,-1,9
 483 17 483 17 448 6 c 128,-1,10
 413 -5 413 -5 379 -14.5 c 128,-1,11
 345 -24 345 -24 320 -30 c 1,12,-1
 269 13 l 1,13,14
 327 115 327 115 376 204.5 c 128,-1,15
 425 294 425 294 467.5 376 c 128,-1,16
 510 458 510 458 548 534.5 c 128,-1,17
 586 611 586 611 621.5 687.5 c 128,-1,18
 657 764 657 764 691.5 842 c 128,-1,19
 726 920 726 920 763 1005 c 1,20,-1
 319 1005 l 2,21,22
 304 1005 304 1005 287 1001 c 128,-1,23
 270 997 270 997 251 980.5 c 128,-1,24
 232 964 232 964 211.5 931 c 128,-1,25
 191 898 191 898 170 840 c 1,26,-1
 94 868 l 1,27,28
 96 883 96 883 100 910 c 128,-1,29
 104 937 104 937 108.5 969.5 c 128,-1,30
 113 1002 113 1002 118 1037.5 c 128,-1,31
 123 1073 123 1073 128 1105 c 128,-1,32
 133 1137 133 1137 138 1163.5 c 128,-1,33
 143 1190 143 1190 147 1205 c 1,34,-1
 952 1205 l 1,35,-1
 985 1167 l 1,0,1
EndSplineSet
EndChar

StartChar: eight
Encoding: 56 56 27
Width: 1061
GlyphClass: 2
Flags: W
AnchorPoint: "Anchor-4" 1061 900 basechar 0
AnchorPoint: "Anchor-3" 530 -100 basechar 0
AnchorPoint: "Anchor-2" 530 -100 basechar 0
AnchorPoint: "Anchor-1" 530 -100 basechar 0
AnchorPoint: "Anchor-0" 530 1370 basechar 0
LayerCount: 2
Fore
SplineSet
385 950 m 0,0,1
 385 914 385 914 400.5 887 c 128,-1,2
 416 860 416 860 443 838 c 128,-1,3
 470 816 470 816 506 797.5 c 128,-1,4
 542 779 542 779 583 762 c 1,5,6
 658 851 658 851 657 938 c 0,7,8
 657 990 657 990 644 1023.5 c 128,-1,9
 631 1057 631 1057 610.5 1076.5 c 128,-1,10
 590 1096 590 1096 564 1103.5 c 128,-1,11
 538 1111 538 1111 511 1111 c 0,12,13
 481 1111 481 1111 458 1098.5 c 128,-1,14
 435 1086 435 1086 418.5 1064 c 128,-1,15
 402 1042 402 1042 393.5 1013 c 128,-1,16
 385 984 385 984 385 950 c 0,0,1
697 309 m 0,17,18
 697 364 697 364 679.5 405 c 128,-1,19
 662 446 662 446 632 476.5 c 128,-1,20
 602 507 602 507 562 530 c 128,-1,21
 522 553 522 553 478 573 c 1,22,23
 422 514 422 514 393 454 c 128,-1,24
 364 394 364 394 364 315 c 0,25,26
 364 263 364 263 380 223 c 128,-1,27
 396 183 396 183 421.5 155.5 c 128,-1,28
 447 128 447 128 478 114 c 128,-1,29
 509 100 509 100 540 100 c 0,30,31
 576 100 576 100 605.5 116.5 c 128,-1,32
 635 133 635 133 655 161 c 128,-1,33
 675 189 675 189 686 227 c 128,-1,34
 697 265 697 265 697 309 c 0,17,18
987 352 m 0,35,36
 987 274 987 274 950.5 205 c 128,-1,37
 914 136 914 136 850 83.5 c 128,-1,38
 786 31 786 31 699 0.5 c 128,-1,39
 612 -30 612 -30 511 -30 c 0,40,41
 403 -30 403 -30 321 -4 c 128,-1,42
 239 22 239 22 184.5 66 c 128,-1,43
 130 110 130 110 102 166.5 c 128,-1,44
 74 223 74 223 74 285 c 0,45,46
 74 336 74 336 94.5 384.5 c 128,-1,47
 115 433 115 433 151.5 477 c 128,-1,48
 188 521 188 521 239 559 c 128,-1,49
 290 597 290 597 351 628 c 1,50,51
 306 649 306 649 265 673.5 c 128,-1,52
 224 698 224 698 193 731.5 c 128,-1,53
 162 765 162 765 143.5 809.5 c 128,-1,54
 125 854 125 854 125 915 c 0,55,56
 125 984 125 984 157.5 1043 c 128,-1,57
 190 1102 190 1102 246.5 1144.5 c 128,-1,58
 303 1187 303 1187 379 1211 c 128,-1,59
 455 1235 455 1235 542 1235 c 0,60,61
 643 1235 643 1235 717.5 1215 c 128,-1,62
 792 1195 792 1195 840.5 1160 c 128,-1,63
 889 1125 889 1125 913 1076 c 128,-1,64
 937 1027 937 1027 937 969 c 0,65,66
 937 930 937 930 920 895 c 128,-1,67
 903 860 903 860 873.5 827.5 c 128,-1,68
 844 795 844 795 804 764.5 c 128,-1,69
 764 734 764 734 717 705 c 1,70,71
 769 681 769 681 818 651 c 128,-1,72
 867 621 867 621 904.5 579.5 c 128,-1,73
 942 538 942 538 964.5 482.5 c 128,-1,74
 987 427 987 427 987 352 c 0,35,36
EndSplineSet
EndChar

StartChar: nine
Encoding: 57 57 28
Width: 1061
GlyphClass: 2
Flags: W
AnchorPoint: "Anchor-4" 1061 900 basechar 0
AnchorPoint: "Anchor-3" 530 -100 basechar 0
AnchorPoint: "Anchor-2" 530 -100 basechar 0
AnchorPoint: "Anchor-1" 530 -100 basechar 0
AnchorPoint: "Anchor-0" 530 1370 basechar 0
LayerCount: 2
Fore
SplineSet
521 575 m 0,0,1
 574 575 574 575 618.5 600.5 c 128,-1,2
 663 626 663 626 700 667 c 1,3,4
 698 806 698 806 682 891 c 128,-1,5
 666 976 666 976 642 1022.5 c 128,-1,6
 618 1069 618 1069 587.5 1084.5 c 128,-1,7
 557 1100 557 1100 525 1100 c 0,8,9
 447 1100 447 1100 403.5 1037.5 c 128,-1,10
 360 975 360 975 360 856 c 0,11,12
 360 775 360 775 377 720.5 c 128,-1,13
 394 666 394 666 419 634 c 128,-1,14
 444 602 444 602 472 588.5 c 128,-1,15
 500 575 500 575 521 575 c 0,0,1
990 731 m 0,16,17
 990 579 990 579 940.5 447 c 128,-1,18
 891 315 891 315 793.5 213.5 c 128,-1,19
 696 112 696 112 549.5 45 c 128,-1,20
 403 -22 403 -22 210 -43 c 1,21,-1
 182 56 l 1,22,23
 323 90 323 90 417 137 c 128,-1,24
 511 184 511 184 569.5 242 c 128,-1,25
 628 300 628 300 656.5 369 c 128,-1,26
 685 438 685 438 694 516 c 1,27,28
 643 469 643 469 580.5 442 c 128,-1,29
 518 415 518 415 448 415 c 0,30,31
 357 415 357 415 288.5 446.5 c 128,-1,32
 220 478 220 478 173.5 530.5 c 128,-1,33
 127 583 127 583 103.5 651.5 c 128,-1,34
 80 720 80 720 80 795 c 0,35,36
 80 871 80 871 114 949 c 128,-1,37
 148 1027 148 1027 209.5 1090.5 c 128,-1,38
 271 1154 271 1154 356.5 1194.5 c 128,-1,39
 442 1235 442 1235 546 1235 c 0,40,41
 646 1235 646 1235 727.5 1206 c 128,-1,42
 809 1177 809 1177 867.5 1115.5 c 128,-1,43
 926 1054 926 1054 958 959 c 128,-1,44
 990 864 990 864 990 731 c 0,16,17
EndSplineSet
EndChar

StartChar: less
Encoding: 60 60 31
Width: 940
Flags: W
LayerCount: 2
Fore
SplineSet
890 336 m 1,0,1
 879 326 879 326 865.5 312.5 c 128,-1,2
 852 299 852 299 837.5 285 c 128,-1,3
 823 271 823 271 807 258 c 128,-1,4
 791 245 791 245 776 236 c 1,5,-1
 85 480 l 1,6,-1
 50 525 l 1,7,8
 50 528 50 528 51 529 c 1,9,10
 51 531 51 531 51.5 531.5 c 128,-1,11
 52 532 52 532 52 534 c 2,12,-1
 54 540 l 1,13,-1
 56 549 l 1,14,-1
 60 563 l 1,15,-1
 64 574 l 1,16,-1
 68 589 l 1,17,-1
 72 601 l 2,18,19
 73 606 73 606 77 616 c 0,20,21
 77 618 77 618 78 619 c 2,22,-1
 80 626 l 2,23,24
 81 627 81 627 81 629 c 2,25,-1
 86 642 l 1,26,-1
 91 654 l 1,27,-1
 855 927 l 1,28,-1
 890 892 l 1,29,30
 887 881 887 881 882 862 c 128,-1,31
 877 843 877 843 871 822 c 128,-1,32
 865 801 865 801 859.5 782 c 128,-1,33
 854 763 854 763 851 754 c 1,34,-1
 333 568 l 1,35,-1
 863 382 l 1,36,-1
 890 336 l 1,0,1
EndSplineSet
EndChar

StartChar: equal
Encoding: 61 61 32
Width: 940
Flags: W
LayerCount: 2
Fore
SplineSet
890 456 m 1,0,1
 887 445 887 445 880 428 c 128,-1,2
 873 411 873 411 865 393 c 128,-1,3
 857 375 857 375 850 359 c 128,-1,4
 843 343 843 343 839 335 c 1,5,-1
 85 335 l 1,6,-1
 50 369 l 1,7,8
 53 380 53 380 59.5 396.5 c 128,-1,9
 66 413 66 413 73.5 430.5 c 128,-1,10
 81 448 81 448 88.5 464 c 128,-1,11
 96 480 96 480 101 490 c 1,12,-1
 855 490 l 1,13,-1
 890 456 l 1,0,1
890 756 m 1,14,15
 887 745 887 745 880 728 c 128,-1,16
 873 711 873 711 865 693 c 128,-1,17
 857 675 857 675 850 659 c 128,-1,18
 843 643 843 643 839 635 c 1,19,-1
 85 635 l 1,20,-1
 50 669 l 1,21,22
 53 680 53 680 59.5 696.5 c 128,-1,23
 66 713 66 713 73.5 730.5 c 128,-1,24
 81 748 81 748 88.5 764 c 128,-1,25
 96 780 96 780 101 790 c 1,26,-1
 855 790 l 1,27,-1
 890 756 l 1,14,15
EndSplineSet
EndChar

StartChar: greater
Encoding: 62 62 33
Width: 940
Flags: W
LayerCount: 2
Fore
SplineSet
890 638 m 1,0,1
 883 609 883 609 871 572 c 128,-1,2
 859 535 859 535 849 509 c 1,3,-1
 85 236 l 1,4,-1
 50 271 l 1,5,6
 53 281 53 281 58 300.5 c 128,-1,7
 63 320 63 320 69 341 c 128,-1,8
 75 362 75 362 80.5 381 c 128,-1,9
 86 400 86 400 89 409 c 1,10,-1
 607 594 l 1,11,-1
 77 781 l 1,12,-1
 50 827 l 1,13,14
 61 837 61 837 74.5 850.5 c 128,-1,15
 88 864 88 864 102.5 878 c 128,-1,16
 117 892 117 892 133 905 c 128,-1,17
 149 918 149 918 164 927 c 1,18,-1
 855 683 l 1,19,-1
 890 638 l 1,0,1
EndSplineSet
EndChar

StartChar: question
Encoding: 63 63 34
Width: 947
Flags: W
LayerCount: 2
Fore
SplineSet
886 1165 m 0,0,1
 886 1090 886 1090 860 1027.5 c 128,-1,2
 834 965 834 965 794 911.5 c 128,-1,3
 754 858 754 858 707.5 810 c 128,-1,4
 661 762 661 762 620.5 714.5 c 128,-1,5
 580 667 580 667 551.5 618.5 c 128,-1,6
 523 570 523 570 519 515 c 2,7,-1
 513 419 l 1,8,9
 494 405 494 405 464.5 395.5 c 128,-1,10
 435 386 435 386 407 378 c 1,11,-1
 372 409 l 1,12,-1
 364 515 l 1,13,14
 361 572 361 572 376.5 626 c 128,-1,15
 392 680 392 680 417.5 731.5 c 128,-1,16
 443 783 443 783 473.5 832.5 c 128,-1,17
 504 882 504 882 530.5 930 c 128,-1,18
 557 978 557 978 574.5 1025 c 128,-1,19
 592 1072 592 1072 592 1120 c 0,20,21
 592 1243 592 1243 557 1298.5 c 128,-1,22
 522 1354 522 1354 464 1354 c 0,23,24
 443 1354 443 1354 423 1342.5 c 128,-1,25
 403 1331 403 1331 387.5 1309 c 128,-1,26
 372 1287 372 1287 363 1256 c 128,-1,27
 354 1225 354 1225 354 1186 c 0,28,29
 354 1172 354 1172 357.5 1152 c 128,-1,30
 361 1132 361 1132 366 1118 c 1,31,32
 350 1110 350 1110 314.5 1099 c 128,-1,33
 279 1088 279 1088 238.5 1078 c 128,-1,34
 198 1068 198 1068 159.5 1060 c 128,-1,35
 121 1052 121 1052 99 1050 c 1,36,-1
 62 1090 l 1,37,38
 60 1098 60 1098 60 1116 c 2,39,-1
 60 1143 l 2,40,41
 60 1213 60 1213 98.5 1274.5 c 128,-1,42
 137 1336 137 1336 202 1382 c 128,-1,43
 267 1428 267 1428 352.5 1454 c 128,-1,44
 438 1480 438 1480 532 1480 c 0,45,46
 617 1480 617 1480 683 1457 c 128,-1,47
 749 1434 749 1434 794 1392.5 c 128,-1,48
 839 1351 839 1351 862.5 1293 c 128,-1,49
 886 1235 886 1235 886 1165 c 0,0,1
631 133 m 0,50,51
 631 91 631 91 615 58.5 c 128,-1,52
 599 26 599 26 572 4.5 c 128,-1,53
 545 -17 545 -17 509 -28.5 c 128,-1,54
 473 -40 473 -40 433 -40 c 0,55,56
 403 -40 403 -40 374 -32 c 128,-1,57
 345 -24 345 -24 322.5 -7 c 128,-1,58
 300 10 300 10 286.5 37 c 128,-1,59
 273 64 273 64 273 102 c 0,60,61
 273 143 273 143 289.5 175.5 c 128,-1,62
 306 208 306 208 333.5 230.5 c 128,-1,63
 361 253 361 253 397 264.5 c 128,-1,64
 433 276 433 276 472 276 c 0,65,66
 500 276 500 276 528.5 268 c 128,-1,67
 557 260 557 260 580 242.5 c 128,-1,68
 603 225 603 225 617 198 c 128,-1,69
 631 171 631 171 631 133 c 0,50,51
EndSplineSet
EndChar

StartChar: at
Encoding: 64 64 35
Width: 1843
Flags: W
LayerCount: 2
Fore
SplineSet
1054 731 m 1,0,1
 1034 772 1034 772 1008.5 796 c 128,-1,2
 983 820 983 820 938 820 c 0,3,4
 858 820 858 820 819 736 c 128,-1,5
 780 652 780 652 780 465 c 0,6,7
 780 380 780 380 792 325 c 128,-1,8
 804 270 804 270 823.5 237.5 c 128,-1,9
 843 205 843 205 867 192.5 c 128,-1,10
 891 180 891 180 915 180 c 0,11,12
 934 180 934 180 950 184.5 c 128,-1,13
 966 189 966 189 981.5 201.5 c 128,-1,14
 997 214 997 214 1014 235.5 c 128,-1,15
 1031 257 1031 257 1054 290 c 1,16,-1
 1054 731 l 1,0,1
1753 579 m 0,17,18
 1753 495 1753 495 1733 417 c 128,-1,19
 1713 339 1713 339 1677 271.5 c 128,-1,20
 1641 204 1641 204 1592.5 148.5 c 128,-1,21
 1544 93 1544 93 1486.5 53.5 c 128,-1,22
 1429 14 1429 14 1365.5 -8 c 128,-1,23
 1302 -30 1302 -30 1237 -30 c 0,24,25
 1205 -30 1205 -30 1177.5 -23 c 128,-1,26
 1150 -16 1150 -16 1127.5 1.5 c 128,-1,27
 1105 19 1105 19 1087.5 48 c 128,-1,28
 1070 77 1070 77 1060 122 c 1,29,30
 1019 76 1019 76 989 46.5 c 128,-1,31
 959 17 959 17 931 0 c 128,-1,32
 903 -17 903 -17 873.5 -23.5 c 128,-1,33
 844 -30 844 -30 804 -30 c 0,34,35
 753 -30 753 -30 700.5 -3.5 c 128,-1,36
 648 23 648 23 606 79.5 c 128,-1,37
 564 136 564 136 537 223.5 c 128,-1,38
 510 311 510 311 510 434 c 0,39,40
 510 499 510 499 523 563 c 128,-1,41
 536 627 536 627 561.5 685.5 c 128,-1,42
 587 744 587 744 624.5 794.5 c 128,-1,43
 662 845 662 845 711 881.5 c 128,-1,44
 760 918 760 918 819.5 939 c 128,-1,45
 879 960 879 960 949 960 c 0,46,47
 972 960 972 960 992.5 956.5 c 128,-1,48
 1013 953 1013 953 1033.5 943.5 c 128,-1,49
 1054 934 1054 934 1075 916 c 128,-1,50
 1096 898 1096 898 1119 869 c 1,51,52
 1151 879 1151 879 1177.5 889 c 128,-1,53
 1204 899 1204 899 1228 909.5 c 128,-1,54
 1252 920 1252 920 1275 932.5 c 128,-1,55
 1298 945 1298 945 1323 960 c 1,56,-1
 1354 930 l 1,57,58
 1345 893 1345 893 1339 853 c 0,59,60
 1333 819 1333 819 1328.5 777 c 128,-1,61
 1324 735 1324 735 1324 693 c 2,62,-1
 1324 285 l 2,63,64
 1324 259 1324 259 1325.5 239.5 c 128,-1,65
 1327 220 1327 220 1333 206.5 c 128,-1,66
 1339 193 1339 193 1350.5 186 c 128,-1,67
 1362 179 1362 179 1382 179 c 0,68,69
 1407 179 1407 179 1434 199.5 c 128,-1,70
 1461 220 1461 220 1483 261 c 128,-1,71
 1505 302 1505 302 1519 365 c 128,-1,72
 1533 428 1533 428 1533 512 c 0,73,74
 1533 684 1533 684 1491.5 810.5 c 128,-1,75
 1450 937 1450 937 1374.5 1019.5 c 128,-1,76
 1299 1102 1299 1102 1192 1142.5 c 128,-1,77
 1085 1183 1085 1183 955 1183 c 0,78,79
 802 1183 802 1183 687 1131 c 128,-1,80
 572 1079 572 1079 494.5 989 c 128,-1,81
 417 899 417 899 378.5 779 c 128,-1,82
 340 659 340 659 340 524 c 0,83,84
 340 332 340 332 391.5 189 c 128,-1,85
 443 46 443 46 532 -48 c 128,-1,86
 621 -142 621 -142 742 -188.5 c 128,-1,87
 863 -235 863 -235 1003 -235 c 0,88,89
 1102 -235 1102 -235 1187.5 -217.5 c 128,-1,90
 1273 -200 1273 -200 1342 -174 c 128,-1,91
 1411 -148 1411 -148 1462 -118 c 128,-1,92
 1513 -88 1513 -88 1543 -62 c 1,93,-1
 1596 -159 l 1,94,95
 1560 -201 1560 -201 1502.5 -247.5 c 128,-1,96
 1445 -294 1445 -294 1365.5 -333.5 c 128,-1,97
 1286 -373 1286 -373 1183 -399 c 128,-1,98
 1080 -425 1080 -425 954 -425 c 0,99,100
 763 -425 763 -425 604 -365 c 128,-1,101
 445 -305 445 -305 331 -191 c 128,-1,102
 217 -77 217 -77 153.5 88.5 c 128,-1,103
 90 254 90 254 90 465 c 0,104,105
 90 588 90 588 121.5 703.5 c 128,-1,106
 153 819 153 819 211 919.5 c 128,-1,107
 269 1020 269 1020 351 1103.5 c 128,-1,108
 433 1187 433 1187 533.5 1247 c 128,-1,109
 634 1307 634 1307 750.5 1340 c 128,-1,110
 867 1373 867 1373 994 1373 c 0,111,112
 1162 1373 1162 1373 1301.5 1325 c 128,-1,113
 1441 1277 1441 1277 1541.5 1179 c 128,-1,114
 1642 1081 1642 1081 1697.5 931.5 c 128,-1,115
 1753 782 1753 782 1753 579 c 0,17,18
EndSplineSet
EndChar

StartChar: A
Encoding: 65 65 36
Width: 1309
GlyphClass: 2
Flags: W
AnchorPoint: "Anchor-4" 1309 900 basechar 0
AnchorPoint: "Anchor-3" 1032 0 basechar 0
AnchorPoint: "Anchor-2" 1075 0 basechar 0
AnchorPoint: "Anchor-1" 644 -100 basechar 0
AnchorPoint: "Anchor-0" 644 1370 basechar 0
LayerCount: 2
Fore
SplineSet
743 555 m 1,0,-1
 582 1003 l 1,1,-1
 439 555 l 1,2,-1
 743 555 l 1,0,-1
396 425 m 1,3,-1
 305 151 l 2,4,5
 295 120 295 120 328.5 106 c 128,-1,6
 362 92 362 92 444 83 c 1,7,-1
 444 0 l 1,8,-1
 0 0 l 1,9,-1
 0 83 l 1,10,11
 68 95 68 95 103 108 c 128,-1,12
 138 121 138 121 148 151 c 2,13,-1
 490 1197 l 1,14,15
 517 1220 517 1220 549.5 1238.5 c 128,-1,16
 582 1257 582 1257 616 1272 c 128,-1,17
 650 1287 650 1287 683.5 1298 c 128,-1,18
 717 1309 717 1309 747 1317 c 1,19,-1
 1167 151 l 2,20,21
 1172 137 1172 137 1179.5 126 c 128,-1,22
 1187 115 1187 115 1200.5 107 c 128,-1,23
 1214 99 1214 99 1235 93 c 128,-1,24
 1256 87 1256 87 1288 83 c 1,25,-1
 1288 0 l 1,26,-1
 766 0 l 1,27,-1
 766 83 l 1,28,29
 843 87 843 87 870.5 102.5 c 128,-1,30
 898 118 898 118 887 151 c 2,31,-1
 789 425 l 1,32,-1
 396 425 l 1,3,-1
EndSplineSet
EndChar

StartChar: B
Encoding: 66 66 37
Width: 1266
GlyphClass: 2
Flags: W
AnchorPoint: "Anchor-4" 1266 900 basechar 0
AnchorPoint: "Anchor-3" 596 -100 basechar 0
AnchorPoint: "Anchor-2" 596 -100 basechar 0
AnchorPoint: "Anchor-1" 596 -100 basechar 0
AnchorPoint: "Anchor-0" 596 1370 basechar 0
LayerCount: 2
Fore
SplineSet
483 1176 m 0,0,1
 476 1176 476 1176 469.5 1175.5 c 128,-1,2
 463 1175 463 1175 455 1175 c 1,3,-1
 455 745 l 1,4,-1
 469 745 l 2,5,6
 564 745 564 745 623 764 c 128,-1,7
 682 783 682 783 714.5 814.5 c 128,-1,8
 747 846 747 846 758.5 887 c 128,-1,9
 770 928 770 928 770 971 c 0,10,11
 770 1021 770 1021 756 1059 c 128,-1,12
 742 1097 742 1097 708.5 1123 c 128,-1,13
 675 1149 675 1149 620 1162.5 c 128,-1,14
 565 1176 565 1176 483 1176 c 0,0,1
580 635 m 0,15,16
 535 635 535 635 507.5 631 c 128,-1,17
 480 627 480 627 455 622 c 1,18,-1
 455 134 l 2,19,20
 455 128 455 128 458 121 c 1,21,22
 486 109 486 109 516 104.5 c 128,-1,23
 546 100 546 100 587 100 c 0,24,25
 731 100 731 100 801.5 164.5 c 128,-1,26
 872 229 872 229 872 342 c 0,27,28
 872 397 872 397 859 449.5 c 128,-1,29
 846 502 846 502 813 543.5 c 128,-1,30
 780 585 780 585 723.5 610 c 128,-1,31
 667 635 667 635 580 635 c 0,15,16
1166 356 m 0,32,33
 1166 271 1166 271 1130 202.5 c 128,-1,34
 1094 134 1094 134 1025 86 c 128,-1,35
 956 38 956 38 856 12 c 128,-1,36
 756 -14 756 -14 629 -14 c 0,37,38
 607 -14 607 -14 573.5 -13.5 c 128,-1,39
 540 -13 540 -13 500.5 -12 c 128,-1,40
 461 -11 461 -11 417.5 -10 c 128,-1,41
 374 -9 374 -9 332 -7 c 0,42,43
 233 -4 233 -4 123 0 c 1,44,-1
 40 0 l 1,45,-1
 40 83 l 1,46,47
 108 97 108 97 141.5 113.5 c 128,-1,48
 175 130 175 130 175 144 c 2,49,-1
 175 1156 l 1,50,51
 136 1152 136 1152 101.5 1147.5 c 128,-1,52
 67 1143 67 1143 40 1138 c 1,53,-1
 26 1230 l 1,54,55
 72 1241 72 1241 136.5 1251.5 c 128,-1,56
 201 1262 201 1262 272 1270.5 c 128,-1,57
 343 1279 343 1279 415 1284.5 c 128,-1,58
 487 1290 487 1290 549 1290 c 0,59,60
 668 1290 668 1290 762 1271.5 c 128,-1,61
 856 1253 856 1253 921 1218 c 128,-1,62
 986 1183 986 1183 1020.5 1133 c 128,-1,63
 1055 1083 1055 1083 1055 1020 c 0,64,65
 1055 912 1055 912 995.5 835 c 128,-1,66
 936 758 936 758 815 723 c 1,67,68
 894 711 894 711 958.5 678 c 128,-1,69
 1023 645 1023 645 1069 596.5 c 128,-1,70
 1115 548 1115 548 1140.5 486.5 c 128,-1,71
 1166 425 1166 425 1166 356 c 0,32,33
EndSplineSet
EndChar

StartChar: C
Encoding: 67 67 38
Width: 1158
GlyphClass: 2
Flags: W
AnchorPoint: "Anchor-4" 1158 900 basechar 0
AnchorPoint: "Anchor-3" 645 -100 basechar 0
AnchorPoint: "Anchor-2" 612 0 basechar 0
AnchorPoint: "Anchor-1" 645 -100 basechar 0
AnchorPoint: "Anchor-0" 645 1370 basechar 0
LayerCount: 2
Fore
SplineSet
1088 211 m 1,0,1
 960 82 960 82 834.5 26 c 128,-1,2
 709 -30 709 -30 591 -30 c 0,3,4
 487 -30 487 -30 389.5 12 c 128,-1,5
 292 54 292 54 216.5 133 c 128,-1,6
 141 212 141 212 95.5 326.5 c 128,-1,7
 50 441 50 441 50 586 c 0,8,9
 50 746 50 746 99.5 876 c 128,-1,10
 149 1006 149 1006 235.5 1098.5 c 128,-1,11
 322 1191 322 1191 440 1241 c 128,-1,12
 558 1291 558 1291 696 1290 c 0,13,14
 750 1290 750 1290 805 1282 c 128,-1,15
 860 1274 860 1274 910 1260.5 c 128,-1,16
 960 1247 960 1247 1001.5 1229 c 128,-1,17
 1043 1211 1043 1211 1069 1190 c 0,18,19
 1073 1187 1073 1187 1068.5 1170 c 128,-1,20
 1064 1153 1064 1153 1054 1128.5 c 128,-1,21
 1044 1104 1044 1104 1031 1075.5 c 128,-1,22
 1018 1047 1018 1047 1004.5 1021 c 128,-1,23
 991 995 991 995 979 975 c 128,-1,24
 967 955 967 955 959 947 c 1,25,-1
 884 963 l 1,26,27
 834 1064 834 1064 769.5 1107.5 c 128,-1,28
 705 1151 705 1151 632 1150 c 0,29,30
 581 1150 581 1150 528 1126 c 128,-1,31
 475 1102 475 1102 432 1042 c 128,-1,32
 389 982 389 982 362 880.5 c 128,-1,33
 335 779 335 779 335 623 c 0,34,35
 335 497 335 497 367 407.5 c 128,-1,36
 399 318 399 318 450 261 c 128,-1,37
 501 204 501 204 565 177 c 128,-1,38
 629 150 629 150 693 150 c 0,39,40
 720 150 720 150 757 155.5 c 128,-1,41
 794 161 794 161 837.5 176 c 128,-1,42
 881 191 881 191 930.5 217.5 c 128,-1,43
 980 244 980 244 1031 286 c 1,44,45
 1036 282 1036 282 1044.5 271 c 128,-1,46
 1053 260 1053 260 1061.5 247.5 c 128,-1,47
 1070 235 1070 235 1077.5 224.5 c 128,-1,48
 1085 214 1085 214 1088 211 c 1,0,1
EndSplineSet
EndChar

StartChar: D
Encoding: 68 68 39
Width: 1334
GlyphClass: 2
Flags: W
AnchorPoint: "Anchor-4" 1334 900 basechar 0
AnchorPoint: "Anchor-3" 603 -100 basechar 0
AnchorPoint: "Anchor-2" 603 -100 basechar 0
AnchorPoint: "Anchor-1" 603 -100 basechar 0
AnchorPoint: "Anchor-0" 603 1370 basechar 0
LayerCount: 2
Fore
SplineSet
1253 676 m 0,0,1
 1253 551 1253 551 1227.5 452.5 c 128,-1,2
 1202 354 1202 354 1157.5 278.5 c 128,-1,3
 1113 203 1113 203 1053.5 150.5 c 128,-1,4
 994 98 994 98 925.5 64.5 c 128,-1,5
 857 31 857 31 783.5 15.5 c 128,-1,6
 710 0 710 0 639 0 c 2,7,-1
 40 0 l 1,8,-1
 40 83 l 1,9,10
 108 97 108 97 141.5 113.5 c 128,-1,11
 175 130 175 130 175 144 c 2,12,-1
 175 1147 l 1,13,-1
 40 1128 l 1,14,-1
 26 1230 l 1,15,16
 77 1242 77 1242 148 1253 c 128,-1,17
 219 1264 219 1264 296.5 1272.5 c 128,-1,18
 374 1281 374 1281 452.5 1285.5 c 128,-1,19
 531 1290 531 1290 598 1290 c 0,20,21
 756 1290 756 1290 878 1248.5 c 128,-1,22
 1000 1207 1000 1207 1083.5 1128 c 128,-1,23
 1167 1049 1167 1049 1210 935 c 128,-1,24
 1253 821 1253 821 1253 676 c 0,0,1
523 1176 m 0,25,26
 507 1176 507 1176 489.5 1175.5 c 128,-1,27
 472 1175 472 1175 455 1174 c 1,28,-1
 455 190 l 2,29,30
 455 173 455 173 457 159 c 128,-1,31
 459 145 459 145 472.5 135 c 128,-1,32
 486 125 486 125 515 119.5 c 128,-1,33
 544 114 544 114 597 114 c 0,34,35
 651 114 651 114 713.5 143 c 128,-1,36
 776 172 776 172 829 235 c 128,-1,37
 882 298 882 298 917.5 397 c 128,-1,38
 953 496 953 496 953 637 c 0,39,40
 953 904 953 904 844 1040 c 128,-1,41
 735 1176 735 1176 523 1176 c 0,25,26
EndSplineSet
EndChar

StartChar: E
Encoding: 69 69 40
Width: 1096
GlyphClass: 2
Flags: W
AnchorPoint: "Anchor-4" 1096 900 basechar 0
AnchorPoint: "Anchor-3" 825 0 basechar 0
AnchorPoint: "Anchor-2" 547 0 basechar 0
AnchorPoint: "Anchor-1" 547 -100 basechar 0
AnchorPoint: "Anchor-0" 547 1370 basechar 0
LayerCount: 2
Fore
SplineSet
1054 324 m 1,0,1
 1050 281 1050 281 1045 230.5 c 128,-1,2
 1040 180 1040 180 1034 133.5 c 128,-1,3
 1028 87 1028 87 1022.5 51 c 128,-1,4
 1017 15 1017 15 1013 0 c 1,5,-1
 40 0 l 1,6,-1
 40 83 l 1,7,8
 108 97 108 97 141.5 113.5 c 128,-1,9
 175 130 175 130 175 144 c 2,10,-1
 175 1115 l 2,11,12
 175 1127 175 1127 143.5 1145 c 128,-1,13
 112 1163 112 1163 40 1177 c 1,14,-1
 40 1260 l 1,15,-1
 946 1260 l 1,16,-1
 989 1225 l 1,17,18
 987 1199 987 1199 983 1157 c 128,-1,19
 979 1115 979 1115 973 1071 c 128,-1,20
 967 1027 967 1027 960.5 988 c 128,-1,21
 954 949 954 949 948 930 c 1,22,-1
 863 930 l 1,23,24
 858 1023 858 1023 838 1076.5 c 128,-1,25
 818 1130 818 1130 781 1130 c 2,26,-1
 455 1130 l 1,27,-1
 455 735 l 1,28,-1
 850 735 l 1,29,-1
 886 697 l 1,30,31
 878 683 878 683 866.5 664 c 128,-1,32
 855 645 855 645 842.5 625.5 c 128,-1,33
 830 606 830 606 817.5 590 c 128,-1,34
 805 574 805 574 794 566 c 1,35,36
 779 581 779 581 761.5 591 c 128,-1,37
 744 601 744 601 721.5 608 c 128,-1,38
 699 615 699 615 668.5 618 c 128,-1,39
 638 621 638 621 596 621 c 2,40,-1
 455 621 l 1,41,-1
 455 194 l 2,42,43
 455 179 455 179 462 167.5 c 128,-1,44
 469 156 469 156 491 147.5 c 128,-1,45
 513 139 513 139 553 134.5 c 128,-1,46
 593 130 593 130 659 130 c 2,47,-1
 748 130 l 2,48,49
 794 130 794 130 826.5 142.5 c 128,-1,50
 859 155 859 155 884 182 c 128,-1,51
 909 209 909 209 929.5 251 c 128,-1,52
 950 293 950 293 971 352 c 1,53,-1
 1054 324 l 1,0,1
EndSplineSet
EndChar

StartChar: F
Encoding: 70 70 41
Width: 1059
GlyphClass: 2
Flags: W
AnchorPoint: "Anchor-4" 1059 900 basechar 0
AnchorPoint: "Anchor-3" 518 -100 basechar 0
AnchorPoint: "Anchor-2" 518 -100 basechar 0
AnchorPoint: "Anchor-1" 518 -100 basechar 0
AnchorPoint: "Anchor-0" 518 1370 basechar 0
LayerCount: 2
Fore
SplineSet
40 0 m 1,0,-1
 40 83 l 1,1,2
 108 97 108 97 141.5 113.5 c 128,-1,3
 175 130 175 130 175 144 c 2,4,-1
 175 1115 l 2,5,6
 175 1127 175 1127 143.5 1145 c 128,-1,7
 112 1163 112 1163 40 1177 c 1,8,-1
 40 1260 l 1,9,-1
 956 1260 l 1,10,-1
 997 1225 l 1,11,12
 996 1199 996 1199 992 1157 c 128,-1,13
 988 1115 988 1115 982.5 1071 c 128,-1,14
 977 1027 977 1027 970.5 988 c 128,-1,15
 964 949 964 949 958 930 c 1,16,-1
 871 930 l 1,17,18
 868 1023 868 1023 847.5 1076.5 c 128,-1,19
 827 1130 827 1130 789 1130 c 2,20,-1
 455 1130 l 1,21,-1
 455 735 l 1,22,-1
 819 735 l 1,23,-1
 858 697 l 1,24,25
 849 679 849 679 837 659.5 c 128,-1,26
 825 640 825 640 812 622 c 128,-1,27
 799 604 799 604 786.5 589 c 128,-1,28
 774 574 774 574 764 566 c 1,29,30
 749 581 749 581 732 591 c 128,-1,31
 715 601 715 601 692.5 608 c 128,-1,32
 670 615 670 615 639.5 618 c 128,-1,33
 609 621 609 621 567 621 c 2,34,-1
 455 621 l 1,35,-1
 455 144 l 2,36,37
 455 138 455 138 462.5 131 c 128,-1,38
 470 124 470 124 488.5 116.5 c 128,-1,39
 507 109 507 109 539 100.5 c 128,-1,40
 571 92 571 92 620 83 c 1,41,-1
 620 0 l 1,42,-1
 40 0 l 1,0,-1
EndSplineSet
EndChar

StartChar: G
Encoding: 71 71 42
Width: 1244
GlyphClass: 2
Flags: W
AnchorPoint: "Anchor-4" 1244 900 basechar 0
AnchorPoint: "Anchor-3" 662 -100 basechar 0
AnchorPoint: "Anchor-2" 640 0 basechar 0
AnchorPoint: "Anchor-1" 662 -100 basechar 0
AnchorPoint: "Anchor-0" 662 1370 basechar 0
LayerCount: 2
Fore
SplineSet
1112 1188 m 0,0,1
 1117 1184 1117 1184 1112.5 1167.5 c 128,-1,2
 1108 1151 1108 1151 1098 1127 c 128,-1,3
 1088 1103 1088 1103 1074 1075.5 c 128,-1,4
 1060 1048 1060 1048 1045.5 1023 c 128,-1,5
 1031 998 1031 998 1018 978.5 c 128,-1,6
 1005 959 1005 959 996 951 c 1,7,-1
 923 967 l 1,8,9
 890 1021 890 1021 857 1058 c 128,-1,10
 824 1095 824 1095 789 1117.5 c 128,-1,11
 754 1140 754 1140 717 1150 c 128,-1,12
 680 1160 680 1160 638 1160 c 0,13,14
 613 1160 613 1160 581 1150 c 128,-1,15
 549 1140 549 1140 515 1116.5 c 128,-1,16
 481 1093 481 1093 449 1054.5 c 128,-1,17
 417 1016 417 1016 391.5 957.5 c 128,-1,18
 366 899 366 899 350.5 820 c 128,-1,19
 335 741 335 741 335 637 c 0,20,21
 335 505 335 505 364 411 c 128,-1,22
 393 317 393 317 442 257 c 128,-1,23
 491 197 491 197 554 168.5 c 128,-1,24
 617 140 617 140 686 140 c 0,25,26
 734 140 734 140 771.5 148 c 128,-1,27
 809 156 809 156 840 170 c 1,28,-1
 840 465 l 2,29,30
 840 476 840 476 837.5 486.5 c 128,-1,31
 835 497 835 497 821.5 507 c 128,-1,32
 808 517 808 517 778.5 527 c 128,-1,33
 749 537 749 537 694 547 c 1,34,-1
 694 630 l 1,35,-1
 1205 630 l 1,36,-1
 1205 547 l 1,37,38
 1176 540 1176 540 1158 531 c 128,-1,39
 1140 522 1140 522 1129 511 c 128,-1,40
 1118 500 1118 500 1114 488.5 c 128,-1,41
 1110 477 1110 477 1110 465 c 2,42,-1
 1110 174 l 1,43,44
 1036 113 1036 113 970 73.5 c 128,-1,45
 904 34 904 34 845.5 11 c 128,-1,46
 787 -12 787 -12 735 -21 c 128,-1,47
 683 -30 683 -30 638 -30 c 0,48,49
 564 -30 564 -30 491.5 -13.5 c 128,-1,50
 419 3 419 3 353.5 36.5 c 128,-1,51
 288 70 288 70 232.5 121 c 128,-1,52
 177 172 177 172 136.5 240 c 128,-1,53
 96 308 96 308 73 393.5 c 128,-1,54
 50 479 50 479 50 582 c 0,55,56
 50 748 50 748 103.5 879.5 c 128,-1,57
 157 1011 157 1011 251.5 1102.5 c 128,-1,58
 346 1194 346 1194 475.5 1242 c 128,-1,59
 605 1290 605 1290 757 1290 c 0,60,61
 790 1290 790 1290 837.5 1283 c 128,-1,62
 885 1276 885 1276 935 1263 c 128,-1,63
 985 1250 985 1250 1032.5 1231 c 128,-1,64
 1080 1212 1080 1212 1112 1188 c 0,0,1
EndSplineSet
EndChar

StartChar: H
Encoding: 72 72 43
Width: 1419
GlyphClass: 2
Flags: W
AnchorPoint: "Anchor-4" 1419 900 basechar 0
AnchorPoint: "Anchor-3" 700 -100 basechar 0
AnchorPoint: "Anchor-2" 278 0 basechar 0
AnchorPoint: "Anchor-1" 700 -100 basechar 0
AnchorPoint: "Anchor-0" 700 1370 basechar 0
LayerCount: 2
Fore
SplineSet
40 0 m 1,0,-1
 40 83 l 1,1,2
 108 97 108 97 141.5 113.5 c 128,-1,3
 175 130 175 130 175 144 c 2,4,-1
 175 1115 l 2,5,6
 175 1127 175 1127 143.5 1145 c 128,-1,7
 112 1163 112 1163 40 1177 c 1,8,-1
 40 1260 l 1,9,-1
 590 1260 l 1,10,-1
 590 1177 l 1,11,12
 522 1163 522 1163 488.5 1146 c 128,-1,13
 455 1129 455 1129 455 1115 c 2,14,-1
 455 725 l 1,15,-1
 945 725 l 1,16,-1
 945 1115 l 2,17,18
 945 1127 945 1127 913.5 1145 c 128,-1,19
 882 1163 882 1163 810 1177 c 1,20,-1
 810 1260 l 1,21,-1
 1360 1260 l 1,22,-1
 1360 1177 l 1,23,24
 1292 1163 1292 1163 1258.5 1146 c 128,-1,25
 1225 1129 1225 1129 1225 1115 c 2,26,-1
 1225 144 l 2,27,28
 1225 132 1225 132 1256.5 114.5 c 128,-1,29
 1288 97 1288 97 1360 83 c 1,30,-1
 1360 0 l 1,31,-1
 810 0 l 1,32,-1
 810 83 l 1,33,34
 878 97 878 97 911.5 113.5 c 128,-1,35
 945 130 945 130 945 144 c 2,36,-1
 945 595 l 1,37,-1
 455 595 l 1,38,-1
 455 144 l 2,39,40
 455 132 455 132 486 114.5 c 128,-1,41
 517 97 517 97 590 83 c 1,42,-1
 590 0 l 1,43,-1
 40 0 l 1,0,-1
EndSplineSet
EndChar

StartChar: I
Encoding: 73 73 44
Width: 690
GlyphClass: 2
Flags: W
AnchorPoint: "Anchor-4" 690 900 basechar 0
AnchorPoint: "Anchor-3" 396 0 basechar 0
AnchorPoint: "Anchor-2" 335 0 basechar 0
AnchorPoint: "Anchor-1" 335 -100 basechar 0
AnchorPoint: "Anchor-0" 335 1370 basechar 0
LayerCount: 2
Fore
SplineSet
60 0 m 1,0,-1
 60 83 l 1,1,2
 128 97 128 97 161.5 113.5 c 128,-1,3
 195 130 195 130 195 144 c 2,4,-1
 195 1115 l 2,5,6
 195 1127 195 1127 163.5 1145 c 128,-1,7
 132 1163 132 1163 60 1177 c 1,8,-1
 60 1260 l 1,9,-1
 610 1260 l 1,10,-1
 610 1177 l 1,11,12
 542 1163 542 1163 508.5 1146 c 128,-1,13
 475 1129 475 1129 475 1115 c 2,14,-1
 475 144 l 2,15,16
 475 132 475 132 506.5 114.5 c 128,-1,17
 538 97 538 97 610 83 c 1,18,-1
 610 0 l 1,19,-1
 60 0 l 1,0,-1
EndSplineSet
EndChar

StartChar: J
Encoding: 74 74 45
Width: 705
GlyphClass: 2
Flags: W
AnchorPoint: "Anchor-4" 705 900 basechar 0
AnchorPoint: "Anchor-3" 362 -600 basechar 0
AnchorPoint: "Anchor-2" 362 -600 basechar 0
AnchorPoint: "Anchor-1" 362 -600 basechar 0
AnchorPoint: "Anchor-0" 362 1370 basechar 0
LayerCount: 2
Fore
SplineSet
645 1177 m 1,0,1
 577 1163 577 1163 543.5 1146 c 128,-1,2
 510 1129 510 1129 510 1115 c 2,3,-1
 510 175 l 2,4,5
 510 68 510 68 486 -10.5 c 128,-1,6
 462 -89 462 -89 425 -147 c 128,-1,7
 388 -205 388 -205 344 -245.5 c 128,-1,8
 300 -286 300 -286 261 -318 c 0,9,10
 234 -340 234 -340 200.5 -360 c 128,-1,11
 167 -380 167 -380 129.5 -395.5 c 128,-1,12
 92 -411 92 -411 52.5 -420.5 c 128,-1,13
 13 -430 13 -430 -25 -430 c 0,14,15
 -74 -430 -74 -430 -121.5 -419 c 128,-1,16
 -169 -408 -169 -408 -206.5 -392.5 c 128,-1,17
 -244 -377 -244 -377 -267 -359.5 c 128,-1,18
 -290 -342 -290 -342 -290 -330 c 0,19,20
 -290 -322 -290 -322 -279 -306.5 c 128,-1,21
 -268 -291 -268 -291 -250 -272 c 128,-1,22
 -232 -253 -232 -253 -210.5 -233 c 128,-1,23
 -189 -213 -189 -213 -168.5 -195.5 c 128,-1,24
 -148 -178 -148 -178 -130.5 -165.5 c 128,-1,25
 -113 -153 -113 -153 -104 -150 c 1,26,27
 -48 -202 -48 -202 4 -224.5 c 128,-1,28
 56 -247 56 -247 94 -247 c 0,29,30
 120 -247 120 -247 144.5 -236.5 c 128,-1,31
 169 -226 169 -226 188 -189.5 c 128,-1,32
 207 -153 207 -153 218.5 -83.5 c 128,-1,33
 230 -14 230 -14 230 103 c 2,34,-1
 230 1115 l 2,35,36
 230 1121 230 1121 223.5 1128 c 128,-1,37
 217 1135 217 1135 197.5 1143 c 128,-1,38
 178 1151 178 1151 141.5 1159.5 c 128,-1,39
 105 1168 105 1168 45 1177 c 1,40,-1
 45 1260 l 1,41,-1
 645 1260 l 1,42,-1
 645 1177 l 1,0,1
EndSplineSet
EndChar

StartChar: K
Encoding: 75 75 46
Width: 1294
GlyphClass: 2
Flags: W
AnchorPoint: "Anchor-4" 1294 900 basechar 0
AnchorPoint: "Anchor-3" 667 -100 basechar 0
AnchorPoint: "Anchor-2" 291 0 basechar 0
AnchorPoint: "Anchor-1" 667 -100 basechar 0
AnchorPoint: "Anchor-0" 642 1370 basechar 0
LayerCount: 2
Fore
SplineSet
40 0 m 1,0,-1
 40 83 l 1,1,2
 108 97 108 97 141.5 113.5 c 128,-1,3
 175 130 175 130 175 144 c 2,4,-1
 175 1115 l 2,5,6
 175 1127 175 1127 143.5 1145 c 128,-1,7
 112 1163 112 1163 40 1177 c 1,8,-1
 40 1260 l 1,9,-1
 590 1260 l 1,10,-1
 590 1177 l 1,11,12
 522 1163 522 1163 488.5 1146 c 128,-1,13
 455 1129 455 1129 455 1115 c 2,14,-1
 455 664 l 1,15,-1
 814 1088 l 2,16,17
 837 1115 837 1115 847.5 1131 c 128,-1,18
 858 1147 858 1147 854 1156 c 128,-1,19
 850 1165 850 1165 829.5 1169.5 c 128,-1,20
 809 1174 809 1174 770 1177 c 1,21,-1
 770 1260 l 1,22,-1
 1230 1260 l 1,23,-1
 1230 1177 l 1,24,25
 1198 1173 1198 1173 1176.5 1169 c 128,-1,26
 1155 1165 1155 1165 1138.5 1158.5 c 128,-1,27
 1122 1152 1122 1152 1109 1141.5 c 128,-1,28
 1096 1131 1096 1131 1080 1115 c 2,29,-1
 654 677 l 1,30,-1
 1135 177 l 2,31,32
 1151 160 1151 160 1167 151.5 c 128,-1,33
 1183 143 1183 143 1201 139 c 128,-1,34
 1219 135 1219 135 1240 136 c 128,-1,35
 1261 137 1261 137 1287 140 c 1,36,-1
 1294 57 l 1,37,38
 1265 48 1265 48 1227 35.5 c 128,-1,39
 1189 23 1189 23 1150.5 12 c 128,-1,40
 1112 1 1112 1 1077 -6.5 c 128,-1,41
 1042 -14 1042 -14 1018 -14 c 0,42,43
 989 -14 989 -14 966.5 -5 c 128,-1,44
 944 4 944 4 924 29 c 2,45,-1
 455 620 l 1,46,-1
 455 144 l 2,47,48
 455 132 455 132 486 114.5 c 128,-1,49
 517 97 517 97 590 83 c 1,50,-1
 590 0 l 1,51,-1
 40 0 l 1,0,-1
EndSplineSet
EndChar

StartChar: L
Encoding: 76 76 47
Width: 1065
GlyphClass: 2
Flags: W
AnchorPoint: "Anchor-4" 840 900 basechar 0
AnchorPoint: "Anchor-3" 542 -100 basechar 0
AnchorPoint: "Anchor-2" 542 0 basechar 0
AnchorPoint: "Anchor-1" 542 -100 basechar 0
AnchorPoint: "Anchor-0" 508 1370 basechar 0
LayerCount: 2
Fore
SplineSet
1044 324 m 1,0,1
 1040 281 1040 281 1034.5 230.5 c 128,-1,2
 1029 180 1029 180 1023.5 133.5 c 128,-1,3
 1018 87 1018 87 1012.5 51 c 128,-1,4
 1007 15 1007 15 1003 0 c 1,5,-1
 40 0 l 1,6,-1
 40 83 l 1,7,8
 108 97 108 97 141.5 113.5 c 128,-1,9
 175 130 175 130 175 144 c 2,10,-1
 175 1115 l 2,11,12
 175 1127 175 1127 143.5 1145 c 128,-1,13
 112 1163 112 1163 40 1177 c 1,14,-1
 40 1260 l 1,15,-1
 590 1260 l 1,16,-1
 590 1177 l 1,17,18
 522 1163 522 1163 488.5 1146 c 128,-1,19
 455 1129 455 1129 455 1115 c 2,20,-1
 455 204 l 2,21,22
 455 186 455 186 463.5 172.5 c 128,-1,23
 472 159 472 159 493 149.5 c 128,-1,24
 514 140 514 140 550 135 c 128,-1,25
 586 130 586 130 641 130 c 2,26,-1
 744 130 l 2,27,28
 790 130 790 130 821.5 142.5 c 128,-1,29
 853 155 853 155 877 182 c 128,-1,30
 901 209 901 209 920.5 251 c 128,-1,31
 940 293 940 293 961 352 c 1,32,-1
 1044 324 l 1,0,1
EndSplineSet
EndChar

StartChar: M
Encoding: 77 77 48
Width: 1761
GlyphClass: 2
Flags: W
AnchorPoint: "Anchor-4" 1761 900 basechar 0
AnchorPoint: "Anchor-3" 870 -100 basechar 0
AnchorPoint: "Anchor-2" 870 -100 basechar 0
AnchorPoint: "Anchor-1" 870 -100 basechar 0
AnchorPoint: "Anchor-0" 870 1370 basechar 0
LayerCount: 2
Fore
SplineSet
1660 1177 m 1,0,1
 1636 1177 1636 1177 1603.5 1170.5 c 128,-1,2
 1571 1164 1571 1164 1535 1152 c 1,3,-1
 1545 144 l 2,4,5
 1545 132 1545 132 1581.5 114.5 c 128,-1,6
 1618 97 1618 97 1690 83 c 1,7,-1
 1690 0 l 1,8,-1
 1145 0 l 1,9,-1
 1145 83 l 1,10,11
 1213 97 1213 97 1251.5 113.5 c 128,-1,12
 1290 130 1290 130 1290 144 c 2,13,-1
 1282 917 l 1,14,-1
 863 0 l 1,15,-1
 754 0 l 1,16,-1
 348 915 l 1,17,-1
 340 144 l 2,18,19
 340 132 340 132 371.5 114.5 c 128,-1,20
 403 97 403 97 475 83 c 1,21,-1
 475 0 l 1,22,-1
 50 0 l 1,23,-1
 50 83 l 1,24,25
 119 97 119 97 152 113.5 c 128,-1,26
 185 130 185 130 185 144 c 2,27,-1
 195 1144 l 1,28,29
 160 1163 160 1163 124.5 1170 c 128,-1,30
 89 1177 89 1177 60 1177 c 1,31,-1
 60 1260 l 1,32,-1
 426 1260 l 2,33,34
 436 1260 436 1260 444.5 1257 c 128,-1,35
 453 1254 453 1254 461 1245 c 128,-1,36
 469 1236 469 1236 478.5 1219.5 c 128,-1,37
 488 1203 488 1203 500 1176 c 2,38,-1
 859 363 l 1,39,-1
 1230 1176 l 2,40,41
 1243 1206 1243 1206 1252.5 1222.5 c 128,-1,42
 1262 1239 1262 1239 1270.5 1247.5 c 128,-1,43
 1279 1256 1279 1256 1287 1258 c 128,-1,44
 1295 1260 1295 1260 1304 1260 c 2,45,-1
 1660 1260 l 1,46,-1
 1660 1177 l 1,0,1
EndSplineSet
EndChar

StartChar: N
Encoding: 78 78 49
Width: 1369
GlyphClass: 2
Flags: W
AnchorPoint: "Anchor-4" 1369 900 basechar 0
AnchorPoint: "Anchor-3" 685 -100 basechar 0
AnchorPoint: "Anchor-2" 1115 0 basechar 0
AnchorPoint: "Anchor-1" 685 -100 basechar 0
AnchorPoint: "Anchor-0" 685 1370 basechar 0
LayerCount: 2
Fore
SplineSet
40 0 m 1,0,-1
 40 83 l 1,1,2
 113 92 113 92 144 111 c 128,-1,3
 175 130 175 130 175 144 c 2,4,-1
 175 1102 l 1,5,6
 143 1132 143 1132 108.5 1152 c 128,-1,7
 74 1172 74 1172 40 1177 c 1,8,-1
 40 1260 l 1,9,-1
 342 1260 l 2,10,11
 357 1260 357 1260 366.5 1257.5 c 128,-1,12
 376 1255 376 1255 386 1247 c 128,-1,13
 396 1239 396 1239 407.5 1223.5 c 128,-1,14
 419 1208 419 1208 438 1182 c 2,15,-1
 1035 353 l 1,16,-1
 1035 1115 l 2,17,18
 1035 1121 1035 1121 1029 1129.5 c 128,-1,19
 1023 1138 1023 1138 1007.5 1146.5 c 128,-1,20
 992 1155 992 1155 966 1163 c 128,-1,21
 940 1171 940 1171 900 1177 c 1,22,-1
 900 1260 l 1,23,-1
 1330 1260 l 1,24,-1
 1330 1177 l 1,25,26
 1258 1167 1258 1167 1226.5 1148 c 128,-1,27
 1195 1129 1195 1129 1195 1115 c 2,28,-1
 1195 -30 l 1,29,30
 1140 -26 1140 -26 1095.5 -14.5 c 128,-1,31
 1051 -3 1051 -3 1016.5 13 c 128,-1,32
 982 29 982 29 957 49 c 128,-1,33
 932 69 932 69 916 91 c 2,34,-1
 335 895 l 1,35,-1
 335 144 l 2,36,37
 335 138 335 138 341.5 129.5 c 128,-1,38
 348 121 348 121 364 112.5 c 128,-1,39
 380 104 380 104 405.5 96 c 128,-1,40
 431 88 431 88 470 83 c 1,41,-1
 470 0 l 1,42,-1
 40 0 l 1,0,-1
EndSplineSet
EndChar

StartChar: O
Encoding: 79 79 50
Width: 1289
GlyphClass: 2
Flags: W
AnchorPoint: "Anchor-4" 1200 900 basechar 0
AnchorPoint: "Anchor-3" 712 0 basechar 0
AnchorPoint: "Anchor-2" 613 0 basechar 0
AnchorPoint: "Anchor-1" 646 -100 basechar 0
AnchorPoint: "Anchor-0" 646 1370 basechar 0
LayerCount: 2
Fore
SplineSet
933 629 m 0,0,1
 933 732 933 732 909.5 827.5 c 128,-1,2
 886 923 886 923 842.5 995.5 c 128,-1,3
 799 1068 799 1068 738.5 1111.5 c 128,-1,4
 678 1155 678 1155 604 1155 c 0,5,6
 538 1155 538 1155 487.5 1120.5 c 128,-1,7
 437 1086 437 1086 403 1020 c 128,-1,8
 369 954 369 954 352 858.5 c 128,-1,9
 335 763 335 763 335 641 c 0,10,11
 335 529 335 529 360 432 c 128,-1,12
 385 335 385 335 428.5 263.5 c 128,-1,13
 472 192 472 192 530 151 c 128,-1,14
 588 110 588 110 654 110 c 0,15,16
 714 110 714 110 765.5 141.5 c 128,-1,17
 817 173 817 173 854 237 c 128,-1,18
 891 301 891 301 912 399 c 128,-1,19
 933 497 933 497 933 629 c 0,0,1
1218 647 m 0,20,21
 1218 556 1218 556 1195.5 471 c 128,-1,22
 1173 386 1173 386 1132.5 310.5 c 128,-1,23
 1092 235 1092 235 1036 172.5 c 128,-1,24
 980 110 980 110 911.5 65 c 128,-1,25
 843 20 843 20 765.5 -5 c 128,-1,26
 688 -30 688 -30 605 -30 c 0,27,28
 477 -30 477 -30 374 23 c 128,-1,29
 271 76 271 76 199 165 c 128,-1,30
 127 254 127 254 88.5 370 c 128,-1,31
 50 486 50 486 50 612 c 0,32,33
 50 748 50 748 94.5 871 c 128,-1,34
 139 994 139 994 220 1087 c 128,-1,35
 301 1180 301 1180 413.5 1235 c 128,-1,36
 526 1290 526 1290 663 1290 c 0,37,38
 798 1290 798 1290 901.5 1235.5 c 128,-1,39
 1005 1181 1005 1181 1075.5 1091 c 128,-1,40
 1146 1001 1146 1001 1182 885 c 128,-1,41
 1218 769 1218 769 1218 647 c 0,20,21
EndSplineSet
EndChar

StartChar: P
Encoding: 80 80 51
Width: 1191
GlyphClass: 2
Flags: W
AnchorPoint: "Anchor-4" 1191 900 basechar 0
AnchorPoint: "Anchor-3" 574 -100 basechar 0
AnchorPoint: "Anchor-2" 574 -100 basechar 0
AnchorPoint: "Anchor-1" 574 -100 basechar 0
AnchorPoint: "Anchor-0" 574 1370 basechar 0
LayerCount: 2
Fore
SplineSet
40 0 m 1,0,-1
 40 83 l 1,1,2
 108 97 108 97 141.5 113.5 c 128,-1,3
 175 130 175 130 175 144 c 2,4,-1
 175 1148 l 1,5,6
 99 1139 99 1139 40 1128 c 1,7,-1
 26 1230 l 1,8,9
 82 1243 82 1243 151.5 1254 c 128,-1,10
 221 1265 221 1265 295.5 1273 c 128,-1,11
 370 1281 370 1281 446 1285.5 c 128,-1,12
 522 1290 522 1290 590 1290 c 0,13,14
 709 1290 709 1290 807 1267 c 128,-1,15
 905 1244 905 1244 975 1199 c 128,-1,16
 1045 1154 1045 1154 1083.5 1088 c 128,-1,17
 1122 1022 1122 1022 1122 936 c 0,18,19
 1122 832 1122 832 1081 753 c 128,-1,20
 1040 674 1040 674 976.5 621 c 128,-1,21
 913 568 913 568 837.5 541.5 c 128,-1,22
 762 515 762 515 693 515 c 0,23,24
 647 515 647 515 601.5 522.5 c 128,-1,25
 556 530 556 530 522 545 c 1,26,-1
 489 660 l 1,27,28
 530 641 530 641 559 635.5 c 128,-1,29
 588 630 588 630 623 630 c 0,30,31
 665 630 665 630 704 645 c 128,-1,32
 743 660 743 660 772.5 692 c 128,-1,33
 802 724 802 724 819.5 774 c 128,-1,34
 837 824 837 824 837 895 c 0,35,36
 837 962 837 962 815.5 1014.5 c 128,-1,37
 794 1067 794 1067 754.5 1103 c 128,-1,38
 715 1139 715 1139 659 1157.5 c 128,-1,39
 603 1176 603 1176 533 1176 c 0,40,41
 515 1176 515 1176 495 1175.5 c 128,-1,42
 475 1175 475 1175 455 1174 c 1,43,-1
 455 144 l 2,44,45
 455 138 455 138 461 131 c 128,-1,46
 467 124 467 124 485 116 c 128,-1,47
 503 108 503 108 535.5 100 c 128,-1,48
 568 92 568 92 620 83 c 1,49,-1
 620 0 l 1,50,-1
 40 0 l 1,0,-1
EndSplineSet
EndChar

StartChar: Q
Encoding: 81 81 52
Width: 1289
GlyphClass: 2
Flags: W
AnchorPoint: "Anchor-4" 1289 900 basechar 0
AnchorPoint: "Anchor-3" 672 -270 basechar 0
AnchorPoint: "Anchor-2" 672 -270 basechar 0
AnchorPoint: "Anchor-1" 672 -270 basechar 0
AnchorPoint: "Anchor-0" 672 1370 basechar 0
LayerCount: 2
Fore
SplineSet
933 629 m 0,0,1
 933 732 933 732 909.5 827.5 c 128,-1,2
 886 923 886 923 842.5 995.5 c 128,-1,3
 799 1068 799 1068 738.5 1111.5 c 128,-1,4
 678 1155 678 1155 604 1155 c 0,5,6
 538 1155 538 1155 487.5 1120.5 c 128,-1,7
 437 1086 437 1086 403 1020 c 128,-1,8
 369 954 369 954 352 858.5 c 128,-1,9
 335 763 335 763 335 641 c 0,10,11
 335 529 335 529 360 432 c 128,-1,12
 385 335 385 335 428.5 263.5 c 128,-1,13
 472 192 472 192 530 151 c 128,-1,14
 588 110 588 110 654 110 c 0,15,16
 714 110 714 110 765.5 141.5 c 128,-1,17
 817 173 817 173 854 237 c 128,-1,18
 891 301 891 301 912 399 c 128,-1,19
 933 497 933 497 933 629 c 0,0,1
1462 -127 m 1,20,21
 1438 -171 1438 -171 1409.5 -208.5 c 128,-1,22
 1381 -246 1381 -246 1353.5 -274.5 c 128,-1,23
 1326 -303 1326 -303 1301.5 -319 c 128,-1,24
 1277 -335 1277 -335 1262 -335 c 0,25,26
 1214 -335 1214 -335 1165 -319 c 128,-1,27
 1116 -303 1116 -303 1066.5 -277 c 128,-1,28
 1017 -251 1017 -251 967 -217.5 c 128,-1,29
 917 -184 917 -184 867 -149.5 c 128,-1,30
 817 -115 817 -115 767 -82.5 c 128,-1,31
 717 -50 717 -50 667 -26 c 1,32,33
 652 -28 652 -28 636.5 -29 c 128,-1,34
 621 -30 621 -30 605 -30 c 0,35,36
 477 -30 477 -30 374 23 c 128,-1,37
 271 76 271 76 199 165 c 128,-1,38
 127 254 127 254 88.5 370 c 128,-1,39
 50 486 50 486 50 612 c 0,40,41
 50 748 50 748 94.5 871 c 128,-1,42
 139 994 139 994 220 1087 c 128,-1,43
 301 1180 301 1180 413.5 1235 c 128,-1,44
 526 1290 526 1290 663 1290 c 0,45,46
 798 1290 798 1290 901.5 1235.5 c 128,-1,47
 1005 1181 1005 1181 1075.5 1091 c 128,-1,48
 1146 1001 1146 1001 1182 885 c 128,-1,49
 1218 769 1218 769 1218 647 c 0,50,51
 1218 547 1218 547 1191 453.5 c 128,-1,52
 1164 360 1164 360 1115 279.5 c 128,-1,53
 1066 199 1066 199 999 135 c 128,-1,54
 932 71 932 71 852 30 c 1,55,56
 912 11 912 11 967 -15 c 128,-1,57
 1022 -41 1022 -41 1073 -64 c 128,-1,58
 1124 -87 1124 -87 1172.5 -103.5 c 128,-1,59
 1221 -120 1221 -120 1268 -120 c 0,60,61
 1280 -120 1280 -120 1292 -117.5 c 128,-1,62
 1304 -115 1304 -115 1319 -108 c 128,-1,63
 1334 -101 1334 -101 1354.5 -87.5 c 128,-1,64
 1375 -74 1375 -74 1405 -52 c 1,65,-1
 1462 -127 l 1,20,21
EndSplineSet
EndChar

StartChar: R
Encoding: 82 82 53
Width: 1269
GlyphClass: 2
Flags: W
AnchorPoint: "Anchor-4" 1269 900 basechar 0
AnchorPoint: "Anchor-3" 572 -100 basechar 0
AnchorPoint: "Anchor-2" 293 0 basechar 0
AnchorPoint: "Anchor-1" 572 -100 basechar 0
AnchorPoint: "Anchor-0" 572 1370 basechar 0
LayerCount: 2
Fore
SplineSet
40 0 m 1,0,-1
 40 83 l 1,1,2
 108 97 108 97 141.5 113.5 c 128,-1,3
 175 130 175 130 175 144 c 2,4,-1
 175 1147 l 1,5,-1
 40 1128 l 1,6,-1
 26 1230 l 1,7,8
 135 1253 135 1253 268 1271.5 c 128,-1,9
 401 1290 401 1290 549 1290 c 0,10,11
 691 1290 691 1290 790 1267 c 128,-1,12
 889 1244 889 1244 950.5 1203 c 128,-1,13
 1012 1162 1012 1162 1039.5 1106.5 c 128,-1,14
 1067 1051 1067 1051 1067 987 c 0,15,16
 1067 919 1067 919 1046.5 861.5 c 128,-1,17
 1026 804 1026 804 989.5 757.5 c 128,-1,18
 953 711 953 711 901.5 675.5 c 128,-1,19
 850 640 850 640 788 618 c 1,20,-1
 1108 199 l 2,21,22
 1124 178 1124 178 1137.5 165 c 128,-1,23
 1151 152 1151 152 1167.5 145.5 c 128,-1,24
 1184 139 1184 139 1206.5 138 c 128,-1,25
 1229 137 1229 137 1263 140 c 1,26,-1
 1279 57 l 1,27,28
 1246 46 1246 46 1201.5 33.5 c 128,-1,29
 1157 21 1157 21 1113.5 10.5 c 128,-1,30
 1070 0 1070 0 1032 -7 c 128,-1,31
 994 -14 994 -14 975 -14 c 0,32,33
 946 -14 946 -14 918.5 2 c 128,-1,34
 891 18 891 18 877 41 c 1,35,-1
 595 581 l 1,36,37
 587 580 587 580 578 580 c 2,38,-1
 561 580 l 2,39,40
 535 580 535 580 509 582.5 c 128,-1,41
 483 585 483 585 455 591 c 1,42,-1
 455 144 l 2,43,44
 455 132 455 132 486 114.5 c 128,-1,45
 517 97 517 97 590 83 c 1,46,-1
 590 0 l 1,47,-1
 40 0 l 1,0,-1
502 1176 m 0,48,49
 491 1176 491 1176 479.5 1175.5 c 128,-1,50
 468 1175 468 1175 455 1175 c 1,51,-1
 455 711 l 1,52,53
 482 706 482 706 502 705 c 128,-1,54
 522 704 522 704 544 704 c 0,55,56
 608 704 608 704 653 721.5 c 128,-1,57
 698 739 698 739 726.5 771.5 c 128,-1,58
 755 804 755 804 768.5 850.5 c 128,-1,59
 782 897 782 897 782 956 c 0,60,61
 782 999 782 999 770.5 1039 c 128,-1,62
 759 1079 759 1079 727.5 1109.5 c 128,-1,63
 696 1140 696 1140 641.5 1158 c 128,-1,64
 587 1176 587 1176 502 1176 c 0,48,49
EndSplineSet
EndChar

StartChar: S
Encoding: 83 83 54
Width: 1075
GlyphClass: 2
Flags: W
AnchorPoint: "Anchor-4" 1075 900 basechar 0
AnchorPoint: "Anchor-3" 546 -100 basechar 0
AnchorPoint: "Anchor-2" 522 0 basechar 0
AnchorPoint: "Anchor-1" 546 -100 basechar 0
AnchorPoint: "Anchor-0" 546 1370 basechar 0
LayerCount: 2
Fore
SplineSet
995 377 m 0,0,1
 995 332 995 332 981 285 c 128,-1,2
 967 238 967 238 939.5 192.5 c 128,-1,3
 912 147 912 147 869.5 106.5 c 128,-1,4
 827 66 827 66 769.5 36 c 128,-1,5
 712 6 712 6 640 -12 c 128,-1,6
 568 -30 568 -30 480 -30 c 0,7,8
 443 -30 443 -30 394 -23 c 128,-1,9
 345 -16 345 -16 294 -3.5 c 128,-1,10
 243 9 243 9 194.5 27 c 128,-1,11
 146 45 146 45 111 68 c 1,12,13
 106 70 106 70 103 88.5 c 128,-1,14
 100 107 100 107 99 135 c 128,-1,15
 98 163 98 163 98 198 c 128,-1,16
 98 233 98 233 101 269.5 c 128,-1,17
 104 306 104 306 109 341 c 128,-1,18
 114 376 114 376 121 404 c 1,19,-1
 202 399 l 1,20,21
 225 340 225 340 257.5 289 c 128,-1,22
 290 238 290 238 330.5 200.5 c 128,-1,23
 371 163 371 163 418 141.5 c 128,-1,24
 465 120 465 120 516 120 c 0,25,26
 561 120 561 120 601.5 131 c 128,-1,27
 642 142 642 142 673 164.5 c 128,-1,28
 704 187 704 187 722 221.5 c 128,-1,29
 740 256 740 256 740 304 c 0,30,31
 740 365 740 365 713 409.5 c 128,-1,32
 686 454 686 454 641.5 488.5 c 128,-1,33
 597 523 597 523 540 551 c 128,-1,34
 483 579 483 579 423.5 607 c 128,-1,35
 364 635 364 635 307 666 c 128,-1,36
 250 697 250 697 205.5 737.5 c 128,-1,37
 161 778 161 778 134 831 c 128,-1,38
 107 884 107 884 107 957 c 0,39,40
 107 988 107 988 119.5 1025 c 128,-1,41
 132 1062 132 1062 157.5 1099 c 128,-1,42
 183 1136 183 1136 222 1170.5 c 128,-1,43
 261 1205 261 1205 314 1231.5 c 128,-1,44
 367 1258 367 1258 435 1274 c 128,-1,45
 503 1290 503 1290 586 1290 c 0,46,47
 643 1290 643 1290 697 1283 c 128,-1,48
 751 1276 751 1276 797.5 1264 c 128,-1,49
 844 1252 844 1252 879.5 1235 c 128,-1,50
 915 1218 915 1218 933 1198 c 1,51,52
 938 1194 938 1194 935.5 1178.5 c 128,-1,53
 933 1163 933 1163 926 1142 c 128,-1,54
 919 1121 919 1121 908.5 1096.5 c 128,-1,55
 898 1072 898 1072 886.5 1049.5 c 128,-1,56
 875 1027 875 1027 864 1009.5 c 128,-1,57
 853 992 853 992 845 985 c 1,58,-1
 769 991 l 1,59,60
 749 1042 749 1042 721 1076.5 c 128,-1,61
 693 1111 693 1111 661.5 1132 c 128,-1,62
 630 1153 630 1153 597.5 1161.5 c 128,-1,63
 565 1170 565 1170 537 1170 c 0,64,65
 489 1170 489 1170 455 1158 c 128,-1,66
 421 1146 421 1146 399 1125.5 c 128,-1,67
 377 1105 377 1105 367 1078.5 c 128,-1,68
 357 1052 357 1052 357 1024 c 0,69,70
 357 977 357 977 384.5 940 c 128,-1,71
 412 903 412 903 457 872 c 128,-1,72
 502 841 502 841 559 812 c 2,73,-1
 676 754 l 2,74,75
 736 724 736 724 793 689 c 128,-1,76
 850 654 850 654 895 609.5 c 128,-1,77
 940 565 940 565 967.5 508 c 128,-1,78
 995 451 995 451 995 377 c 0,0,1
EndSplineSet
EndChar

StartChar: T
Encoding: 84 84 55
Width: 1208
GlyphClass: 2
Flags: W
AnchorPoint: "Anchor-4" 1208 900 basechar 0
AnchorPoint: "Anchor-3" 586 -100 basechar 0
AnchorPoint: "Anchor-2" 586 0 basechar 0
AnchorPoint: "Anchor-1" 586 -100 basechar 0
AnchorPoint: "Anchor-0" 586 1370 basechar 0
LayerCount: 2
Fore
SplineSet
297 0 m 1,0,-1
 297 83 l 1,1,2
 343 92 343 92 373 102 c 128,-1,3
 403 112 403 112 420 121.5 c 128,-1,4
 437 131 437 131 444 139.5 c 128,-1,5
 451 148 451 148 451 155 c 2,6,-1
 451 1130 l 1,7,-1
 212 1130 l 2,8,9
 197 1130 197 1130 183 1117.5 c 128,-1,10
 169 1105 169 1105 154.5 1078.5 c 128,-1,11
 140 1052 140 1052 122.5 1010 c 128,-1,12
 105 968 105 968 83 910 c 1,13,-1
 0 939 l 1,14,15
 2 968 2 968 7 1012 c 128,-1,16
 12 1056 12 1056 18.5 1102.5 c 128,-1,17
 25 1149 25 1149 31.5 1191.5 c 128,-1,18
 38 1234 38 1234 43 1260 c 1,19,-1
 1133 1260 l 1,20,-1
 1173 1225 l 1,21,22
 1172 1199 1172 1199 1168 1160 c 128,-1,23
 1164 1121 1164 1121 1158 1078.5 c 128,-1,24
 1152 1036 1152 1036 1145.5 993.5 c 128,-1,25
 1139 951 1139 951 1133 920 c 1,26,-1
 1048 920 l 1,27,28
 1038 966 1038 966 1032 1005 c 128,-1,29
 1026 1044 1026 1044 1018 1071.5 c 128,-1,30
 1010 1099 1010 1099 998 1114.5 c 128,-1,31
 986 1130 986 1130 965 1130 c 2,32,-1
 731 1130 l 1,33,-1
 731 155 l 2,34,35
 731 149 731 149 738 140.5 c 128,-1,36
 745 132 745 132 762 122 c 128,-1,37
 779 112 779 112 809 102 c 128,-1,38
 839 92 839 92 885 83 c 1,39,-1
 885 0 l 1,40,-1
 297 0 l 1,0,-1
EndSplineSet
EndChar

StartChar: U
Encoding: 85 85 56
Width: 1379
GlyphClass: 2
Flags: W
AnchorPoint: "Anchor-4" 1370 900 basechar 0
AnchorPoint: "Anchor-3" 784 0 basechar 0
AnchorPoint: "Anchor-2" 697 0 basechar 0
AnchorPoint: "Anchor-1" 697 -100 basechar 0
AnchorPoint: "Anchor-0" 697 1370 basechar 0
LayerCount: 2
Fore
SplineSet
1325 1177 m 1,0,1
 1257 1163 1257 1163 1223.5 1146 c 128,-1,2
 1190 1129 1190 1129 1190 1115 c 2,3,-1
 1190 524 l 2,4,5
 1190 393 1190 393 1151.5 290 c 128,-1,6
 1113 187 1113 187 1045.5 116 c 128,-1,7
 978 45 978 45 886 7.5 c 128,-1,8
 794 -30 794 -30 686 -30 c 0,9,10
 583 -30 583 -30 490 -1.5 c 128,-1,11
 397 27 397 27 327 85.5 c 128,-1,12
 257 144 257 144 216 233 c 128,-1,13
 175 322 175 322 175 444 c 2,14,-1
 175 1115 l 2,15,16
 175 1127 175 1127 143.5 1145 c 128,-1,17
 112 1163 112 1163 40 1177 c 1,18,-1
 40 1260 l 1,19,-1
 590 1260 l 1,20,-1
 590 1177 l 1,21,22
 522 1163 522 1163 488.5 1146 c 128,-1,23
 455 1129 455 1129 455 1115 c 2,24,-1
 455 514 l 2,25,26
 455 418 455 418 470 345 c 128,-1,27
 485 272 485 272 519.5 223.5 c 128,-1,28
 554 175 554 175 611.5 150 c 128,-1,29
 669 125 669 125 755 125 c 0,30,31
 826 125 826 125 873.5 156 c 128,-1,32
 921 187 921 187 949 239.5 c 128,-1,33
 977 292 977 292 988.5 360.5 c 128,-1,34
 1000 429 1000 429 1000 503 c 2,35,-1
 1000 1115 l 2,36,37
 1000 1127 1000 1127 968.5 1145 c 128,-1,38
 937 1163 937 1163 865 1177 c 1,39,-1
 865 1260 l 1,40,-1
 1325 1260 l 1,41,-1
 1325 1177 l 1,0,1
EndSplineSet
EndChar

StartChar: V
Encoding: 86 86 57
Width: 1371
GlyphClass: 2
Flags: W
AnchorPoint: "Anchor-4" 1371 900 basechar 0
AnchorPoint: "Anchor-3" 627 0 basechar 0
AnchorPoint: "Anchor-2" 685 0 basechar 0
AnchorPoint: "Anchor-1" 675 -100 basechar 0
AnchorPoint: "Anchor-0" 685 1370 basechar 0
LayerCount: 2
Fore
SplineSet
1340 1177 m 1,0,1
 1272 1164 1272 1164 1233.5 1151.5 c 128,-1,2
 1195 1139 1195 1139 1185 1111 c 2,3,-1
 812 89 l 2,4,5
 804 67 804 67 781 48 c 128,-1,6
 758 29 758 29 727.5 14 c 128,-1,7
 697 -1 697 -1 663.5 -12 c 128,-1,8
 630 -23 630 -23 602 -30 c 1,9,-1
 142 1111 l 2,10,11
 131 1137 131 1137 102 1153 c 128,-1,12
 73 1169 73 1169 10 1177 c 1,13,-1
 10 1260 l 1,14,-1
 545 1260 l 1,15,-1
 545 1177 l 1,16,17
 505 1174 505 1174 479.5 1169 c 128,-1,18
 454 1164 454 1164 440.5 1156.5 c 128,-1,19
 427 1149 427 1149 424 1138 c 128,-1,20
 421 1127 421 1127 427 1113 c 2,21,-1
 742 313 l 1,22,-1
 1026 1111 l 2,23,24
 1031 1126 1031 1126 1028 1136 c 128,-1,25
 1025 1146 1025 1146 1011 1153.5 c 128,-1,26
 997 1161 997 1161 971 1166.5 c 128,-1,27
 945 1172 945 1172 904 1177 c 1,28,-1
 904 1260 l 1,29,-1
 1340 1260 l 1,30,-1
 1340 1177 l 1,0,1
EndSplineSet
EndChar

StartChar: W
Encoding: 87 87 58
Width: 1741
GlyphClass: 2
Flags: W
AnchorPoint: "Anchor-4" 1741 900 basechar 0
AnchorPoint: "Anchor-3" 881 -100 basechar 0
AnchorPoint: "Anchor-2" 881 -100 basechar 0
AnchorPoint: "Anchor-1" 881 -100 basechar 0
AnchorPoint: "Anchor-0" 881 1370 basechar 0
LayerCount: 2
Fore
SplineSet
1742 1177 m 1,0,1
 1698 1168 1698 1168 1669 1160 c 128,-1,2
 1640 1152 1640 1152 1623 1144.5 c 128,-1,3
 1606 1137 1606 1137 1598.5 1130 c 128,-1,4
 1591 1123 1591 1123 1590 1115 c 2,5,-1
 1361 59 l 2,6,7
 1356 38 1356 38 1338 22.5 c 128,-1,8
 1320 7 1320 7 1297 -3.5 c 128,-1,9
 1274 -14 1274 -14 1250.5 -20.5 c 128,-1,10
 1227 -27 1227 -27 1212 -30 c 1,11,-1
 866 854 l 1,12,-1
 579 59 l 2,13,14
 572 38 572 38 553.5 23 c 128,-1,15
 535 8 535 8 511.5 -2.5 c 128,-1,16
 488 -13 488 -13 463 -19.5 c 128,-1,17
 438 -26 438 -26 418 -30 c 1,18,-1
 158 1107 l 2,19,20
 153 1132 153 1132 122 1148 c 128,-1,21
 91 1164 91 1164 20 1177 c 1,22,-1
 20 1260 l 1,23,-1
 529 1260 l 1,24,-1
 529 1177 l 1,25,26
 480 1172 480 1172 453.5 1164.5 c 128,-1,27
 427 1157 427 1157 415 1148 c 128,-1,28
 403 1139 403 1139 402 1128.5 c 128,-1,29
 401 1118 401 1118 403 1107 c 2,30,-1
 565 430 l 1,31,-1
 846 1260 l 1,32,-1
 961 1260 l 1,33,-1
 1290 430 l 1,34,-1
 1442 1115 l 2,35,36
 1444 1127 1444 1127 1433 1136 c 128,-1,37
 1422 1145 1422 1145 1401 1152 c 128,-1,38
 1380 1159 1380 1159 1351 1165 c 128,-1,39
 1322 1171 1322 1171 1288 1177 c 1,40,-1
 1288 1260 l 1,41,-1
 1742 1260 l 1,42,-1
 1742 1177 l 1,0,1
EndSplineSet
EndChar

StartChar: X
Encoding: 88 88 59
Width: 1300
GlyphClass: 2
Flags: W
AnchorPoint: "Anchor-4" 1300 900 basechar 0
AnchorPoint: "Anchor-3" 650 -100 basechar 0
AnchorPoint: "Anchor-2" 650 -100 basechar 0
AnchorPoint: "Anchor-1" 650 -100 basechar 0
AnchorPoint: "Anchor-0" 650 1370 basechar 0
LayerCount: 2
Fore
SplineSet
718 0 m 1,0,-1
 718 83 l 1,1,2
 762 87 762 87 789 93.5 c 128,-1,3
 816 100 816 100 828 109.5 c 128,-1,4
 840 119 840 119 838.5 133 c 128,-1,5
 837 147 837 147 823 167 c 2,6,-1
 601 490 l 1,7,-1
 382 167 l 2,8,9
 367 145 367 145 362 130.5 c 128,-1,10
 357 116 357 116 366 106.5 c 128,-1,11
 375 97 375 97 400 91.5 c 128,-1,12
 425 86 425 86 471 83 c 1,13,-1
 471 0 l 1,14,-1
 21 0 l 1,15,-1
 21 83 l 1,16,17
 86 88 86 88 131 107.5 c 128,-1,18
 176 127 176 127 203 167 c 2,19,-1
 509 623 l 1,20,-1
 187 1093 l 2,21,22
 172 1115 172 1115 158 1129 c 128,-1,23
 144 1143 144 1143 126.5 1152 c 128,-1,24
 109 1161 109 1161 86.5 1166.5 c 128,-1,25
 64 1172 64 1172 31 1177 c 1,26,-1
 31 1260 l 1,27,-1
 602 1260 l 1,28,-1
 602 1177 l 1,29,30
 517 1169 517 1169 491 1152.5 c 128,-1,31
 465 1136 465 1136 495 1093 c 2,32,-1
 689 810 l 1,33,-1
 868 1093 l 2,34,35
 882 1116 882 1116 886.5 1130.5 c 128,-1,36
 891 1145 891 1145 881.5 1154.5 c 128,-1,37
 872 1164 872 1164 847 1169 c 128,-1,38
 822 1174 822 1174 777 1177 c 1,39,-1
 777 1260 l 1,40,-1
 1230 1260 l 1,41,-1
 1230 1177 l 1,42,43
 1194 1173 1194 1173 1165.5 1167 c 128,-1,44
 1137 1161 1137 1161 1115.5 1151.5 c 128,-1,45
 1094 1142 1094 1142 1077 1128 c 128,-1,46
 1060 1114 1060 1114 1047 1093 c 2,47,-1
 780 678 l 1,48,-1
 1131 167 l 2,49,50
 1146 146 1146 146 1160 131.5 c 128,-1,51
 1174 117 1174 117 1190.5 107.5 c 128,-1,52
 1207 98 1207 98 1228.5 92.5 c 128,-1,53
 1250 87 1250 87 1279 83 c 1,54,-1
 1279 0 l 1,55,-1
 718 0 l 1,0,-1
EndSplineSet
EndChar

StartChar: Y
Encoding: 89 89 60
Width: 1267
GlyphClass: 2
Flags: W
AnchorPoint: "Anchor-4" 1267 900 basechar 0
AnchorPoint: "Anchor-3" 634 -100 basechar 0
AnchorPoint: "Anchor-2" 634 -100 basechar 0
AnchorPoint: "Anchor-1" 634 -100 basechar 0
AnchorPoint: "Anchor-0" 634 1370 basechar 0
LayerCount: 2
Fore
SplineSet
340 0 m 1,0,-1
 340 83 l 1,1,2
 385 92 385 92 415 102 c 128,-1,3
 445 112 445 112 462.5 121.5 c 128,-1,4
 480 131 480 131 487 139.5 c 128,-1,5
 494 148 494 148 494 155 c 2,6,-1
 494 527 l 1,7,8
 458 606 458 606 414 690 c 128,-1,9
 370 774 370 774 325 852 c 128,-1,10
 280 930 280 930 236.5 997 c 128,-1,11
 193 1064 193 1064 158 1111 c 0,12,13
 149 1122 149 1122 139.5 1130.5 c 128,-1,14
 130 1139 130 1139 114 1144.5 c 128,-1,15
 98 1150 98 1150 72 1153 c 128,-1,16
 46 1156 46 1156 4 1156 c 1,17,-1
 0 1239 l 1,18,19
 29 1243 29 1243 68.5 1248.5 c 128,-1,20
 108 1254 108 1254 148 1258.5 c 128,-1,21
 188 1263 188 1263 223 1266.5 c 128,-1,22
 258 1270 258 1270 279 1270 c 0,23,24
 308 1270 308 1270 339 1257 c 128,-1,25
 370 1244 370 1244 387 1221 c 0,26,27
 424 1171 424 1171 464 1107 c 128,-1,28
 504 1043 504 1043 544.5 972 c 128,-1,29
 585 901 585 901 624.5 825.5 c 128,-1,30
 664 750 664 750 699 678 c 1,31,-1
 921 1111 l 1,32,33
 936 1137 936 1137 911.5 1152 c 128,-1,34
 887 1167 887 1167 810 1177 c 1,35,-1
 810 1260 l 1,36,-1
 1236 1260 l 1,37,-1
 1236 1177 l 1,38,39
 1202 1171 1202 1171 1177.5 1164.5 c 128,-1,40
 1153 1158 1153 1158 1136 1150.5 c 128,-1,41
 1119 1143 1119 1143 1108 1133.5 c 128,-1,42
 1097 1124 1097 1124 1090 1111 c 2,43,-1
 774 515 l 1,44,-1
 774 155 l 2,45,46
 774 149 774 149 781 140.5 c 128,-1,47
 788 132 788 132 805.5 122 c 128,-1,48
 823 112 823 112 853 102 c 128,-1,49
 883 92 883 92 930 83 c 1,50,-1
 930 0 l 1,51,-1
 340 0 l 1,0,-1
EndSplineSet
EndChar

StartChar: Z
Encoding: 90 90 61
Width: 1131
GlyphClass: 2
Flags: W
AnchorPoint: "Anchor-4" 1131 900 basechar 0
AnchorPoint: "Anchor-3" 565 -100 basechar 0
AnchorPoint: "Anchor-2" 565 -100 basechar 0
AnchorPoint: "Anchor-1" 565 -100 basechar 0
AnchorPoint: "Anchor-0" 587 1370 basechar 0
LayerCount: 2
Fore
SplineSet
1061 373 m 1,0,1
 1059 341 1059 341 1057.5 289.5 c 128,-1,2
 1056 238 1056 238 1054.5 183.5 c 128,-1,3
 1053 129 1053 129 1051.5 79 c 128,-1,4
 1050 29 1050 29 1049 0 c 1,5,-1
 88 0 l 1,6,-1
 49 55 l 1,7,-1
 710 1120 l 1,8,-1
 341 1120 l 2,9,10
 325 1120 325 1120 304.5 1101 c 128,-1,11
 284 1082 284 1082 264 1048.5 c 128,-1,12
 244 1015 244 1015 226.5 970 c 128,-1,13
 209 925 209 925 198 873 c 1,14,-1
 101 895 l 1,15,-1
 140 1276 l 1,16,17
 167 1270 167 1270 189.5 1266.5 c 128,-1,18
 212 1263 212 1263 233.5 1261.5 c 128,-1,19
 255 1260 255 1260 278 1260 c 2,20,-1
 1016 1260 l 1,21,-1
 1051 1207 l 1,22,-1
 396 140 l 1,23,-1
 829 140 l 2,24,25
 850 140 850 140 867 157 c 128,-1,26
 884 174 884 174 899.5 207 c 128,-1,27
 915 240 915 240 931 287.5 c 128,-1,28
 947 335 947 335 966 397 c 1,29,-1
 1061 373 l 1,0,1
EndSplineSet
EndChar

StartChar: bracketleft
Encoding: 91 91 62
Width: 711
Flags: W
LayerCount: 2
Fore
SplineSet
691 -219 m 1,0,1
 689 -229 689 -229 684 -245 c 128,-1,2
 679 -261 679 -261 673 -278 c 128,-1,3
 667 -295 667 -295 661.5 -310.5 c 128,-1,4
 656 -326 656 -326 652 -335 c 1,5,-1
 120 -335 l 1,6,-1
 120 1600 l 1,7,-1
 646 1600 l 1,8,-1
 689 1564 l 1,9,10
 687 1552 687 1552 682 1534 c 128,-1,11
 677 1516 677 1516 671.5 1498 c 128,-1,12
 666 1480 666 1480 660.5 1465.5 c 128,-1,13
 655 1451 655 1451 652 1445 c 1,14,-1
 380 1445 l 1,15,-1
 380 -180 l 1,16,-1
 646 -180 l 1,17,-1
 691 -219 l 1,0,1
EndSplineSet
EndChar

StartChar: backslash
Encoding: 92 92 63
Width: 960
Flags: W
LayerCount: 2
Fore
SplineSet
880 -335 m 1,0,1
 868 -331 868 -331 844 -323.5 c 128,-1,2
 820 -316 820 -316 794.5 -307.5 c 128,-1,3
 769 -299 769 -299 747 -290 c 128,-1,4
 725 -281 725 -281 716 -274 c 1,5,-1
 35 1568 l 1,6,-1
 82 1600 l 1,7,8
 97 1596 97 1596 119 1589.5 c 128,-1,9
 141 1583 141 1583 164.5 1575 c 128,-1,10
 188 1567 188 1567 209.5 1558.5 c 128,-1,11
 231 1550 231 1550 245 1541 c 1,12,-1
 925 -300 l 1,13,-1
 880 -335 l 1,0,1
EndSplineSet
EndChar

StartChar: bracketright
Encoding: 93 93 64
Width: 711
Flags: W
LayerCount: 2
Fore
SplineSet
65 -335 m 1,0,-1
 22 -299 l 1,1,2
 24 -287 24 -287 29 -269 c 128,-1,3
 34 -251 34 -251 39.5 -233 c 128,-1,4
 45 -215 45 -215 50.5 -200.5 c 128,-1,5
 56 -186 56 -186 59 -180 c 1,6,-1
 330 -180 l 1,7,-1
 330 1445 l 1,8,-1
 65 1445 l 1,9,-1
 20 1484 l 1,10,11
 22 1494 22 1494 27 1510 c 128,-1,12
 32 1526 32 1526 38 1543 c 128,-1,13
 44 1560 44 1560 49.5 1575.5 c 128,-1,14
 55 1591 55 1591 59 1600 c 1,15,-1
 590 1600 l 1,16,-1
 590 -335 l 1,17,-1
 65 -335 l 1,0,-1
EndSplineSet
EndChar

StartChar: asciicircum
Encoding: 94 94 65
Width: 1008
Flags: W
LayerCount: 2
Fore
SplineSet
907 635 m 1,0,1
 882 612 882 612 858.5 596.5 c 128,-1,2
 835 581 835 581 801 565 c 1,3,-1
 764 592 l 1,4,-1
 481 1315 l 1,5,-1
 231 635 l 1,6,7
 220 625 220 625 206 614.5 c 128,-1,8
 192 604 192 604 177 594.5 c 128,-1,9
 162 585 162 585 147.5 577.5 c 128,-1,10
 133 570 133 570 123 565 c 1,11,-1
 100 592 l 1,12,-1
 422 1462 l 1,13,14
 434 1474 434 1474 451.5 1486.5 c 128,-1,15
 469 1499 469 1499 487 1511 c 128,-1,16
 505 1523 505 1523 523 1533 c 128,-1,17
 541 1543 541 1543 555 1550 c 1,18,-1
 907 635 l 1,0,1
EndSplineSet
EndChar

StartChar: underscore
Encoding: 95 95 66
Width: 1000
Flags: W
LayerCount: 2
Fore
SplineSet
950 -164 m 1,0,1
 947 -175 947 -175 940 -192 c 128,-1,2
 933 -209 933 -209 925 -227 c 128,-1,3
 917 -245 917 -245 910 -261 c 128,-1,4
 903 -277 903 -277 899 -285 c 1,5,-1
 85 -285 l 1,6,-1
 50 -251 l 1,7,8
 53 -240 53 -240 59.5 -223.5 c 128,-1,9
 66 -207 66 -207 73.5 -189.5 c 128,-1,10
 81 -172 81 -172 88.5 -156 c 128,-1,11
 96 -140 96 -140 101 -130 c 1,12,-1
 915 -130 l 1,13,-1
 950 -164 l 1,0,1
EndSplineSet
EndChar

StartChar: grave
Encoding: 96 96 67
Width: 653
Flags: W
LayerCount: 2
Fore
SplineSet
456 1088 m 1,0,1
 450 1082 450 1082 437 1074.5 c 128,-1,2
 424 1067 424 1067 410 1059.5 c 128,-1,3
 396 1052 396 1052 382.5 1046 c 128,-1,4
 369 1040 369 1040 360 1037 c 1,5,-1
 -32 1414 l 1,6,-1
 0 1475 l 1,7,8
 6 1477 6 1477 24.5 1480.5 c 128,-1,9
 43 1484 43 1484 68 1489 c 128,-1,10
 93 1494 93 1494 120.5 1499 c 128,-1,11
 148 1504 148 1504 173 1508.5 c 128,-1,12
 198 1513 198 1513 218 1515 c 2,13,-1
 246 1519 l 1,14,-1
 456 1088 l 1,0,1
EndSplineSet
EndChar

StartChar: a
Encoding: 97 97 68
Width: 1050
GlyphClass: 2
Flags: W
AnchorPoint: "Anchor-4" 1050 900 basechar 0
AnchorPoint: "Anchor-3" 800 0 basechar 0
AnchorPoint: "Anchor-2" 782 0 basechar 0
AnchorPoint: "Anchor-1" 502 -100 basechar 0
AnchorPoint: "Anchor-0" 526 1050 basechar 0
LayerCount: 2
Fore
SplineSet
432 160 m 0,0,1
 447 160 447 160 465 163 c 128,-1,2
 483 166 483 166 505.5 176.5 c 128,-1,3
 528 187 528 187 557 206 c 128,-1,4
 586 225 586 225 623 257 c 1,5,-1
 623 466 l 1,6,7
 570 457 570 457 533.5 449 c 128,-1,8
 497 441 497 441 472 432.5 c 128,-1,9
 447 424 447 424 430.5 414 c 128,-1,10
 414 404 414 404 402 392 c 0,11,12
 376 366 376 366 360 338 c 128,-1,13
 344 310 344 310 344 269 c 0,14,15
 344 237 344 237 353 216 c 128,-1,16
 362 195 362 195 375 182.5 c 128,-1,17
 388 170 388 170 403.5 165 c 128,-1,18
 419 160 419 160 432 160 c 0,0,1
1046 122 m 1,19,20
 1004 93 1004 93 955.5 65.5 c 128,-1,21
 907 38 907 38 861.5 17 c 128,-1,22
 816 -4 816 -4 779 -17 c 128,-1,23
 742 -30 742 -30 722 -30 c 0,24,25
 684 -30 684 -30 657 11.5 c 128,-1,26
 630 53 630 53 624 125 c 1,27,28
 579 80 579 80 533.5 50 c 128,-1,29
 488 20 488 20 445.5 2 c 128,-1,30
 403 -16 403 -16 364 -23 c 128,-1,31
 325 -30 325 -30 293 -30 c 0,32,33
 249 -30 249 -30 207.5 -15 c 128,-1,34
 166 0 166 0 133 30 c 128,-1,35
 100 60 100 60 80 104 c 128,-1,36
 60 148 60 148 60 206 c 0,37,38
 60 271 60 271 84 317.5 c 128,-1,39
 108 364 108 364 145 401 c 0,40,41
 169 425 169 425 200.5 447.5 c 128,-1,42
 232 470 232 470 285 491 c 128,-1,43
 338 512 338 512 419 532 c 128,-1,44
 500 552 500 552 623 571 c 1,45,-1
 623 682 l 2,46,47
 623 712 623 712 617.5 737.5 c 128,-1,48
 612 763 612 763 598.5 781 c 128,-1,49
 585 799 585 799 562 809.5 c 128,-1,50
 539 820 539 820 505 820 c 0,51,52
 484 820 484 820 462.5 811.5 c 128,-1,53
 441 803 441 803 424.5 787 c 128,-1,54
 408 771 408 771 398.5 747.5 c 128,-1,55
 389 724 389 724 392 694 c 0,56,57
 393 688 393 688 374 678.5 c 128,-1,58
 355 669 355 669 325.5 658.5 c 128,-1,59
 296 648 296 648 260.5 638 c 128,-1,60
 225 628 225 628 192.5 620.5 c 128,-1,61
 160 613 160 613 135 609 c 128,-1,62
 110 605 110 605 102 607 c 1,63,-1
 78 666 l 1,64,65
 103 729 103 729 156 782.5 c 128,-1,66
 209 836 209 836 281 875.5 c 128,-1,67
 353 915 353 915 438.5 937.5 c 128,-1,68
 524 960 524 960 614 960 c 0,69,70
 687 960 687 960 740 940.5 c 128,-1,71
 793 921 793 921 827 887.5 c 128,-1,72
 861 854 861 854 877 808.5 c 128,-1,73
 893 763 893 763 893 712 c 2,74,-1
 893 258 l 2,75,76
 893 216 893 216 904 198 c 128,-1,77
 915 180 915 180 933 180 c 0,78,79
 940 180 940 180 947 181 c 128,-1,80
 954 182 954 182 964 185 c 128,-1,81
 974 188 974 188 987.5 193.5 c 128,-1,82
 1001 199 1001 199 1021 207 c 1,83,-1
 1046 122 l 1,19,20
EndSplineSet
Substitution2: "'aalt' Access All Alternates lookup 7 subtable" a.SngStory
EndChar

StartChar: b
Encoding: 98 98 69
Width: 1120
GlyphClass: 2
Flags: W
AnchorPoint: "Anchor-4" 1120 900 basechar 0
AnchorPoint: "Anchor-3" 524 -100 basechar 0
AnchorPoint: "Anchor-2" 524 0 basechar 0
AnchorPoint: "Anchor-1" 524 -100 basechar 0
AnchorPoint: "Anchor-0" 584 1620 basechar 0
LayerCount: 2
Fore
SplineSet
800 418 m 0,0,1
 800 518 800 518 783.5 586 c 128,-1,2
 767 654 767 654 738 696 c 128,-1,3
 709 738 709 738 670.5 756.5 c 128,-1,4
 632 775 632 775 587 775 c 0,5,6
 552 775 552 775 505.5 758.5 c 128,-1,7
 459 742 459 742 390 700 c 1,8,-1
 390 223 l 1,9,10
 470 185 470 185 524.5 167.5 c 128,-1,11
 579 150 579 150 607 150 c 0,12,13
 656 150 656 150 692.5 170 c 128,-1,14
 729 190 729 190 753 226 c 128,-1,15
 777 262 777 262 788.5 311 c 128,-1,16
 800 360 800 360 800 418 c 0,0,1
1050 512 m 0,17,18
 1050 454 1050 454 1027 391.5 c 128,-1,19
 1004 329 1004 329 964 268.5 c 128,-1,20
 924 208 924 208 871 154 c 128,-1,21
 818 100 818 100 758 59 c 128,-1,22
 698 18 698 18 634 -6 c 128,-1,23
 570 -30 570 -30 509 -30 c 0,24,25
 479 -30 479 -30 434.5 -20 c 128,-1,26
 390 -10 390 -10 338 7 c 128,-1,27
 286 24 286 24 230 47 c 128,-1,28
 174 70 174 70 120 96 c 1,29,-1
 120 1256 l 2,30,31
 120 1302 120 1302 116.5 1327 c 128,-1,32
 113 1352 113 1352 101 1364.5 c 128,-1,33
 89 1377 89 1377 65 1381 c 128,-1,34
 41 1385 41 1385 0 1390 c 1,35,-1
 0 1470 l 1,36,37
 52 1478 52 1478 97 1485.5 c 128,-1,38
 142 1493 142 1493 183.5 1502.5 c 128,-1,39
 225 1512 225 1512 264 1523.5 c 128,-1,40
 303 1535 303 1535 343 1550 c 1,41,42
 347 1546 347 1546 354.5 1539 c 128,-1,43
 362 1532 362 1532 370 1524 c 0,44,45
 379 1515 379 1515 390 1506 c 1,46,-1
 390 827 l 1,47,48
 440 864 440 864 488 889.5 c 128,-1,49
 536 915 536 915 579.5 931 c 128,-1,50
 623 947 623 947 660.5 953.5 c 128,-1,51
 698 960 698 960 727 960 c 0,52,53
 803 960 803 960 863 928 c 128,-1,54
 923 896 923 896 964.5 837.5 c 128,-1,55
 1006 779 1006 779 1028 696.5 c 128,-1,56
 1050 614 1050 614 1050 512 c 0,17,18
EndSplineSet
EndChar

StartChar: c
Encoding: 99 99 70
Width: 945
GlyphClass: 2
Flags: W
AnchorPoint: "Anchor-4" 945 900 basechar 0
AnchorPoint: "Anchor-3" 518 -100 basechar 0
AnchorPoint: "Anchor-2" 518 0 basechar 0
AnchorPoint: "Anchor-1" 518 -100 basechar 0
AnchorPoint: "Anchor-0" 518 1050 basechar 0
LayerCount: 2
Fore
SplineSet
910 190 m 1,0,1
 845 117 845 117 788 73.5 c 128,-1,2
 731 30 731 30 679 7 c 128,-1,3
 627 -16 627 -16 579.5 -23 c 128,-1,4
 532 -30 532 -30 485 -30 c 0,5,6
 401 -30 401 -30 324 2.5 c 128,-1,7
 247 35 247 35 188.5 96 c 128,-1,8
 130 157 130 157 95 245 c 128,-1,9
 60 333 60 333 60 444 c 0,10,11
 60 552 60 552 100 646 c 128,-1,12
 140 740 140 740 212.5 809.5 c 128,-1,13
 285 879 285 879 386 919.5 c 128,-1,14
 487 960 487 960 610 960 c 0,15,16
 643 960 643 960 687 954.5 c 128,-1,17
 731 949 731 949 773.5 938.5 c 128,-1,18
 816 928 816 928 852 913.5 c 128,-1,19
 888 899 888 899 905 881 c 1,20,21
 906 873 906 873 902 850.5 c 128,-1,22
 898 828 898 828 890.5 798.5 c 128,-1,23
 883 769 883 769 873 735.5 c 128,-1,24
 863 702 863 702 853 672 c 128,-1,25
 843 642 843 642 833.5 619 c 128,-1,26
 824 596 824 596 818 587 c 1,27,-1
 741 597 l 1,28,29
 722 657 722 657 702 700.5 c 128,-1,30
 682 744 682 744 658 773 c 128,-1,31
 634 802 634 802 605 816 c 128,-1,32
 576 830 576 830 540 830 c 0,33,34
 499 830 499 830 461 811 c 128,-1,35
 423 792 423 792 394 750 c 128,-1,36
 365 708 365 708 347.5 640.5 c 128,-1,37
 330 573 330 573 330 475 c 0,38,39
 330 397 330 397 348.5 336.5 c 128,-1,40
 367 276 367 276 400.5 234.5 c 128,-1,41
 434 193 434 193 479 171.5 c 128,-1,42
 524 150 524 150 577 150 c 0,43,44
 605 150 605 150 632 153.5 c 128,-1,45
 659 157 659 157 690.5 169 c 128,-1,46
 722 181 722 181 760.5 203 c 128,-1,47
 799 225 799 225 851 261 c 1,48,-1
 910 190 l 1,0,1
EndSplineSet
EndChar

StartChar: d
Encoding: 100 100 71
Width: 1175
GlyphClass: 2
Flags: W
AnchorPoint: "Anchor-4" 1175 900 basechar 0
AnchorPoint: "Anchor-3" 569 -100 basechar 0
AnchorPoint: "Anchor-2" 906 0 basechar 0
AnchorPoint: "Anchor-1" 569 -100 basechar 0
AnchorPoint: "Anchor-0" 351 1050 basechar 0
LayerCount: 2
Fore
SplineSet
1171 124 m 1,0,1
 1125 93 1125 93 1074 65 c 128,-1,2
 1023 37 1023 37 977.5 16 c 128,-1,3
 932 -5 932 -5 897.5 -17.5 c 128,-1,4
 863 -30 863 -30 849 -30 c 0,5,6
 811 -30 811 -30 788 12.5 c 128,-1,7
 765 55 765 55 754 136 c 1,8,9
 705 89 705 89 666 57 c 128,-1,10
 627 25 627 25 591 5.5 c 128,-1,11
 555 -14 555 -14 518 -22 c 128,-1,12
 481 -30 481 -30 436 -30 c 0,13,14
 365 -30 365 -30 297.5 2.5 c 128,-1,15
 230 35 230 35 177.5 96 c 128,-1,16
 125 157 125 157 92.5 245 c 128,-1,17
 60 333 60 333 60 444 c 0,18,19
 60 549 60 549 96 642.5 c 128,-1,20
 132 736 132 736 197 806.5 c 128,-1,21
 262 877 262 877 352.5 918.5 c 128,-1,22
 443 960 443 960 551 960 c 0,23,24
 598 960 598 960 644.5 949 c 128,-1,25
 691 938 691 938 745 902 c 1,26,-1
 745 1234 l 2,27,28
 745 1289 745 1289 743.5 1321.5 c 128,-1,29
 742 1354 742 1354 730 1371.5 c 128,-1,30
 718 1389 718 1389 690.5 1395.5 c 128,-1,31
 663 1402 663 1402 610 1406 c 1,32,-1
 610 1485 l 1,33,34
 670 1490 670 1490 724.5 1498 c 128,-1,35
 779 1506 779 1506 826 1514.5 c 128,-1,36
 873 1523 873 1523 910.5 1532.5 c 128,-1,37
 948 1542 948 1542 974 1550 c 1,38,-1
 1015 1510 l 1,39,-1
 1015 314 l 2,40,41
 1015 279 1015 279 1016.5 255.5 c 128,-1,42
 1018 232 1018 232 1020.5 217.5 c 128,-1,43
 1023 203 1023 203 1027.5 196 c 128,-1,44
 1032 189 1032 189 1038 186 c 256,45,46
 1044 183 1044 183 1050.5 181.5 c 128,-1,47
 1057 180 1057 180 1067.5 182 c 128,-1,48
 1078 184 1078 184 1095 189.5 c 128,-1,49
 1112 195 1112 195 1138 207 c 1,50,-1
 1171 124 l 1,0,1
745 272 m 1,51,-1
 745 698 l 1,52,53
 707 756 707 756 656.5 788 c 128,-1,54
 606 820 606 820 540 820 c 0,55,56
 495 820 495 820 456.5 802.5 c 128,-1,57
 418 785 418 785 390 747 c 128,-1,58
 362 709 362 709 346 649 c 128,-1,59
 330 589 330 589 330 505 c 0,60,61
 330 428 330 428 348.5 367.5 c 128,-1,62
 367 307 367 307 397.5 265.5 c 128,-1,63
 428 224 428 224 467 202 c 128,-1,64
 506 180 506 180 547 180 c 0,65,66
 572 180 572 180 595 184.5 c 128,-1,67
 618 189 618 189 641.5 199.5 c 128,-1,68
 665 210 665 210 690.5 228 c 128,-1,69
 716 246 716 246 745 272 c 1,51,-1
EndSplineSet
EndChar

StartChar: e
Encoding: 101 101 72
Width: 1006
GlyphClass: 2
Flags: W
AnchorPoint: "Anchor-4" 1006 900 basechar 0
AnchorPoint: "Anchor-3" 758 0 basechar 0
AnchorPoint: "Anchor-2" 533 0 basechar 0
AnchorPoint: "Anchor-1" 533 -100 basechar 0
AnchorPoint: "Anchor-0" 544 1050 basechar 0
LayerCount: 2
Fore
SplineSet
516 835 m 0,0,1
 471 835 471 835 440 817.5 c 128,-1,2
 409 800 409 800 388.5 767 c 128,-1,3
 368 734 368 734 357 687 c 128,-1,4
 346 640 346 640 342 580 c 1,5,-1
 644 580 l 2,6,7
 667 580 667 580 674.5 587.5 c 128,-1,8
 682 595 682 595 682 616 c 0,9,10
 682 647 682 647 673.5 685 c 128,-1,11
 665 723 665 723 645.5 756.5 c 128,-1,12
 626 790 626 790 594 812.5 c 128,-1,13
 562 835 562 835 516 835 c 0,0,1
946 547 m 1,14,15
 937 537 937 537 918.5 524.5 c 128,-1,16
 900 512 900 512 878 500 c 128,-1,17
 856 488 856 488 834 477 c 128,-1,18
 812 466 812 466 796 460 c 1,19,-1
 340 460 l 1,20,21
 343 391 343 391 359.5 333.5 c 128,-1,22
 376 276 376 276 405.5 235.5 c 128,-1,23
 435 195 435 195 478 172.5 c 128,-1,24
 521 150 521 150 576 150 c 0,25,26
 607 150 607 150 637 153.5 c 128,-1,27
 667 157 667 157 701.5 169 c 128,-1,28
 736 181 736 181 779.5 204 c 128,-1,29
 823 227 823 227 883 266 c 1,30,31
 889 263 889 263 898 252.5 c 128,-1,32
 907 242 907 242 915.5 230.5 c 128,-1,33
 924 219 924 219 931 209 c 128,-1,34
 938 199 938 199 940 195 c 1,35,36
 869 126 869 126 813 82 c 128,-1,37
 757 38 757 38 705 13 c 128,-1,38
 653 -12 653 -12 600.5 -21 c 128,-1,39
 548 -30 548 -30 485 -30 c 0,40,41
 397 -30 397 -30 319.5 4.5 c 128,-1,42
 242 39 242 39 184.5 101.5 c 128,-1,43
 127 164 127 164 93.5 251 c 128,-1,44
 60 338 60 338 60 444 c 0,45,46
 60 580 60 580 109.5 682.5 c 128,-1,47
 159 785 159 785 261 861 c 0,48,49
 317 903 317 903 393.5 931.5 c 128,-1,50
 470 960 470 960 554 960 c 0,51,52
 652 960 652 960 725.5 928 c 128,-1,53
 799 896 799 896 848 840 c 128,-1,54
 897 784 897 784 921.5 708.5 c 128,-1,55
 946 633 946 633 946 547 c 1,14,15
EndSplineSet
EndChar

StartChar: f
Encoding: 102 102 73
Width: 715
GlyphClass: 2
Flags: W
AnchorPoint: "Anchor-4" 715 900 basechar 0
AnchorPoint: "Anchor-3" 354 -100 basechar 0
AnchorPoint: "Anchor-2" 297 0 basechar 0
AnchorPoint: "Anchor-1" 354 -100 basechar 0
AnchorPoint: "Anchor-0" 500 1620 basechar 0
LayerCount: 2
Fore
SplineSet
915 1454 m 0,0,1
 915 1441 915 1441 904.5 1423 c 128,-1,2
 894 1405 894 1405 877.5 1385.5 c 128,-1,3
 861 1366 861 1366 841 1346 c 128,-1,4
 821 1326 821 1326 801.5 1309.5 c 128,-1,5
 782 1293 782 1293 765 1280.5 c 128,-1,6
 748 1268 748 1268 738 1263 c 1,7,8
 690 1328 690 1328 646 1356.5 c 128,-1,9
 602 1385 602 1385 568 1385 c 0,10,11
 542 1385 542 1385 520.5 1369.5 c 128,-1,12
 499 1354 499 1354 483 1313 c 128,-1,13
 467 1272 467 1272 458.5 1200 c 128,-1,14
 450 1128 450 1128 450 1016 c 2,15,-1
 450 930 l 1,16,-1
 696 930 l 1,17,-1
 735 891 l 1,18,19
 726 873 726 873 712.5 853.5 c 128,-1,20
 699 834 699 834 685.5 816 c 128,-1,21
 672 798 672 798 659 783 c 128,-1,22
 646 768 646 768 637 760 c 1,23,24
 614 772 614 772 572 783.5 c 128,-1,25
 530 795 530 795 450 795 c 1,26,-1
 450 142 l 2,27,28
 450 136 450 136 459 130 c 128,-1,29
 468 124 468 124 491 117.5 c 128,-1,30
 514 111 514 111 552 102.5 c 128,-1,31
 590 94 590 94 649 83 c 1,32,-1
 649 0 l 1,33,-1
 50 0 l 1,34,-1
 50 83 l 1,35,36
 119 95 119 95 149.5 112.5 c 128,-1,37
 180 130 180 130 180 142 c 2,38,-1
 180 795 l 1,39,-1
 66 795 l 1,40,-1
 35 833 l 1,41,-1
 113 930 l 1,42,-1
 180 930 l 1,43,-1
 180 961 l 2,44,45
 180 1103 180 1103 219 1210 c 128,-1,46
 258 1317 258 1317 339 1398 c 0,47,48
 379 1438 379 1438 421 1467 c 128,-1,49
 463 1496 463 1496 504 1514.5 c 128,-1,50
 545 1533 545 1533 584 1541.5 c 128,-1,51
 623 1550 623 1550 657 1550 c 0,52,53
 706 1550 706 1550 752.5 1538 c 128,-1,54
 799 1526 799 1526 835 1510.5 c 128,-1,55
 871 1495 871 1495 893 1479 c 128,-1,56
 915 1463 915 1463 915 1454 c 0,0,1
EndSplineSet
EndChar

StartChar: g
Encoding: 103 103 74
Width: 1079
GlyphClass: 2
Flags: W
AnchorPoint: "Anchor-4" 1079 900 basechar 0
AnchorPoint: "Anchor-3" 533 -600 basechar 0
AnchorPoint: "Anchor-2" 533 -470 basechar 0
AnchorPoint: "Anchor-1" 533 -600 basechar 0
AnchorPoint: "Anchor-0" 533 1050 basechar 0
LayerCount: 2
Fore
SplineSet
660 600 m 0,0,1
 660 649 660 649 648 693 c 128,-1,2
 636 737 636 737 613 769.5 c 128,-1,3
 590 802 590 802 555.5 821 c 128,-1,4
 521 840 521 840 476 840 c 0,5,6
 451 840 451 840 427 829 c 128,-1,7
 403 818 403 818 383.5 795.5 c 128,-1,8
 364 773 364 773 352 739 c 128,-1,9
 340 705 340 705 340 659 c 0,10,11
 340 609 340 609 350.5 565.5 c 128,-1,12
 361 522 361 522 383.5 490 c 128,-1,13
 406 458 406 458 441 439 c 128,-1,14
 476 420 476 420 524 420 c 0,15,16
 553 420 553 420 578 431 c 128,-1,17
 603 442 603 442 621 464 c 128,-1,18
 639 486 639 486 649.5 520 c 128,-1,19
 660 554 660 554 660 600 c 0,0,1
568 -54 m 0,20,21
 470 -41 470 -41 389 -21 c 1,22,23
 350 -50 350 -50 328.5 -73.5 c 128,-1,24
 307 -97 307 -97 296 -115.5 c 128,-1,25
 285 -134 285 -134 282.5 -150 c 128,-1,26
 280 -166 280 -166 280 -180 c 0,27,28
 280 -211 280 -211 303 -239 c 128,-1,29
 326 -267 326 -267 367.5 -288.5 c 128,-1,30
 409 -310 409 -310 466.5 -322.5 c 128,-1,31
 524 -335 524 -335 592 -335 c 0,32,33
 648 -335 648 -335 687.5 -321.5 c 128,-1,34
 727 -308 727 -308 752 -285.5 c 128,-1,35
 777 -263 777 -263 788.5 -234.5 c 128,-1,36
 800 -206 800 -206 800 -177 c 0,37,38
 800 -161 800 -161 792 -143.5 c 128,-1,39
 784 -126 784 -126 759.5 -109.5 c 128,-1,40
 735 -93 735 -93 689.5 -78.5 c 128,-1,41
 644 -64 644 -64 568 -54 c 0,20,21
920 641 m 256,42,43
 920 564 920 564 886.5 500.5 c 128,-1,44
 853 437 853 437 795.5 391.5 c 128,-1,45
 738 346 738 346 661.5 320.5 c 128,-1,46
 585 295 585 295 499 295 c 2,47,-1
 487 295 l 1,48,49
 452 261 452 261 444 241.5 c 128,-1,50
 436 222 436 222 436 216 c 0,51,52
 436 208 436 208 440.5 200.5 c 128,-1,53
 445 193 445 193 466 185 c 128,-1,54
 487 177 487 177 530.5 168.5 c 128,-1,55
 574 160 574 160 652 150 c 0,56,57
 772 134 772 134 851 113.5 c 128,-1,58
 930 93 930 93 976.5 63.5 c 128,-1,59
 1023 34 1023 34 1041.5 -6 c 128,-1,60
 1060 -46 1060 -46 1060 -100 c 0,61,62
 1060 -145 1060 -145 1038 -191 c 128,-1,63
 1016 -237 1016 -237 978 -280.5 c 128,-1,64
 940 -324 940 -324 888 -362 c 128,-1,65
 836 -400 836 -400 775.5 -428.5 c 128,-1,66
 715 -457 715 -457 649 -473.5 c 128,-1,67
 583 -490 583 -490 517 -490 c 0,68,69
 463 -490 463 -490 404.5 -483.5 c 128,-1,70
 346 -477 346 -477 289.5 -463 c 128,-1,71
 233 -449 233 -449 182.5 -427.5 c 128,-1,72
 132 -406 132 -406 93.5 -375.5 c 128,-1,73
 55 -345 55 -345 32.5 -306.5 c 128,-1,74
 10 -268 10 -268 10 -219 c 0,75,76
 10 -195 10 -195 21 -170 c 128,-1,77
 32 -145 32 -145 59.5 -116.5 c 128,-1,78
 87 -88 87 -88 134.5 -55 c 128,-1,79
 182 -22 182 -22 255 19 c 1,80,81
 200 41 200 41 171 65 c 128,-1,82
 142 89 142 89 142 113 c 256,83,84
 142 137 142 137 188 191.5 c 128,-1,85
 234 246 234 246 336 316 c 1,86,87
 279 332 279 332 231.5 358.5 c 128,-1,88
 184 385 184 385 150.5 421.5 c 128,-1,89
 117 458 117 458 98.5 503.5 c 128,-1,90
 80 549 80 549 80 602 c 0,91,92
 80 675 80 675 117 740.5 c 128,-1,93
 154 806 154 806 216 854.5 c 128,-1,94
 278 903 278 903 360.5 931.5 c 128,-1,95
 443 960 443 960 535 960 c 0,96,97
 608 960 608 960 670.5 940.5 c 128,-1,98
 733 921 733 921 783 887 c 1,99,100
 823 893 823 893 862 902.5 c 128,-1,101
 901 912 901 912 936 922.5 c 128,-1,102
 971 933 971 933 1000 942.5 c 128,-1,103
 1029 952 1029 952 1049 960 c 1,104,-1
 1079 920 l 1,105,106
 1077 910 1077 910 1070.5 894.5 c 128,-1,107
 1064 879 1064 879 1056 862 c 128,-1,108
 1048 845 1048 845 1039 828.5 c 128,-1,109
 1030 812 1030 812 1022 800 c 1,110,111
 989 795 989 795 955 790.5 c 128,-1,112
 921 786 921 786 880 784 c 1,113,114
 920 718 920 718 920 641 c 256,42,43
EndSplineSet
Substitution2: "'aalt' Access All Alternates lookup 7 subtable" g.SngBowl
EndChar

StartChar: h
Encoding: 104 104 75
Width: 1210
GlyphClass: 2
Flags: W
AnchorPoint: "Anchor-4" 1210 900 basechar 0
AnchorPoint: "Anchor-3" 617 -100 basechar 0
AnchorPoint: "Anchor-2" 266 0 basechar 0
AnchorPoint: "Anchor-1" 617 -100 basechar 0
AnchorPoint: "Anchor-0" 617 1620 basechar 0
LayerCount: 2
Fore
SplineSet
660 0 m 1,0,-1
 660 83 l 1,1,2
 732 102 732 102 761 116 c 128,-1,3
 790 130 790 130 790 144 c 2,4,-1
 790 553 l 2,5,6
 790 614 790 614 784 654 c 128,-1,7
 778 694 778 694 765 717.5 c 128,-1,8
 752 741 752 741 731.5 750.5 c 128,-1,9
 711 760 711 760 682 760 c 0,10,11
 655 760 655 760 629.5 753.5 c 128,-1,12
 604 747 604 747 576 735.5 c 128,-1,13
 548 724 548 724 516 707 c 128,-1,14
 484 690 484 690 445 669 c 1,15,-1
 445 144 l 2,16,17
 445 129 445 129 477.5 113 c 128,-1,18
 510 97 510 97 575 83 c 1,19,-1
 575 0 l 1,20,-1
 45 0 l 1,21,-1
 45 83 l 1,22,23
 111 100 111 100 143 113.5 c 128,-1,24
 175 127 175 127 175 144 c 2,25,-1
 175 1258 l 2,26,27
 175 1300 175 1300 173 1323.5 c 128,-1,28
 171 1347 171 1347 158.5 1360 c 128,-1,29
 146 1373 146 1373 119.5 1378.5 c 128,-1,30
 93 1384 93 1384 45 1390 c 1,31,-1
 45 1470 l 1,32,33
 106 1478 106 1478 154 1486 c 128,-1,34
 202 1494 202 1494 243 1503.5 c 128,-1,35
 284 1513 284 1513 321 1524 c 128,-1,36
 358 1535 358 1535 398 1550 c 1,37,-1
 445 1506 l 1,38,-1
 445 814 l 1,39,40
 507 855 507 855 561.5 883 c 128,-1,41
 616 911 616 911 665 928 c 128,-1,42
 714 945 714 945 757 952.5 c 128,-1,43
 800 960 800 960 839 960 c 0,44,45
 882 960 882 960 922 946 c 128,-1,46
 962 932 962 932 992.5 900.5 c 128,-1,47
 1023 869 1023 869 1041.5 817.5 c 128,-1,48
 1060 766 1060 766 1060 691 c 2,49,-1
 1060 144 l 2,50,51
 1060 137 1060 137 1065.5 130.5 c 128,-1,52
 1071 124 1071 124 1085.5 117 c 128,-1,53
 1100 110 1100 110 1125.5 101.5 c 128,-1,54
 1151 93 1151 93 1190 83 c 1,55,-1
 1190 0 l 1,56,-1
 660 0 l 1,0,-1
EndSplineSet
EndChar

StartChar: i
Encoding: 105 105 76
Width: 635
GlyphClass: 2
Flags: W
AnchorPoint: "Anchor-4" 635 900 basechar 0
AnchorPoint: "Anchor-3" 386 0 basechar 0
AnchorPoint: "Anchor-2" 325 0 basechar 0
AnchorPoint: "Anchor-1" 325 -100 basechar 0
AnchorPoint: "Anchor-0" 325 1050 basechar 0
LayerCount: 2
Fore
SplineSet
60 0 m 1,0,-1
 60 83 l 1,1,2
 128 97 128 97 159 113.5 c 128,-1,3
 190 130 190 130 190 144 c 2,4,-1
 190 640 l 2,5,6
 190 691 190 691 189.5 722.5 c 128,-1,7
 189 754 189 754 178 771.5 c 128,-1,8
 167 789 167 789 140 797 c 128,-1,9
 113 805 113 805 60 810 c 1,10,-1
 60 890 l 1,11,12
 154 902 154 902 233 918.5 c 128,-1,13
 312 935 312 935 386 960 c 1,14,-1
 460 960 l 1,15,-1
 460 144 l 2,16,17
 460 132 460 132 488.5 114.5 c 128,-1,18
 517 97 517 97 590 83 c 1,19,-1
 590 0 l 1,20,-1
 60 0 l 1,0,-1
500 1261 m 0,21,22
 500 1225 500 1225 486 1196 c 128,-1,23
 472 1167 472 1167 447 1146.5 c 128,-1,24
 422 1126 422 1126 388.5 1115 c 128,-1,25
 355 1104 355 1104 315 1104 c 0,26,27
 285 1104 285 1104 257.5 1110.5 c 128,-1,28
 230 1117 230 1117 208 1131.5 c 128,-1,29
 186 1146 186 1146 173 1168 c 128,-1,30
 160 1190 160 1190 160 1220 c 0,31,32
 160 1256 160 1256 174.5 1285 c 128,-1,33
 189 1314 189 1314 214 1334 c 128,-1,34
 239 1354 239 1354 272.5 1365 c 128,-1,35
 306 1376 306 1376 345 1376 c 0,36,37
 374 1376 374 1376 402 1369.5 c 128,-1,38
 430 1363 430 1363 451.5 1349 c 128,-1,39
 473 1335 473 1335 486.5 1313.5 c 128,-1,40
 500 1292 500 1292 500 1261 c 0,21,22
EndSplineSet
Substitution2: "Single Substitution lookup 1 subtable" i.Dotless
EndChar

StartChar: j
Encoding: 106 106 77
Width: 610
GlyphClass: 2
Flags: W
AnchorPoint: "Anchor-4" 610 900 basechar 0
AnchorPoint: "Anchor-3" 320 -600 basechar 0
AnchorPoint: "Anchor-2" 320 -600 basechar 0
AnchorPoint: "Anchor-1" 320 -600 basechar 0
AnchorPoint: "Anchor-0" 320 1050 basechar 0
LayerCount: 2
Fore
SplineSet
455 109 m 2,0,1
 455 -6 455 -6 432.5 -85 c 128,-1,2
 410 -164 410 -164 375 -218.5 c 128,-1,3
 340 -273 340 -273 297.5 -310.5 c 128,-1,4
 255 -348 255 -348 215 -380 c 0,5,6
 188 -401 188 -401 154 -421 c 128,-1,7
 120 -441 120 -441 84 -456.5 c 128,-1,8
 48 -472 48 -472 12 -481 c 128,-1,9
 -24 -490 -24 -490 -54 -490 c 0,10,11
 -96 -490 -96 -490 -141.5 -479 c 128,-1,12
 -187 -468 -187 -468 -224.5 -452.5 c 128,-1,13
 -262 -437 -262 -437 -286 -420 c 128,-1,14
 -310 -403 -310 -403 -310 -391 c 0,15,16
 -310 -380 -310 -380 -299 -364 c 128,-1,17
 -288 -348 -288 -348 -270.5 -329 c 128,-1,18
 -253 -310 -253 -310 -231.5 -291 c 128,-1,19
 -210 -272 -210 -272 -189 -255.5 c 128,-1,20
 -168 -239 -168 -239 -150.5 -226.5 c 128,-1,21
 -133 -214 -133 -214 -123 -210 c 1,22,23
 -107 -231 -107 -231 -82.5 -248.5 c 128,-1,24
 -58 -266 -58 -266 -31.5 -278.5 c 128,-1,25
 -5 -291 -5 -291 20.5 -298 c 128,-1,26
 46 -305 46 -305 65 -305 c 0,27,28
 90 -305 90 -305 112 -292 c 128,-1,29
 134 -279 134 -279 150 -241 c 128,-1,30
 166 -203 166 -203 175.5 -135 c 128,-1,31
 185 -67 185 -67 185 43 c 2,32,-1
 185 640 l 2,33,34
 185 691 185 691 184 722 c 128,-1,35
 183 753 183 753 172 770.5 c 128,-1,36
 161 788 161 788 134 796 c 128,-1,37
 107 804 107 804 55 810 c 1,38,-1
 55 890 l 1,39,40
 112 897 112 897 153.5 904 c 128,-1,41
 195 911 195 911 230.5 919 c 128,-1,42
 266 927 266 927 300.5 937 c 128,-1,43
 335 947 335 947 378 960 c 1,44,-1
 455 960 l 1,45,-1
 455 109 l 2,0,1
500 1261 m 0,46,47
 500 1225 500 1225 486 1196 c 128,-1,48
 472 1167 472 1167 447 1146.5 c 128,-1,49
 422 1126 422 1126 388.5 1115 c 128,-1,50
 355 1104 355 1104 315 1104 c 0,51,52
 285 1104 285 1104 257.5 1110.5 c 128,-1,53
 230 1117 230 1117 208 1131.5 c 128,-1,54
 186 1146 186 1146 173 1168 c 128,-1,55
 160 1190 160 1190 160 1220 c 0,56,57
 160 1256 160 1256 174.5 1285 c 128,-1,58
 189 1314 189 1314 214 1334 c 128,-1,59
 239 1354 239 1354 272.5 1365 c 128,-1,60
 306 1376 306 1376 345 1376 c 0,61,62
 374 1376 374 1376 402 1369.5 c 128,-1,63
 430 1363 430 1363 451.5 1349 c 128,-1,64
 473 1335 473 1335 486.5 1313.5 c 128,-1,65
 500 1292 500 1292 500 1261 c 0,46,47
EndSplineSet
Substitution2: "Single Substitution lookup 1 subtable" j.Dotless
EndChar

StartChar: k
Encoding: 107 107 78
Width: 1164
GlyphClass: 2
Flags: W
AnchorPoint: "Anchor-4" 1164 900 basechar 0
AnchorPoint: "Anchor-3" 609 -100 basechar 0
AnchorPoint: "Anchor-2" 301 0 basechar 0
AnchorPoint: "Anchor-1" 609 -100 basechar 0
AnchorPoint: "Anchor-0" 609 1620 basechar 0
LayerCount: 2
Fore
SplineSet
45 0 m 1,0,-1
 45 83 l 1,1,2
 111 100 111 100 143 113 c 128,-1,3
 175 126 175 126 175 144 c 2,4,-1
 175 1256 l 2,5,6
 175 1302 175 1302 171 1327 c 128,-1,7
 167 1352 167 1352 153.5 1364.5 c 128,-1,8
 140 1377 140 1377 114 1381 c 128,-1,9
 88 1385 88 1385 45 1390 c 1,10,-1
 45 1470 l 1,11,12
 152 1484 152 1484 238.5 1501.5 c 128,-1,13
 325 1519 325 1519 398 1550 c 1,14,-1
 445 1506 l 1,15,-1
 445 535 l 1,16,-1
 693 759 l 2,17,18
 726 789 726 789 736 806.5 c 128,-1,19
 746 824 746 824 740 833 c 128,-1,20
 734 842 734 842 715 844.5 c 128,-1,21
 696 847 696 847 670 847 c 1,22,-1
 670 930 l 1,23,-1
 1139 930 l 1,24,-1
 1139 847 l 1,25,26
 1094 842 1094 842 1048.5 824.5 c 128,-1,27
 1003 807 1003 807 959 775 c 2,28,-1
 668 560 l 1,29,-1
 1024 161 l 2,30,31
 1038 145 1038 145 1051 136 c 128,-1,32
 1064 127 1064 127 1080.5 123 c 128,-1,33
 1097 119 1097 119 1118 119 c 128,-1,34
 1139 119 1139 119 1168 121 c 1,35,-1
 1174 38 l 1,36,37
 1145 31 1145 31 1105.5 23 c 128,-1,38
 1066 15 1066 15 1028.5 7.5 c 128,-1,39
 991 0 991 0 960.5 -5 c 128,-1,40
 930 -10 930 -10 920 -10 c 0,41,42
 878 -10 878 -10 847.5 2 c 128,-1,43
 817 14 817 14 795 43 c 2,44,-1
 445 515 l 1,45,-1
 445 144 l 2,46,47
 445 136 445 136 448.5 130 c 128,-1,48
 452 124 452 124 463 117.5 c 128,-1,49
 474 111 474 111 496 103 c 128,-1,50
 518 95 518 95 555 83 c 1,51,-1
 555 0 l 1,52,-1
 45 0 l 1,0,-1
EndSplineSet
EndChar

StartChar: l
Encoding: 108 108 79
Width: 635
GlyphClass: 2
Flags: W
AnchorPoint: "Anchor-4" 615 900 basechar 0
AnchorPoint: "Anchor-3" 325 -100 basechar 0
AnchorPoint: "Anchor-2" 325 0 basechar 0
AnchorPoint: "Anchor-1" 325 -100 basechar 0
AnchorPoint: "Anchor-0" 325 1690 basechar 0
LayerCount: 2
Fore
SplineSet
50 0 m 1,0,-1
 50 83 l 1,1,2
 93 90 93 90 120.5 97.5 c 128,-1,3
 148 105 148 105 163.5 112.5 c 128,-1,4
 179 120 179 120 184.5 128 c 128,-1,5
 190 136 190 136 190 144 c 2,6,-1
 190 1256 l 2,7,8
 190 1301 190 1301 185.5 1326 c 128,-1,9
 181 1351 181 1351 167 1363.5 c 128,-1,10
 153 1376 153 1376 127.5 1380.5 c 128,-1,11
 102 1385 102 1385 60 1390 c 1,12,-1
 60 1470 l 1,13,14
 115 1477 115 1477 161.5 1484.5 c 128,-1,15
 208 1492 208 1492 250 1501 c 128,-1,16
 292 1510 292 1510 332 1522 c 128,-1,17
 372 1534 372 1534 414 1550 c 1,18,-1
 460 1506 l 1,19,-1
 460 144 l 2,20,21
 460 136 460 136 466.5 128.5 c 128,-1,22
 473 121 473 121 489 113 c 128,-1,23
 505 105 505 105 532 97.5 c 128,-1,24
 559 90 559 90 600 83 c 1,25,-1
 600 0 l 1,26,-1
 50 0 l 1,0,-1
EndSplineSet
EndChar

StartChar: m
Encoding: 109 109 80
Width: 1755
GlyphClass: 2
Flags: W
AnchorPoint: "Anchor-4" 1755 900 basechar 0
AnchorPoint: "Anchor-3" 890 -100 basechar 0
AnchorPoint: "Anchor-2" 1502 0 basechar 0
AnchorPoint: "Anchor-1" 890 -100 basechar 0
AnchorPoint: "Anchor-0" 890 1050 basechar 0
LayerCount: 2
Fore
SplineSet
1216 0 m 1,0,-1
 1216 83 l 1,1,2
 1252 92 1252 92 1273.5 100.5 c 128,-1,3
 1295 109 1295 109 1306.5 116.5 c 128,-1,4
 1318 124 1318 124 1321.5 130.5 c 128,-1,5
 1325 137 1325 137 1325 144 c 2,6,-1
 1325 593 l 2,7,8
 1325 654 1325 654 1318.5 689.5 c 128,-1,9
 1312 725 1312 725 1299.5 743 c 128,-1,10
 1287 761 1287 761 1267.5 765.5 c 128,-1,11
 1248 770 1248 770 1222 770 c 0,12,13
 1186 770 1186 770 1133.5 752.5 c 128,-1,14
 1081 735 1081 735 1020 693 c 1,15,-1
 1020 144 l 2,16,17
 1020 137 1020 137 1024 130.5 c 128,-1,18
 1028 124 1028 124 1041 117 c 128,-1,19
 1054 110 1054 110 1078 101.5 c 128,-1,20
 1102 93 1102 93 1141 83 c 1,21,-1
 1141 0 l 1,22,-1
 641 0 l 1,23,-1
 641 83 l 1,24,25
 677 92 677 92 698.5 100.5 c 128,-1,26
 720 109 720 109 731.5 116.5 c 128,-1,27
 743 124 743 124 746.5 130.5 c 128,-1,28
 750 137 750 137 750 144 c 2,29,-1
 750 593 l 2,30,31
 750 654 750 654 745.5 689.5 c 128,-1,32
 741 725 741 725 730.5 743 c 128,-1,33
 720 761 720 761 702 765.5 c 128,-1,34
 684 770 684 770 657 770 c 0,35,36
 619 770 619 770 567 753.5 c 128,-1,37
 515 737 515 737 445 693 c 1,38,-1
 445 144 l 2,39,40
 445 129 445 129 472.5 113 c 128,-1,41
 500 97 500 97 565 83 c 1,42,-1
 565 0 l 1,43,-1
 45 0 l 1,44,-1
 45 83 l 1,45,46
 111 100 111 100 143 113.5 c 128,-1,47
 175 127 175 127 175 144 c 2,48,-1
 175 681 l 2,49,50
 175 721 175 721 173 744 c 128,-1,51
 171 767 171 767 158.5 779.5 c 128,-1,52
 146 792 146 792 119.5 798 c 128,-1,53
 93 804 93 804 45 810 c 1,54,-1
 45 890 l 1,55,56
 102 896 102 896 147.5 903 c 128,-1,57
 193 910 193 910 233 918 c 128,-1,58
 273 926 273 926 310 936.5 c 128,-1,59
 347 947 347 947 385 960 c 1,60,-1
 430 915 l 1,61,-1
 441 826 l 1,62,63
 501 870 501 870 549 896.5 c 128,-1,64
 597 923 597 923 638 937 c 128,-1,65
 679 951 679 951 715.5 955.5 c 128,-1,66
 752 960 752 960 788 960 c 0,67,68
 836 960 836 960 871.5 948 c 128,-1,69
 907 936 907 936 932 918 c 128,-1,70
 957 900 957 900 972.5 878 c 128,-1,71
 988 856 988 856 996 835 c 2,72,-1
 1000 824 l 1,73,74
 1061 868 1061 868 1110 894.5 c 128,-1,75
 1159 921 1159 921 1200.5 935.5 c 128,-1,76
 1242 950 1242 950 1279 955 c 128,-1,77
 1316 960 1316 960 1353 960 c 0,78,79
 1401 960 1401 960 1444.5 946 c 128,-1,80
 1488 932 1488 932 1521.5 900.5 c 128,-1,81
 1555 869 1555 869 1575 817.5 c 128,-1,82
 1595 766 1595 766 1595 691 c 2,83,-1
 1595 144 l 2,84,85
 1595 130 1595 130 1626 116.5 c 128,-1,86
 1657 103 1657 103 1736 83 c 1,87,-1
 1736 0 l 1,88,-1
 1216 0 l 1,0,-1
EndSplineSet
EndChar

StartChar: n
Encoding: 110 110 81
Width: 1210
GlyphClass: 2
Flags: W
AnchorPoint: "Anchor-4" 1210 900 basechar 0
AnchorPoint: "Anchor-3" 617 -100 basechar 0
AnchorPoint: "Anchor-2" 954 0 basechar 0
AnchorPoint: "Anchor-1" 617 -100 basechar 0
AnchorPoint: "Anchor-0" 617 1050 basechar 0
LayerCount: 2
Fore
SplineSet
660 0 m 1,0,-1
 660 83 l 1,1,2
 732 102 732 102 761 116 c 128,-1,3
 790 130 790 130 790 144 c 2,4,-1
 790 573 l 2,5,6
 790 626 790 626 785 662 c 128,-1,7
 780 698 780 698 768.5 719.5 c 128,-1,8
 757 741 757 741 738.5 750.5 c 128,-1,9
 720 760 720 760 692 760 c 0,10,11
 671 760 671 760 647.5 756.5 c 128,-1,12
 624 753 624 753 595.5 743.5 c 128,-1,13
 567 734 567 734 530 716 c 128,-1,14
 493 698 493 698 445 669 c 1,15,-1
 445 144 l 2,16,17
 445 129 445 129 477.5 113 c 128,-1,18
 510 97 510 97 575 83 c 1,19,-1
 575 0 l 1,20,-1
 45 0 l 1,21,-1
 45 83 l 1,22,23
 111 100 111 100 143 113.5 c 128,-1,24
 175 127 175 127 175 144 c 2,25,-1
 175 681 l 2,26,27
 175 720 175 720 173.5 743 c 128,-1,28
 172 766 172 766 160.5 779 c 128,-1,29
 149 792 149 792 122.5 798 c 128,-1,30
 96 804 96 804 45 810 c 1,31,-1
 45 890 l 1,32,33
 97 895 97 895 142.5 901.5 c 128,-1,34
 188 908 188 908 228.5 916.5 c 128,-1,35
 269 925 269 925 307.5 935.5 c 128,-1,36
 346 946 346 946 385 960 c 1,37,-1
 430 915 l 1,38,-1
 441 806 l 1,39,40
 504 850 504 850 559 879.5 c 128,-1,41
 614 909 614 909 663.5 927 c 128,-1,42
 713 945 713 945 756.5 952.5 c 128,-1,43
 800 960 800 960 839 960 c 0,44,45
 882 960 882 960 922 946 c 128,-1,46
 962 932 962 932 992.5 900.5 c 128,-1,47
 1023 869 1023 869 1041.5 817.5 c 128,-1,48
 1060 766 1060 766 1060 691 c 2,49,-1
 1060 144 l 2,50,51
 1060 137 1060 137 1065.5 130.5 c 128,-1,52
 1071 124 1071 124 1085.5 117 c 128,-1,53
 1100 110 1100 110 1125.5 101.5 c 128,-1,54
 1151 93 1151 93 1190 83 c 1,55,-1
 1190 0 l 1,56,-1
 660 0 l 1,0,-1
EndSplineSet
EndChar

StartChar: o
Encoding: 111 111 82
Width: 1090
GlyphClass: 2
Flags: W
AnchorPoint: "Anchor-4" 1090 900 basechar 0
AnchorPoint: "Anchor-3" 611 0 basechar 0
AnchorPoint: "Anchor-2" 567 0 basechar 0
AnchorPoint: "Anchor-1" 567 -100 basechar 0
AnchorPoint: "Anchor-0" 567 1050 basechar 0
LayerCount: 2
Fore
SplineSet
745 435 m 0,0,1
 745 514 745 514 731.5 585.5 c 128,-1,2
 718 657 718 657 692 711.5 c 128,-1,3
 666 766 666 766 626.5 798 c 128,-1,4
 587 830 587 830 536 830 c 0,5,6
 479 830 479 830 442 803 c 128,-1,7
 405 776 405 776 383.5 728 c 128,-1,8
 362 680 362 680 353.5 614.5 c 128,-1,9
 345 549 345 549 345 473 c 0,10,11
 345 394 345 394 360.5 326 c 128,-1,12
 376 258 376 258 403.5 207.5 c 128,-1,13
 431 157 431 157 469.5 128.5 c 128,-1,14
 508 100 508 100 554 100 c 0,15,16
 610 100 610 100 647 121.5 c 128,-1,17
 684 143 684 143 705.5 185.5 c 128,-1,18
 727 228 727 228 736 290.5 c 128,-1,19
 745 353 745 353 745 435 c 0,0,1
1030 485 m 0,20,21
 1030 418 1030 418 1011.5 354 c 128,-1,22
 993 290 993 290 960 233 c 128,-1,23
 927 176 927 176 880.5 127.5 c 128,-1,24
 834 79 834 79 778 44 c 128,-1,25
 722 9 722 9 658 -10.5 c 128,-1,26
 594 -30 594 -30 526 -30 c 0,27,28
 420 -30 420 -30 334 6 c 128,-1,29
 248 42 248 42 187 105 c 128,-1,30
 126 168 126 168 93 255 c 128,-1,31
 60 342 60 342 60 444 c 0,32,33
 60 510 60 510 76.5 574 c 128,-1,34
 93 638 93 638 124 695.5 c 128,-1,35
 155 753 155 753 200 801.5 c 128,-1,36
 245 850 245 850 301 885 c 128,-1,37
 357 920 357 920 423.5 940 c 128,-1,38
 490 960 490 960 565 960 c 0,39,40
 670 960 670 960 756 924 c 128,-1,41
 842 888 842 888 903 824.5 c 128,-1,42
 964 761 964 761 997 674 c 128,-1,43
 1030 587 1030 587 1030 485 c 0,20,21
EndSplineSet
EndChar

StartChar: p
Encoding: 112 112 83
Width: 1165
GlyphClass: 2
Flags: W
AnchorPoint: "Anchor-4" 1165 900 basechar 0
AnchorPoint: "Anchor-3" 574 -600 basechar 0
AnchorPoint: "Anchor-2" 681 -470 basechar 0
AnchorPoint: "Anchor-1" 574 -600 basechar 0
AnchorPoint: "Anchor-0" 574 1050 basechar 0
LayerCount: 2
Fore
SplineSet
850 426 m 0,0,1
 850 525 850 525 830 591.5 c 128,-1,2
 810 658 810 658 777.5 699 c 128,-1,3
 745 740 745 740 704.5 757.5 c 128,-1,4
 664 775 664 775 623 775 c 0,5,6
 605 775 605 775 591.5 773.5 c 128,-1,7
 578 772 578 772 560 764.5 c 128,-1,8
 542 757 542 757 515.5 742 c 128,-1,9
 489 727 489 727 445 700 c 1,10,-1
 445 233 l 1,11,12
 501 203 501 203 539 186 c 128,-1,13
 577 169 577 169 605.5 161 c 128,-1,14
 634 153 634 153 656 151.5 c 128,-1,15
 678 150 678 150 701 150 c 0,16,17
 769 151 769 151 810 222 c 128,-1,18
 851 293 851 293 850 426 c 0,0,1
1105 502 m 0,19,20
 1105 434 1105 434 1086.5 368 c 128,-1,21
 1068 302 1068 302 1037.5 243 c 128,-1,22
 1007 184 1007 184 967 134 c 128,-1,23
 927 84 927 84 883.5 47.5 c 128,-1,24
 840 11 840 11 796 -9.5 c 128,-1,25
 752 -30 752 -30 713 -30 c 0,26,27
 684 -30 684 -30 656 -24.5 c 128,-1,28
 628 -19 628 -19 596.5 -6.5 c 128,-1,29
 565 6 565 6 528 26.5 c 128,-1,30
 491 47 491 47 445 78 c 1,31,-1
 445 -335 l 2,32,33
 445 -351 445 -351 482.5 -367 c 128,-1,34
 520 -383 520 -383 614 -397 c 1,35,-1
 614 -480 l 1,36,-1
 45 -480 l 1,37,-1
 45 -397 l 1,38,39
 111 -381 111 -381 143 -366.5 c 128,-1,40
 175 -352 175 -352 175 -335 c 2,41,-1
 175 681 l 2,42,43
 175 718 175 718 172.5 742 c 128,-1,44
 170 766 170 766 157.5 780.5 c 128,-1,45
 145 795 145 795 119 801.5 c 128,-1,46
 93 808 93 808 45 810 c 1,47,-1
 45 890 l 1,48,49
 109 897 109 897 155 904 c 128,-1,50
 201 911 201 911 238.5 918.5 c 128,-1,51
 276 926 276 926 310 936 c 128,-1,52
 344 946 344 946 385 960 c 1,53,-1
 430 915 l 1,54,-1
 439 817 l 1,55,56
 496 862 496 862 543 890 c 128,-1,57
 590 918 590 918 628.5 933.5 c 128,-1,58
 667 949 667 949 699 954.5 c 128,-1,59
 731 960 731 960 760 960 c 0,60,61
 828 960 828 960 890.5 933.5 c 128,-1,62
 953 907 953 907 1000.5 851.5 c 128,-1,63
 1048 796 1048 796 1076.5 709.5 c 128,-1,64
 1105 623 1105 623 1105 502 c 0,19,20
EndSplineSet
EndChar

StartChar: q
Encoding: 113 113 84
Width: 1145
GlyphClass: 2
Flags: W
AnchorPoint: "Anchor-4" 1145 900 basechar 0
AnchorPoint: "Anchor-3" 597 -600 basechar 0
AnchorPoint: "Anchor-2" 597 -600 basechar 0
AnchorPoint: "Anchor-1" 597 -600 basechar 0
AnchorPoint: "Anchor-0" 597 1050 basechar 0
LayerCount: 2
Fore
SplineSet
537 180 m 0,0,1
 562 180 562 180 585 184.5 c 128,-1,2
 608 189 608 189 631.5 199.5 c 128,-1,3
 655 210 655 210 680 228 c 128,-1,4
 705 246 705 246 735 272 c 1,5,-1
 735 690 l 1,6,7
 718 719 718 719 693.5 743 c 128,-1,8
 669 767 669 767 641 784 c 128,-1,9
 613 801 613 801 584 810.5 c 128,-1,10
 555 820 555 820 530 820 c 0,11,12
 485 820 485 820 448.5 803.5 c 128,-1,13
 412 787 412 787 385.5 750 c 128,-1,14
 359 713 359 713 344.5 655 c 128,-1,15
 330 597 330 597 330 515 c 0,16,17
 330 430 330 430 347 367 c 128,-1,18
 364 304 364 304 392.5 262.5 c 128,-1,19
 421 221 421 221 458.5 200.5 c 128,-1,20
 496 180 496 180 537 180 c 0,0,1
565 -480 m 1,21,-1
 565 -397 l 1,22,23
 659 -383 659 -383 697 -367.5 c 128,-1,24
 735 -352 735 -352 735 -335 c 2,25,-1
 735 128 l 1,26,27
 687 83 687 83 647.5 53 c 128,-1,28
 608 23 608 23 570 4.5 c 128,-1,29
 532 -14 532 -14 492.5 -22 c 128,-1,30
 453 -30 453 -30 406 -30 c 0,31,32
 347 -30 347 -30 285.5 2.5 c 128,-1,33
 224 35 224 35 174 96 c 128,-1,34
 124 157 124 157 92 245 c 128,-1,35
 60 333 60 333 60 444 c 0,36,37
 60 532 60 532 80 599.5 c 128,-1,38
 100 667 100 667 131.5 718 c 128,-1,39
 163 769 163 769 201 805 c 128,-1,40
 239 841 239 841 274 865 c 0,41,42
 302 884 302 884 336 901.5 c 128,-1,43
 370 919 370 919 406.5 932 c 128,-1,44
 443 945 443 945 480 952.5 c 128,-1,45
 517 960 517 960 551 960 c 0,46,47
 580 960 580 960 608 956 c 128,-1,48
 636 952 636 952 665 939.5 c 128,-1,49
 694 927 694 927 726 904.5 c 128,-1,50
 758 882 758 882 796 845 c 1,51,52
 823 858 823 858 854 874 c 128,-1,53
 885 890 885 890 913.5 906 c 128,-1,54
 942 922 942 922 964 936.5 c 128,-1,55
 986 951 986 951 995 960 c 1,56,-1
 1036 920 l 1,57,58
 1027 887 1027 887 1020 849 c 0,59,60
 1014 817 1014 817 1009.5 774.5 c 128,-1,61
 1005 732 1005 732 1005 687 c 2,62,-1
 1005 -335 l 2,63,64
 1005 -343 1005 -343 1011 -351 c 128,-1,65
 1017 -359 1017 -359 1031.5 -367 c 128,-1,66
 1046 -375 1046 -375 1071 -382.5 c 128,-1,67
 1096 -390 1096 -390 1134 -397 c 1,68,-1
 1134 -480 l 1,69,-1
 565 -480 l 1,21,-1
EndSplineSet
EndChar

StartChar: r
Encoding: 114 114 85
Width: 941
GlyphClass: 2
Flags: W
AnchorPoint: "Anchor-4" 941 900 basechar 0
AnchorPoint: "Anchor-3" 303 -100 basechar 0
AnchorPoint: "Anchor-2" 303 0 basechar 0
AnchorPoint: "Anchor-1" 303 -100 basechar 0
AnchorPoint: "Anchor-0" 520 1050 basechar 0
LayerCount: 2
Fore
SplineSet
910 913 m 0,0,1
 916 909 916 909 915.5 885.5 c 128,-1,2
 915 862 915 862 909.5 827 c 128,-1,3
 904 792 904 792 895 750.5 c 128,-1,4
 886 709 886 709 876 669.5 c 128,-1,5
 866 630 866 630 855.5 597 c 128,-1,6
 845 564 845 564 837 546 c 1,7,-1
 754 546 l 1,8,9
 752 586 752 586 744 624.5 c 128,-1,10
 736 663 736 663 722.5 693 c 128,-1,11
 709 723 709 723 689 741.5 c 128,-1,12
 669 760 669 760 643 760 c 0,13,14
 625 760 625 760 603.5 756.5 c 128,-1,15
 582 753 582 753 557 737 c 128,-1,16
 532 721 532 721 504 688 c 128,-1,17
 476 655 476 655 445 596 c 1,18,-1
 445 144 l 2,19,20
 445 129 445 129 487.5 113 c 128,-1,21
 530 97 530 97 624 83 c 1,22,-1
 624 0 l 1,23,-1
 45 0 l 1,24,-1
 45 83 l 1,25,26
 175 113 175 113 175 144 c 2,27,-1
 175 656 l 2,28,29
 175 689 175 689 173 711.5 c 128,-1,30
 171 734 171 734 168 748 c 128,-1,31
 165 762 165 762 160.5 770 c 128,-1,32
 156 778 156 778 152 783 c 0,33,34
 145 790 145 790 138 794.5 c 128,-1,35
 131 799 131 799 119.5 802 c 128,-1,36
 108 805 108 805 90.5 806.5 c 128,-1,37
 73 808 73 808 45 810 c 1,38,-1
 45 890 l 1,39,40
 107 898 107 898 150.5 905 c 128,-1,41
 194 912 194 912 230 919.5 c 128,-1,42
 266 927 266 927 302 936.5 c 128,-1,43
 338 946 338 946 385 960 c 1,44,-1
 430 915 l 1,45,-1
 443 798 l 1,46,47
 470 831 470 831 504.5 860.5 c 128,-1,48
 539 890 539 890 578.5 912 c 128,-1,49
 618 934 618 934 661 947 c 128,-1,50
 704 960 704 960 747 960 c 0,51,52
 787 960 787 960 830 947 c 128,-1,53
 873 934 873 934 910 913 c 0,0,1
EndSplineSet
EndChar

StartChar: s
Encoding: 115 115 86
Width: 880
GlyphClass: 2
Flags: W
AnchorPoint: "Anchor-4" 880 900 basechar 0
AnchorPoint: "Anchor-3" 439 -100 basechar 0
AnchorPoint: "Anchor-2" 424 0 basechar 0
AnchorPoint: "Anchor-1" 439 -100 basechar 0
AnchorPoint: "Anchor-0" 439 1050 basechar 0
LayerCount: 2
Fore
SplineSet
809 283 m 0,0,1
 809 212 809 212 787 161.5 c 128,-1,2
 765 111 765 111 730 76 c 128,-1,3
 695 41 695 41 650 20 c 128,-1,4
 605 -1 605 -1 559 -12 c 128,-1,5
 513 -23 513 -23 470 -26.5 c 128,-1,6
 427 -30 427 -30 395 -30 c 0,7,8
 360 -30 360 -30 320 -25.5 c 128,-1,9
 280 -21 280 -21 238.5 -12 c 128,-1,10
 197 -3 197 -3 157.5 11 c 128,-1,11
 118 25 118 25 85 43 c 0,12,13
 78 46 78 46 74.5 79.5 c 128,-1,14
 71 113 71 113 71 160 c 128,-1,15
 71 207 71 207 76 259.5 c 128,-1,16
 81 312 81 312 92 353 c 1,17,-1
 185 342 l 1,18,19
 198 285 198 285 222 240 c 128,-1,20
 246 195 246 195 277.5 164 c 128,-1,21
 309 133 309 133 346.5 116.5 c 128,-1,22
 384 100 384 100 425 100 c 0,23,24
 497 100 497 100 528 120.5 c 128,-1,25
 559 141 559 141 559 197 c 0,26,27
 559 237 559 237 539 269.5 c 128,-1,28
 519 302 519 302 486 329.5 c 128,-1,29
 453 357 453 357 410 381 c 128,-1,30
 367 405 367 405 321 429 c 0,31,32
 279 450 279 450 237 476 c 128,-1,33
 195 502 195 502 160.5 533.5 c 128,-1,34
 126 565 126 565 104.5 603.5 c 128,-1,35
 83 642 83 642 83 690 c 0,36,37
 83 752 83 752 115 802 c 128,-1,38
 147 852 147 852 200 887 c 128,-1,39
 253 922 253 922 320.5 941 c 128,-1,40
 388 960 388 960 460 960 c 0,41,42
 506 960 506 960 552 954.5 c 128,-1,43
 598 949 598 949 639 939 c 128,-1,44
 680 929 680 929 714.5 915 c 128,-1,45
 749 901 749 901 773 883 c 0,46,47
 779 878 779 878 776 847 c 128,-1,48
 773 816 773 816 763.5 777 c 128,-1,49
 754 738 754 738 740.5 700 c 128,-1,50
 727 662 727 662 713 643 c 1,51,-1
 634 651 l 1,52,53
 617 745 617 745 571.5 797.5 c 128,-1,54
 526 850 526 850 454 850 c 0,55,56
 395 850 395 850 364 826 c 128,-1,57
 333 802 333 802 333 760 c 0,58,59
 333 728 333 728 348 703.5 c 128,-1,60
 363 679 363 679 392 657 c 128,-1,61
 421 635 421 635 464 612 c 128,-1,62
 507 589 507 589 564 559 c 0,63,64
 607 537 607 537 651 512 c 128,-1,65
 695 487 695 487 730 454.5 c 128,-1,66
 765 422 765 422 787 380.5 c 128,-1,67
 809 339 809 339 809 283 c 0,0,1
EndSplineSet
EndChar

StartChar: t
Encoding: 116 116 87
Width: 775
GlyphClass: 2
Flags: W
AnchorPoint: "Anchor-4" 570 900 basechar 0
AnchorPoint: "Anchor-3" 378 -100 basechar 0
AnchorPoint: "Anchor-2" 378 0 basechar 0
AnchorPoint: "Anchor-1" 378 -100 basechar 0
AnchorPoint: "Anchor-0" 378 1320 basechar 0
LayerCount: 2
Fore
SplineSet
756 167 m 1,0,1
 612 64 612 64 519 17 c 128,-1,2
 426 -30 426 -30 373 -30 c 0,3,4
 327 -30 327 -30 286.5 -12.5 c 128,-1,5
 246 5 246 5 215.5 40.5 c 128,-1,6
 185 76 185 76 167.5 128.5 c 128,-1,7
 150 181 150 181 150 251 c 2,8,-1
 150 795 l 1,9,-1
 31 795 l 1,10,-1
 0 833 l 1,11,-1
 78 930 l 1,12,-1
 150 930 l 1,13,-1
 150 1126 l 1,14,-1
 379 1290 l 1,15,-1
 420 1255 l 1,16,-1
 420 930 l 1,17,-1
 717 930 l 1,18,-1
 756 891 l 1,19,20
 747 873 747 873 733.5 853.5 c 128,-1,21
 720 834 720 834 706 816 c 128,-1,22
 692 798 692 798 678.5 783 c 128,-1,23
 665 768 665 768 655 760 c 1,24,25
 643 766 643 766 624.5 772 c 128,-1,26
 606 778 606 778 584 783.5 c 128,-1,27
 562 789 562 789 538 792 c 128,-1,28
 514 795 514 795 492 795 c 2,29,-1
 420 795 l 1,30,-1
 420 347 l 2,31,32
 420 298 420 298 426.5 264.5 c 128,-1,33
 433 231 433 231 443.5 210 c 128,-1,34
 454 189 454 189 468 179.5 c 128,-1,35
 482 170 482 170 497 170 c 0,36,37
 515 170 515 170 534 173.5 c 128,-1,38
 553 177 553 177 577 185.5 c 128,-1,39
 601 194 601 194 632.5 209 c 128,-1,40
 664 224 664 224 707 248 c 1,41,-1
 756 167 l 1,0,1
EndSplineSet
EndChar

StartChar: u
Encoding: 117 117 88
Width: 1175
GlyphClass: 2
Flags: W
AnchorPoint: "Anchor-4" 1275 900 basechar 0
AnchorPoint: "Anchor-3" 937 0 basechar 0
AnchorPoint: "Anchor-2" 915 0 basechar 0
AnchorPoint: "Anchor-1" 588 -100 basechar 0
AnchorPoint: "Anchor-0" 588 1050 basechar 0
LayerCount: 2
Fore
SplineSet
1169 122 m 1,0,1
 1132 98 1132 98 1084 71 c 128,-1,2
 1036 44 1036 44 990 21.5 c 128,-1,3
 944 -1 944 -1 908 -15.5 c 128,-1,4
 872 -30 872 -30 860 -30 c 0,5,6
 842 -30 842 -30 824.5 -25 c 128,-1,7
 807 -20 807 -20 791.5 -3.5 c 128,-1,8
 776 13 776 13 764 44 c 128,-1,9
 752 75 752 75 745 126 c 1,10,11
 683 75 683 75 634.5 44 c 128,-1,12
 586 13 586 13 546 -3.5 c 128,-1,13
 506 -20 506 -20 473 -25 c 128,-1,14
 440 -30 440 -30 408 -30 c 0,15,16
 361 -30 361 -30 315 -17 c 128,-1,17
 269 -4 269 -4 232.5 30.5 c 128,-1,18
 196 65 196 65 173 125 c 128,-1,19
 150 185 150 185 150 279 c 2,20,-1
 150 681 l 2,21,22
 150 729 150 729 148.5 755.5 c 128,-1,23
 147 782 147 782 136.5 795.5 c 128,-1,24
 126 809 126 809 101.5 814 c 128,-1,25
 77 819 77 819 31 824 c 1,26,-1
 31 904 l 1,27,28
 86 908 86 908 131 912.5 c 128,-1,29
 176 917 176 917 217 923 c 128,-1,30
 258 929 258 929 298 938 c 128,-1,31
 338 947 338 947 382 960 c 1,32,-1
 420 911 l 1,33,-1
 420 344 l 2,34,35
 420 285 420 285 427 249 c 128,-1,36
 434 213 434 213 447 193 c 128,-1,37
 460 173 460 173 479 166.5 c 128,-1,38
 498 160 498 160 523 160 c 0,39,40
 540 160 540 160 562 164 c 128,-1,41
 584 168 584 168 611 179 c 128,-1,42
 638 190 638 190 671.5 210 c 128,-1,43
 705 230 705 230 745 262 c 1,44,-1
 745 681 l 2,45,46
 745 726 745 726 742 753 c 128,-1,47
 739 780 739 780 726 795 c 128,-1,48
 713 810 713 810 687 816 c 128,-1,49
 661 822 661 822 615 824 c 1,50,-1
 615 904 l 1,51,52
 725 913 725 913 811 927.5 c 128,-1,53
 897 942 897 942 975 960 c 1,54,-1
 1015 911 l 1,55,-1
 1015 294 l 2,56,57
 1015 263 1015 263 1016 244 c 128,-1,58
 1017 225 1017 225 1019.5 213 c 128,-1,59
 1022 201 1022 201 1026.5 195 c 128,-1,60
 1031 189 1031 189 1038 184 c 0,61,62
 1044 180 1044 180 1051 179 c 128,-1,63
 1058 178 1058 178 1069 180.5 c 128,-1,64
 1080 183 1080 183 1096.5 189.5 c 128,-1,65
 1113 196 1113 196 1139 207 c 1,66,-1
 1169 122 l 1,0,1
EndSplineSet
EndChar

StartChar: v
Encoding: 118 118 89
Width: 1050
GlyphClass: 2
Flags: W
AnchorPoint: "Anchor-4" 1050 900 basechar 0
AnchorPoint: "Anchor-3" 477 0 basechar 0
AnchorPoint: "Anchor-2" 536 0 basechar 0
AnchorPoint: "Anchor-1" 536 -100 basechar 0
AnchorPoint: "Anchor-0" 557 1050 basechar 0
LayerCount: 2
Fore
SplineSet
1039 847 m 1,0,1
 1009 840 1009 840 992 834 c 128,-1,2
 975 828 975 828 965 820.5 c 128,-1,3
 955 813 955 813 950 803 c 128,-1,4
 945 793 945 793 939 779 c 2,5,-1
 656 89 l 2,6,7
 647 67 647 67 627.5 48 c 128,-1,8
 608 29 608 29 582.5 14 c 128,-1,9
 557 -1 557 -1 528 -12 c 128,-1,10
 499 -23 499 -23 471 -30 c 1,11,-1
 111 779 l 2,12,13
 105 792 105 792 97.5 802.5 c 128,-1,14
 90 813 90 813 79 821 c 128,-1,15
 68 829 68 829 51.5 835 c 128,-1,16
 35 841 35 841 10 847 c 1,17,-1
 10 930 l 1,18,-1
 486 930 l 1,19,-1
 486 847 l 1,20,21
 447 842 447 842 425 836.5 c 128,-1,22
 403 831 403 831 393.5 823.5 c 128,-1,23
 384 816 384 816 385 805.5 c 128,-1,24
 386 795 386 795 393 779 c 2,25,-1
 597 322 l 1,26,-1
 790 779 l 2,27,28
 796 794 796 794 798 804.5 c 128,-1,29
 800 815 800 815 792.5 822.5 c 128,-1,30
 785 830 785 830 767 835.5 c 128,-1,31
 749 841 749 841 716 847 c 1,32,-1
 716 930 l 1,33,-1
 1039 930 l 1,34,-1
 1039 847 l 1,0,1
EndSplineSet
EndChar

StartChar: w
Encoding: 119 119 90
Width: 1476
GlyphClass: 2
Flags: W
AnchorPoint: "Anchor-4" 1476 900 basechar 0
AnchorPoint: "Anchor-3" 745 -100 basechar 0
AnchorPoint: "Anchor-2" 745 -100 basechar 0
AnchorPoint: "Anchor-1" 745 -100 basechar 0
AnchorPoint: "Anchor-0" 765 1050 basechar 0
LayerCount: 2
Fore
SplineSet
1465 847 m 1,0,1
 1438 840 1438 840 1420.5 833.5 c 128,-1,2
 1403 827 1403 827 1392 820.5 c 128,-1,3
 1381 814 1381 814 1375 805.5 c 128,-1,4
 1369 797 1369 797 1365 785 c 2,5,-1
 1144 59 l 2,6,7
 1138 37 1138 37 1119 21.5 c 128,-1,8
 1100 6 1100 6 1077 -4.5 c 128,-1,9
 1054 -15 1054 -15 1032 -21 c 128,-1,10
 1010 -27 1010 -27 997 -30 c 1,11,-1
 736 525 l 1,12,-1
 534 59 l 1,13,14
 526 36 526 36 508 20.5 c 128,-1,15
 490 5 490 5 468 -5.5 c 128,-1,16
 446 -16 446 -16 425 -21.5 c 128,-1,17
 404 -27 404 -27 391 -30 c 1,18,-1
 119 785 l 2,19,20
 113 803 113 803 86.5 819.5 c 128,-1,21
 60 836 60 836 10 847 c 1,22,-1
 10 930 l 1,23,-1
 486 930 l 1,24,-1
 486 847 l 1,25,26
 445 842 445 842 422 835.5 c 128,-1,27
 399 829 399 829 389 820.5 c 128,-1,28
 379 812 379 812 378.5 803 c 128,-1,29
 378 794 378 794 381 785 c 2,30,-1
 518 367 l 1,31,-1
 755 930 l 1,32,-1
 834 930 l 1,33,-1
 1083 367 l 1,34,-1
 1217 785 l 2,35,36
 1221 796 1221 796 1222 805 c 128,-1,37
 1223 814 1223 814 1216.5 821.5 c 128,-1,38
 1210 829 1210 829 1192 835 c 128,-1,39
 1174 841 1174 841 1140 847 c 1,40,-1
 1140 930 l 1,41,-1
 1465 930 l 1,42,-1
 1465 847 l 1,0,1
EndSplineSet
EndChar

StartChar: x
Encoding: 120 120 91
Width: 1080
GlyphClass: 2
Flags: W
AnchorPoint: "Anchor-4" 1080 900 basechar 0
AnchorPoint: "Anchor-3" 538 -100 basechar 0
AnchorPoint: "Anchor-2" 836 0 basechar 0
AnchorPoint: "Anchor-1" 538 -100 basechar 0
AnchorPoint: "Anchor-0" 538 1050 basechar 0
LayerCount: 2
Fore
SplineSet
544 0 m 1,0,-1
 544 83 l 1,1,2
 569 85 569 85 589.5 88 c 128,-1,3
 610 91 610 91 620.5 99.5 c 128,-1,4
 631 108 631 108 629 123.5 c 128,-1,5
 627 139 627 139 608 166 c 2,6,-1
 477 348 l 1,7,-1
 331 166 l 2,8,9
 310 140 310 140 309.5 124.5 c 128,-1,10
 309 109 309 109 321 100.5 c 128,-1,11
 333 92 333 92 354 88.5 c 128,-1,12
 375 85 375 85 399 83 c 1,13,-1
 399 0 l 1,14,-1
 10 0 l 1,15,-1
 10 83 l 1,16,17
 46 89 46 89 71.5 98 c 128,-1,18
 97 107 97 107 115.5 118.5 c 128,-1,19
 134 130 134 130 147.5 143.5 c 128,-1,20
 161 157 161 157 173 172 c 2,21,-1
 399 457 l 1,22,-1
 181 762 l 2,23,24
 168 780 168 780 155 794.5 c 128,-1,25
 142 809 142 809 124.5 819.5 c 128,-1,26
 107 830 107 830 82.5 837 c 128,-1,27
 58 844 58 844 21 847 c 1,28,-1
 21 930 l 1,29,-1
 541 930 l 1,30,-1
 541 847 l 1,31,32
 510 844 510 844 492.5 839.5 c 128,-1,33
 475 835 475 835 469 826.5 c 128,-1,34
 463 818 463 818 469.5 803 c 128,-1,35
 476 788 476 788 493 764 c 2,36,-1
 590 628 l 1,37,-1
 698 764 l 2,38,39
 717 788 717 788 724 802.5 c 128,-1,40
 731 817 731 817 725.5 826 c 128,-1,41
 720 835 720 835 702.5 839.5 c 128,-1,42
 685 844 685 844 654 847 c 1,43,-1
 654 930 l 1,44,-1
 1035 930 l 1,45,-1
 1035 847 l 1,46,47
 994 844 994 844 967 837 c 128,-1,48
 940 830 940 830 920.5 819.5 c 128,-1,49
 901 809 901 809 887 794.5 c 128,-1,50
 873 780 873 780 859 762 c 2,51,-1
 667 520 l 1,52,-1
 916 172 l 2,53,54
 927 157 927 157 939.5 143 c 128,-1,55
 952 129 952 129 969 117 c 128,-1,56
 986 105 986 105 1009.5 96 c 128,-1,57
 1033 87 1033 87 1066 83 c 1,58,-1
 1066 0 l 1,59,-1
 544 0 l 1,0,-1
EndSplineSet
EndChar

StartChar: y
Encoding: 121 121 92
Width: 1050
GlyphClass: 2
Flags: W
AnchorPoint: "Anchor-4" 1050 900 basechar 0
AnchorPoint: "Anchor-3" 830 -100 basechar 0
AnchorPoint: "Anchor-2" 830 -100 basechar 0
AnchorPoint: "Anchor-1" 830 -100 basechar 0
AnchorPoint: "Anchor-0" 548 1050 basechar 0
LayerCount: 2
Fore
SplineSet
1039 847 m 1,0,1
 1009 840 1009 840 990 834 c 128,-1,2
 971 828 971 828 959.5 820.5 c 128,-1,3
 948 813 948 813 941.5 803.5 c 128,-1,4
 935 794 935 794 929 779 c 2,5,-1
 595 -72 l 2,6,7
 552 -182 552 -182 502.5 -261 c 128,-1,8
 453 -340 453 -340 396.5 -391 c 128,-1,9
 340 -442 340 -442 278 -466 c 128,-1,10
 216 -490 216 -490 147 -490 c 0,11,12
 109 -490 109 -490 70.5 -482 c 128,-1,13
 32 -474 32 -474 1.5 -463 c 128,-1,14
 -29 -452 -29 -452 -48 -439 c 128,-1,15
 -67 -426 -67 -426 -67 -417 c 0,16,17
 -67 -407 -67 -407 -48.5 -379 c 128,-1,18
 -30 -351 -30 -351 -4.5 -319.5 c 128,-1,19
 21 -288 21 -288 47.5 -260 c 128,-1,20
 74 -232 74 -232 90 -222 c 1,21,22
 141 -257 141 -257 192 -265.5 c 128,-1,23
 243 -274 243 -274 280 -260 c 0,24,25
 298 -254 298 -254 317.5 -243 c 128,-1,26
 337 -232 337 -232 356 -213 c 128,-1,27
 375 -194 375 -194 393.5 -164.5 c 128,-1,28
 412 -135 412 -135 430 -92 c 2,29,-1
 459 -23 l 1,30,-1
 121 779 l 2,31,32
 110 806 110 806 85 821 c 128,-1,33
 60 836 60 836 10 847 c 1,34,-1
 10 930 l 1,35,-1
 486 930 l 1,36,-1
 486 847 l 1,37,38
 447 842 447 842 427 836.5 c 128,-1,39
 407 831 407 831 399.5 823.5 c 128,-1,40
 392 816 392 816 394 805.5 c 128,-1,41
 396 795 396 795 403 779 c 2,42,-1
 596 322 l 1,43,-1
 780 779 l 2,44,45
 786 794 786 794 789 804.5 c 128,-1,46
 792 815 792 815 787 822.5 c 128,-1,47
 782 830 782 830 765 835.5 c 128,-1,48
 748 841 748 841 715 847 c 1,49,-1
 715 930 l 1,50,-1
 1039 930 l 1,51,-1
 1039 847 l 1,0,1
EndSplineSet
EndChar

StartChar: z
Encoding: 122 122 93
Width: 977
GlyphClass: 2
Flags: W
AnchorPoint: "Anchor-4" 977 900 basechar 0
AnchorPoint: "Anchor-3" 486 -100 basechar 0
AnchorPoint: "Anchor-2" 826 0 basechar 0
AnchorPoint: "Anchor-1" 486 -100 basechar 0
AnchorPoint: "Anchor-0" 517 1050 basechar 0
LayerCount: 2
Fore
SplineSet
899 358 m 1,0,1
 899 326 899 326 898 273 c 128,-1,2
 897 220 897 220 895.5 165 c 128,-1,3
 894 110 894 110 892 64 c 128,-1,4
 890 18 890 18 887 0 c 1,5,-1
 82 0 l 1,6,-1
 56 45 l 1,7,-1
 576 800 l 1,8,-1
 345 800 l 2,9,10
 297 800 297 800 256.5 742.5 c 128,-1,11
 216 685 216 685 188 570 c 1,12,-1
 109 592 l 1,13,-1
 137 946 l 1,14,15
 159 940 159 940 177 936.5 c 128,-1,16
 195 933 195 933 214.5 931.5 c 128,-1,17
 234 930 234 930 257 930 c 2,18,-1
 895 930 l 1,19,-1
 917 887 l 1,20,-1
 395 130 l 1,21,-1
 712 130 l 2,22,23
 732 130 732 130 746 147.5 c 128,-1,24
 760 165 760 165 772 197.5 c 128,-1,25
 784 230 784 230 795.5 275.5 c 128,-1,26
 807 321 807 321 822 378 c 1,27,-1
 899 358 l 1,0,1
EndSplineSet
EndChar

StartChar: braceleft
Encoding: 123 123 94
Width: 727
Flags: W
LayerCount: 2
Fore
SplineSet
707 1513 m 1,0,1
 629 1464 629 1464 581 1401 c 128,-1,2
 533 1338 533 1338 533 1272 c 0,3,4
 533 1221 533 1221 539.5 1179.5 c 128,-1,5
 546 1138 546 1138 553.5 1097.5 c 128,-1,6
 561 1057 561 1057 567.5 1015.5 c 128,-1,7
 574 974 574 974 574 923 c 0,8,9
 574 881 574 881 558.5 840.5 c 128,-1,10
 543 800 543 800 516 764.5 c 128,-1,11
 489 729 489 729 452.5 700 c 128,-1,12
 416 671 416 671 374 653 c 1,13,14
 474 635 474 635 524 565.5 c 128,-1,15
 574 496 574 496 574 385 c 0,16,17
 574 332 574 332 567.5 285 c 128,-1,18
 561 238 561 238 553.5 194 c 128,-1,19
 546 150 546 150 539.5 107.5 c 128,-1,20
 533 65 533 65 533 23 c 0,21,22
 533 -13 533 -13 539 -44 c 128,-1,23
 545 -75 545 -75 562.5 -103 c 128,-1,24
 580 -131 580 -131 612 -158 c 128,-1,25
 644 -185 644 -185 697 -214 c 1,26,-1
 654 -315 l 1,27,28
 559 -281 559 -281 483.5 -246.5 c 128,-1,29
 408 -212 408 -212 355.5 -170 c 128,-1,30
 303 -128 303 -128 275 -74 c 128,-1,31
 247 -20 247 -20 247 52 c 0,32,33
 247 103 247 103 253.5 147 c 128,-1,34
 260 191 260 191 267.5 233.5 c 128,-1,35
 275 276 275 276 281.5 321.5 c 128,-1,36
 288 367 288 367 288 422 c 0,37,38
 288 503 288 503 255 534.5 c 128,-1,39
 222 566 222 566 162 566 c 2,40,-1
 141 566 l 2,41,42
 135 566 135 566 130 565.5 c 128,-1,43
 125 565 125 565 118.5 563.5 c 128,-1,44
 112 562 112 562 97 560 c 1,45,-1
 80 653 l 1,46,47
 190 684 190 684 239 736 c 128,-1,48
 288 788 288 788 288 863 c 0,49,50
 288 916 288 916 281.5 957.5 c 128,-1,51
 275 999 275 999 267.5 1038 c 128,-1,52
 260 1077 260 1077 253.5 1119 c 128,-1,53
 247 1161 247 1161 247 1215 c 0,54,55
 247 1282 247 1282 279.5 1338 c 128,-1,56
 312 1394 312 1394 368 1441 c 128,-1,57
 424 1488 424 1488 499.5 1527 c 128,-1,58
 575 1566 575 1566 661 1600 c 1,59,-1
 707 1513 l 1,0,1
EndSplineSet
EndChar

StartChar: bar
Encoding: 124 124 95
Width: 470
Flags: W
LayerCount: 2
Fore
SplineSet
340 -343 m 1,0,1
 331 -351 331 -351 313.5 -360 c 128,-1,2
 296 -369 296 -369 276 -377.5 c 128,-1,3
 256 -386 256 -386 236.5 -393.5 c 128,-1,4
 217 -401 217 -401 205 -405 c 1,5,-1
 160 -372 l 1,6,-1
 160 1611 l 1,7,8
 174 1619 174 1619 191 1628 c 128,-1,9
 208 1637 208 1637 226 1645 c 128,-1,10
 244 1653 244 1653 261.5 1659.5 c 128,-1,11
 279 1666 279 1666 294 1670 c 1,12,-1
 340 1638 l 1,13,-1
 340 -343 l 1,0,1
EndSplineSet
EndChar

StartChar: braceright
Encoding: 125 125 96
Width: 727
Flags: W
LayerCount: 2
Fore
SplineSet
647 631 m 1,0,1
 537 600 537 600 488 548 c 128,-1,2
 439 496 439 496 439 421 c 0,3,4
 439 368 439 368 445.5 326.5 c 128,-1,5
 452 285 452 285 459.5 246 c 128,-1,6
 467 207 467 207 473.5 165 c 128,-1,7
 480 123 480 123 480 69 c 0,8,9
 480 1 480 1 447.5 -54.5 c 128,-1,10
 415 -110 415 -110 359 -157 c 128,-1,11
 303 -204 303 -204 227.5 -243 c 128,-1,12
 152 -282 152 -282 66 -316 c 1,13,-1
 20 -229 l 1,14,15
 98 -180 98 -180 146 -117 c 128,-1,16
 194 -54 194 -54 194 12 c 0,17,18
 194 63 194 63 187.5 104.5 c 128,-1,19
 181 146 181 146 173.5 186.5 c 128,-1,20
 166 227 166 227 159.5 268.5 c 128,-1,21
 153 310 153 310 153 361 c 0,22,23
 153 403 153 403 168.5 443.5 c 128,-1,24
 184 484 184 484 211 519.5 c 128,-1,25
 238 555 238 555 274.5 584 c 128,-1,26
 311 613 311 613 353 631 c 1,27,28
 253 649 253 649 203 718.5 c 128,-1,29
 153 788 153 788 153 899 c 0,30,31
 153 951 153 951 159.5 998.5 c 128,-1,32
 166 1046 166 1046 173.5 1090 c 128,-1,33
 181 1134 181 1134 187.5 1176.5 c 128,-1,34
 194 1219 194 1219 194 1261 c 0,35,36
 194 1297 194 1297 188 1328 c 128,-1,37
 182 1359 182 1359 164.5 1387 c 128,-1,38
 147 1415 147 1415 115 1442 c 128,-1,39
 83 1469 83 1469 30 1498 c 1,40,-1
 73 1599 l 1,41,42
 168 1565 168 1565 243.5 1530.5 c 128,-1,43
 319 1496 319 1496 371.5 1454 c 128,-1,44
 424 1412 424 1412 452 1358 c 128,-1,45
 480 1304 480 1304 480 1232 c 0,46,47
 480 1181 480 1181 473.5 1137 c 128,-1,48
 467 1093 467 1093 459.5 1050.5 c 128,-1,49
 452 1008 452 1008 445.5 962.5 c 128,-1,50
 439 917 439 917 439 862 c 0,51,52
 439 781 439 781 472 749.5 c 128,-1,53
 505 718 505 718 565 718 c 2,54,-1
 585 718 l 2,55,56
 592 718 592 718 597 718.5 c 128,-1,57
 602 719 602 719 608.5 720.5 c 128,-1,58
 615 722 615 722 630 724 c 1,59,-1
 647 631 l 1,0,1
EndSplineSet
EndChar

StartChar: asciitilde
Encoding: 126 126 97
Width: 999
Flags: W
LayerCount: 2
Fore
SplineSet
950 774 m 1,0,1
 929 725 929 725 897 672.5 c 128,-1,2
 865 620 865 620 825.5 576.5 c 128,-1,3
 786 533 786 533 740.5 505 c 128,-1,4
 695 477 695 477 647 477 c 0,5,6
 605 477 605 477 558 502 c 128,-1,7
 511 527 511 527 462.5 557 c 128,-1,8
 414 587 414 587 366.5 612 c 128,-1,9
 319 637 319 637 276 637 c 0,10,11
 227 637 227 637 185.5 598 c 128,-1,12
 144 559 144 559 102 475 c 1,13,-1
 49 502 l 1,14,15
 70 551 70 551 102.5 603.5 c 128,-1,16
 135 656 135 656 174.5 699.5 c 128,-1,17
 214 743 214 743 259 771 c 128,-1,18
 304 799 304 799 352 799 c 0,19,20
 398 799 398 799 446.5 774 c 128,-1,21
 495 749 495 749 542.5 719 c 128,-1,22
 590 689 590 689 635.5 664 c 128,-1,23
 681 639 681 639 721 639 c 0,24,25
 769 639 769 639 812 678 c 128,-1,26
 855 717 855 717 897 799 c 1,27,-1
 950 774 l 1,0,1
EndSplineSet
EndChar

StartChar: Ccedilla
Encoding: 199 199 100
Width: 1158
GlyphClass: 2
Flags: W
AnchorPoint: "Anchor-4" 1158 900 basechar 0
AnchorPoint: "Anchor-3" 612 -600 basechar 0
AnchorPoint: "Anchor-2" 612 -600 basechar 0
AnchorPoint: "Anchor-1" 612 -600 basechar 0
AnchorPoint: "Anchor-0" 645 1370 basechar 0
LayerCount: 2
Fore
SplineSet
822 -229 m 0,0,1
 822 -266 822 -266 792 -301.5 c 128,-1,2
 762 -337 762 -337 710 -366.5 c 128,-1,3
 658 -396 658 -396 589.5 -416.5 c 128,-1,4
 521 -437 521 -437 444 -444 c 1,5,-1
 402 -365 l 1,6,7
 483 -354 483 -354 518.5 -326 c 128,-1,8
 554 -298 554 -298 554 -266 c 0,9,10
 554 -232 554 -232 531.5 -217 c 128,-1,11
 509 -202 509 -202 471 -199 c 1,12,13
 472 -198 472 -198 475 -194 c 0,14,15
 479 -190 479 -190 488 -169.5 c 128,-1,16
 497 -149 497 -149 513 -106 c 0,17,18
 524 -75 524 -75 540 -27 c 1,19,20
 463 -19 463 -19 389 12 c 0,21,22
 292 54 292 54 216.5 133 c 128,-1,23
 141 212 141 212 95.5 326.5 c 128,-1,24
 50 441 50 441 50 586 c 0,25,26
 50 746 50 746 99.5 876 c 128,-1,27
 149 1006 149 1006 235.5 1098.5 c 128,-1,28
 322 1191 322 1191 440 1241 c 128,-1,29
 558 1291 558 1291 696 1290 c 0,30,31
 750 1290 750 1290 805 1282 c 128,-1,32
 860 1274 860 1274 910 1260.5 c 128,-1,33
 960 1247 960 1247 1001.5 1229 c 128,-1,34
 1043 1211 1043 1211 1069 1190 c 0,35,36
 1073 1187 1073 1187 1068.5 1170 c 128,-1,37
 1064 1153 1064 1153 1054 1128.5 c 128,-1,38
 1044 1104 1044 1104 1031 1075.5 c 128,-1,39
 1018 1047 1018 1047 1004.5 1021 c 128,-1,40
 991 995 991 995 979 975 c 128,-1,41
 967 955 967 955 959 947 c 1,42,-1
 884 963 l 1,43,44
 834 1064 834 1064 769.5 1107.5 c 128,-1,45
 705 1151 705 1151 632 1150 c 0,46,47
 581 1150 581 1150 528 1126 c 128,-1,48
 475 1102 475 1102 432 1042 c 128,-1,49
 389 982 389 982 362 880.5 c 128,-1,50
 335 779 335 779 335 623 c 0,51,52
 335 497 335 497 367 407.5 c 128,-1,53
 399 318 399 318 450 261 c 128,-1,54
 501 204 501 204 565 177 c 128,-1,55
 629 150 629 150 693 150 c 0,56,57
 720 150 720 150 757 155.5 c 128,-1,58
 794 161 794 161 837.5 176 c 128,-1,59
 881 191 881 191 930.5 217.5 c 128,-1,60
 980 244 980 244 1031 286 c 1,61,62
 1036 282 1036 282 1044.5 271 c 128,-1,63
 1053 260 1053 260 1061.5 247.5 c 128,-1,64
 1070 235 1070 235 1077.5 224.5 c 128,-1,65
 1085 214 1085 214 1088 211 c 1,66,67
 960 82 960 82 834 26 c 0,68,69
 754 -10 754 -10 677 -22 c 1,70,-1
 652 -84 l 1,71,72
 822 -114 822 -114 822 -229 c 0,0,1
EndSplineSet
Ligature2: "'ccmp' Glyph Composition/Decomposition lookup 3 subtable" C uni0327
EndChar

StartChar: ccedilla
Encoding: 231 231 111
Width: 945
GlyphClass: 2
Flags: W
AnchorPoint: "Anchor-4" 945 900 basechar 0
AnchorPoint: "Anchor-3" 518 -600 basechar 0
AnchorPoint: "Anchor-2" 518 -600 basechar 0
AnchorPoint: "Anchor-1" 518 -600 basechar 0
AnchorPoint: "Anchor-0" 518 1050 basechar 0
LayerCount: 2
Fore
SplineSet
728 -229 m 0,0,1
 728 -266 728 -266 698 -301.5 c 128,-1,2
 668 -337 668 -337 616 -366.5 c 128,-1,3
 564 -396 564 -396 495.5 -416.5 c 128,-1,4
 427 -437 427 -437 350 -444 c 1,5,-1
 308 -365 l 1,6,7
 389 -354 389 -354 424.5 -326 c 128,-1,8
 460 -298 460 -298 460 -266 c 0,9,10
 460 -232 460 -232 437.5 -217 c 128,-1,11
 415 -202 415 -202 377 -199 c 1,12,13
 378 -198 378 -198 381 -194 c 0,14,15
 385 -190 385 -190 394 -169.5 c 128,-1,16
 403 -149 403 -149 419 -106 c 0,17,18
 430 -76 430 -76 445 -28 c 1,19,20
 383 -22 383 -22 324 2 c 1,21,22
 247 35 247 35 188.5 96 c 128,-1,23
 130 157 130 157 95 245 c 128,-1,24
 60 333 60 333 60 444 c 0,25,26
 60 552 60 552 100 646 c 128,-1,27
 140 740 140 740 212.5 809.5 c 128,-1,28
 285 879 285 879 386 919.5 c 128,-1,29
 487 960 487 960 610 960 c 0,30,31
 643 960 643 960 687 954.5 c 128,-1,32
 731 949 731 949 773.5 938.5 c 128,-1,33
 816 928 816 928 852 913.5 c 128,-1,34
 888 899 888 899 905 881 c 1,35,36
 906 873 906 873 902 850.5 c 128,-1,37
 898 828 898 828 890.5 798.5 c 128,-1,38
 883 769 883 769 873 735.5 c 128,-1,39
 863 702 863 702 853 672 c 128,-1,40
 843 642 843 642 833.5 619 c 128,-1,41
 824 596 824 596 818 587 c 1,42,-1
 741 597 l 1,43,44
 722 657 722 657 702 700.5 c 128,-1,45
 682 744 682 744 658 773 c 128,-1,46
 634 802 634 802 605 816 c 128,-1,47
 576 830 576 830 540 830 c 0,48,49
 499 830 499 830 461 811 c 128,-1,50
 423 792 423 792 394 750 c 128,-1,51
 365 708 365 708 347.5 640.5 c 128,-1,52
 330 573 330 573 330 475 c 0,53,54
 330 397 330 397 348.5 336.5 c 128,-1,55
 367 276 367 276 400.5 234.5 c 128,-1,56
 434 193 434 193 479 171.5 c 128,-1,57
 524 150 524 150 577 150 c 0,58,59
 605 150 605 150 632 153.5 c 128,-1,60
 659 157 659 157 690.5 169 c 128,-1,61
 722 181 722 181 760.5 203 c 128,-1,62
 799 225 799 225 851 261 c 1,63,-1
 910 190 l 1,64,65
 845 117 845 117 788 73.5 c 128,-1,66
 731 30 731 30 679 7 c 0,67,68
 629 -15 629 -15 583 -22 c 1,69,-1
 558 -84 l 1,70,71
 728 -114 728 -114 728 -229 c 0,0,1
EndSplineSet
Ligature2: "'ccmp' Glyph Composition/Decomposition lookup 3 subtable" c uni0327
EndChar

StartChar: dagger
Encoding: 8224 8224 130
Width: 1017
Flags: W
LayerCount: 2
Fore
SplineSet
967 1124 m 1,0,1
 960 1107 960 1107 941.5 1070.5 c 128,-1,2
 923 1034 923 1034 901 993 c 128,-1,3
 879 952 879 952 858 914 c 128,-1,4
 837 876 837 876 825 857 c 1,5,6
 792 878 792 878 761.5 895 c 128,-1,7
 731 912 731 912 700.5 924 c 128,-1,8
 670 936 670 936 637 943.5 c 128,-1,9
 604 951 604 951 566 955 c 1,10,11
 572 888 572 888 593 817 c 128,-1,12
 614 746 614 746 651 680 c 1,13,14
 609 569 609 569 587.5 472.5 c 128,-1,15
 566 376 566 376 564 280 c 0,16,17
 563 222 563 222 577.5 166 c 128,-1,18
 592 110 592 110 627 49 c 1,19,20
 618 42 618 42 589.5 29 c 128,-1,21
 561 16 561 16 528 1.5 c 128,-1,22
 495 -13 495 -13 465 -24.5 c 128,-1,23
 435 -36 435 -36 423 -40 c 1,24,-1
 384 -9 l 1,25,26
 398 24 398 24 410 62 c 128,-1,27
 422 100 422 100 430.5 138.5 c 128,-1,28
 439 177 439 177 443.5 213.5 c 128,-1,29
 448 250 448 250 448 280 c 0,30,31
 446 378 446 378 424.5 474 c 128,-1,32
 403 570 403 570 361 680 c 1,33,34
 397 746 397 746 417.5 817 c 128,-1,35
 438 888 438 888 445 955 c 1,36,37
 260 939 260 939 85 857 c 1,38,-1
 50 910 l 1,39,40
 57 927 57 927 75.5 963.5 c 128,-1,41
 94 1000 94 1000 115.5 1041 c 128,-1,42
 137 1082 137 1082 158.5 1120 c 128,-1,43
 180 1158 180 1158 192 1177 c 1,44,45
 224 1156 224 1156 253.5 1139.5 c 128,-1,46
 283 1123 283 1123 313 1111 c 128,-1,47
 343 1099 343 1099 375.5 1091.5 c 128,-1,48
 408 1084 408 1084 445 1080 c 1,49,50
 442 1118 442 1118 434 1151.5 c 128,-1,51
 426 1185 426 1185 414 1217 c 128,-1,52
 402 1249 402 1249 385 1281 c 128,-1,53
 368 1313 368 1313 346 1348 c 1,54,55
 365 1360 365 1360 403 1379.5 c 128,-1,56
 441 1399 441 1399 482 1419 c 128,-1,57
 523 1439 523 1439 559.5 1456 c 128,-1,58
 596 1473 596 1473 613 1480 c 1,59,-1
 666 1445 l 1,60,61
 624 1354 624 1354 599.5 1262 c 128,-1,62
 575 1170 575 1170 567 1079 c 1,63,64
 661 1087 661 1087 752.5 1111 c 128,-1,65
 844 1135 844 1135 932 1177 c 1,66,-1
 967 1124 l 1,0,1
EndSplineSet
EndChar

StartChar: degree
Encoding: 176 176 131
Width: 733
Flags: W
LayerCount: 2
Fore
SplineSet
461 995 m 0,0,1
 461 1019 461 1019 455 1040 c 128,-1,2
 449 1061 449 1061 438 1077.5 c 128,-1,3
 427 1094 427 1094 411 1103.5 c 128,-1,4
 395 1113 395 1113 376 1113 c 0,5,6
 356 1113 356 1113 337.5 1105 c 128,-1,7
 319 1097 319 1097 304.5 1082 c 128,-1,8
 290 1067 290 1067 281.5 1045.5 c 128,-1,9
 273 1024 273 1024 273 998 c 0,10,11
 273 975 273 975 279 954 c 128,-1,12
 285 933 285 933 295.5 916.5 c 128,-1,13
 306 900 306 900 321.5 890 c 128,-1,14
 337 880 337 880 357 880 c 0,15,16
 376 880 376 880 395 887.5 c 128,-1,17
 414 895 414 895 428.5 910 c 128,-1,18
 443 925 443 925 452 946.5 c 128,-1,19
 461 968 461 968 461 995 c 0,0,1
627 1052 m 0,20,21
 627 981 627 981 599.5 921 c 128,-1,22
 572 861 572 861 528.5 817 c 128,-1,23
 485 773 485 773 430.5 748 c 128,-1,24
 376 723 376 723 323 723 c 0,25,26
 276 723 276 723 236 740.5 c 128,-1,27
 196 758 196 758 167 787.5 c 128,-1,28
 138 817 138 817 122 856.5 c 128,-1,29
 106 896 106 896 106 941 c 0,30,31
 106 1013 106 1013 133 1073.5 c 128,-1,32
 160 1134 160 1134 203.5 1178 c 128,-1,33
 247 1222 247 1222 301.5 1246.5 c 128,-1,34
 356 1271 356 1271 410 1271 c 0,35,36
 455 1271 455 1271 494.5 1253 c 128,-1,37
 534 1235 534 1235 563.5 1205 c 128,-1,38
 593 1175 593 1175 610 1135.5 c 128,-1,39
 627 1096 627 1096 627 1052 c 0,20,21
EndSplineSet
EndChar

StartChar: cent
Encoding: 162 162 132
Width: 1061
Flags: W
LayerCount: 2
Fore
SplineSet
635 12 m 1,0,1
 617 -4 617 -4 590.5 -18.5 c 128,-1,2
 564 -33 564 -33 540 -41 c 1,3,-1
 505 -6 l 1,4,-1
 505 130 l 1,5,6
 458 134 458 134 408.5 150.5 c 128,-1,7
 359 167 359 167 312.5 194 c 128,-1,8
 266 221 266 221 224 259.5 c 128,-1,9
 182 298 182 298 151 347 c 128,-1,10
 120 396 120 396 102 456 c 128,-1,11
 84 516 84 516 84 586 c 0,12,13
 84 675 84 675 113.5 753 c 128,-1,14
 143 831 143 831 197.5 893.5 c 128,-1,15
 252 956 252 956 330 999.5 c 128,-1,16
 408 1043 408 1043 505 1063 c 1,17,-1
 505 1194 l 1,18,19
 519 1203 519 1203 529.5 1210.5 c 128,-1,20
 540 1218 540 1218 550.5 1224.5 c 128,-1,21
 561 1231 561 1231 572.5 1236 c 128,-1,22
 584 1241 584 1241 599 1245 c 1,23,-1
 635 1213 l 1,24,-1
 635 1078 l 1,25,26
 642 1079 642 1079 649 1079 c 2,27,-1
 664 1079 l 2,28,29
 697 1079 697 1079 742.5 1073.5 c 128,-1,30
 788 1068 788 1068 833 1057.5 c 128,-1,31
 878 1047 878 1047 915.5 1032.5 c 128,-1,32
 953 1018 953 1018 970 999 c 1,33,34
 971 991 971 991 967 973.5 c 128,-1,35
 963 956 963 956 955.5 933.5 c 128,-1,36
 948 911 948 911 938 885 c 128,-1,37
 928 859 928 859 917.5 836 c 128,-1,38
 907 813 907 813 898 794.5 c 128,-1,39
 889 776 889 776 883 768 c 1,40,-1
 808 788 l 1,41,42
 800 803 800 803 786 824 c 128,-1,43
 772 845 772 845 750.5 866 c 128,-1,44
 729 887 729 887 700.5 905.5 c 128,-1,45
 672 924 672 924 635 933 c 1,46,-1
 635 283 l 1,47,48
 665 285 665 285 694 293 c 128,-1,49
 723 301 723 301 755 319 c 128,-1,50
 787 337 787 337 823.5 366.5 c 128,-1,51
 860 396 860 396 905 441 c 1,52,-1
 974 360 l 1,53,54
 923 304 923 304 879 264.5 c 128,-1,55
 835 225 835 225 794 198.5 c 128,-1,56
 753 172 753 172 714 157.5 c 128,-1,57
 675 143 675 143 635 136 c 1,58,-1
 635 12 l 1,0,1
326 616 m 0,59,60
 326 485 326 485 375.5 406.5 c 128,-1,61
 425 328 425 328 505 299 c 1,62,-1
 505 931 l 1,63,64
 470 921 470 921 437.5 898.5 c 128,-1,65
 405 876 405 876 380 838 c 128,-1,66
 355 800 355 800 340.5 745.5 c 128,-1,67
 326 691 326 691 326 616 c 0,59,60
EndSplineSet
EndChar

StartChar: sterling
Encoding: 163 163 133
Width: 1061
Flags: W
LayerCount: 2
Fore
SplineSet
755 516 m 1,0,-1
 483 516 l 1,1,2
 486 405 486 405 460.5 318 c 128,-1,3
 435 231 435 231 378 151 c 1,4,5
 423 155 423 155 455 156 c 128,-1,6
 487 157 487 157 511.5 156.5 c 128,-1,7
 536 156 536 156 556 155 c 128,-1,8
 576 154 576 154 597.5 152.5 c 128,-1,9
 619 151 619 151 645.5 150.5 c 128,-1,10
 672 150 672 150 709 151 c 0,11,12
 755 152 755 152 788 161.5 c 128,-1,13
 821 171 821 171 846.5 194 c 128,-1,14
 872 217 872 217 893 255 c 128,-1,15
 914 293 914 293 935 352 c 1,16,-1
 1018 324 l 1,17,18
 1014 281 1014 281 1007 230.5 c 128,-1,19
 1000 180 1000 180 992.5 133.5 c 128,-1,20
 985 87 985 87 978 51 c 128,-1,21
 971 15 971 15 967 0 c 1,22,23
 922 -25 922 -25 853 -28 c 128,-1,24
 784 -31 784 -31 702.5 -24 c 128,-1,25
 621 -17 621 -17 533 -5.5 c 128,-1,26
 445 6 445 6 362.5 11 c 128,-1,27
 280 16 280 16 208 8.5 c 128,-1,28
 136 1 136 1 87 -30 c 1,29,-1
 44 49 l 1,30,31
 74 74 74 74 97 96.5 c 128,-1,32
 120 119 120 119 137 145 c 128,-1,33
 154 171 154 171 165 203 c 128,-1,34
 176 235 176 235 181 278.5 c 128,-1,35
 186 322 186 322 186 380 c 128,-1,36
 186 438 186 438 181 516 c 1,37,-1
 66 516 l 1,38,-1
 34 551 l 1,39,40
 36 558 36 558 42 571 c 128,-1,41
 48 584 48 584 54.5 598.5 c 128,-1,42
 61 613 61 613 67 626 c 128,-1,43
 73 639 73 639 76 647 c 1,44,-1
 174 647 l 1,45,46
 173 775 173 775 207.5 883 c 128,-1,47
 242 991 242 991 306.5 1069 c 128,-1,48
 371 1147 371 1147 461.5 1191 c 128,-1,49
 552 1235 552 1235 664 1235 c 0,50,51
 690 1235 690 1235 725.5 1233 c 128,-1,52
 761 1231 761 1231 802 1223.5 c 128,-1,53
 843 1216 843 1216 888.5 1202.5 c 128,-1,54
 934 1189 934 1189 981 1165 c 1,55,56
 980 1148 980 1148 978.5 1120 c 128,-1,57
 977 1092 977 1092 974 1059 c 128,-1,58
 971 1026 971 1026 967 991 c 128,-1,59
 963 956 963 956 959 924.5 c 128,-1,60
 955 893 955 893 950.5 868 c 128,-1,61
 946 843 946 843 942 830 c 1,62,-1
 855 830 l 1,63,64
 848 892 848 892 831.5 943 c 128,-1,65
 815 994 815 994 789 1030 c 128,-1,66
 763 1066 763 1066 728 1086 c 128,-1,67
 693 1106 693 1106 650 1106 c 0,68,69
 632 1106 632 1106 609.5 1102.5 c 128,-1,70
 587 1099 587 1099 564.5 1084.5 c 128,-1,71
 542 1070 542 1070 521.5 1040.5 c 128,-1,72
 501 1011 501 1011 487.5 960 c 128,-1,73
 474 909 474 909 469 832.5 c 128,-1,74
 464 756 464 756 473 647 c 1,75,-1
 765 647 l 1,76,-1
 800 614 l 1,77,-1
 755 516 l 1,0,-1
EndSplineSet
EndChar

StartChar: section
Encoding: 167 167 134
Width: 1046
Flags: W
LayerCount: 2
Fore
SplineSet
684 526 m 1,0,1
 706 564 706 564 706 607 c 0,2,3
 706 658 706 658 690.5 696 c 128,-1,4
 675 734 675 734 642 766.5 c 128,-1,5
 609 799 609 799 558.5 830 c 128,-1,6
 508 861 508 861 438 899 c 0,7,8
 424 906 424 906 410.5 913.5 c 128,-1,9
 397 921 397 921 382 929 c 1,10,11
 363 906 363 906 351.5 880.5 c 128,-1,12
 340 855 340 855 340 830 c 0,13,14
 340 786 340 786 356 754 c 128,-1,15
 372 722 372 722 404.5 693 c 128,-1,16
 437 664 437 664 486 635 c 128,-1,17
 535 606 535 606 601 569 c 1,18,-1
 684 526 l 1,0,1
946 673 m 0,19,20
 946 590 946 590 915 523.5 c 128,-1,21
 884 457 884 457 837 411 c 1,22,23
 860 384 860 384 873 352.5 c 128,-1,24
 886 321 886 321 886 283 c 0,25,26
 886 212 886 212 864 161.5 c 128,-1,27
 842 111 842 111 807 76 c 128,-1,28
 772 41 772 41 727 20 c 128,-1,29
 682 -1 682 -1 636 -12 c 128,-1,30
 590 -23 590 -23 547 -26.5 c 128,-1,31
 504 -30 504 -30 472 -30 c 0,32,33
 437 -30 437 -30 397 -25.5 c 128,-1,34
 357 -21 357 -21 315.5 -12 c 128,-1,35
 274 -3 274 -3 234.5 11 c 128,-1,36
 195 25 195 25 162 43 c 0,37,38
 155 46 155 46 151.5 79.5 c 128,-1,39
 148 113 148 113 148 160 c 128,-1,40
 148 207 148 207 153 259.5 c 128,-1,41
 158 312 158 312 169 353 c 1,42,-1
 262 342 l 1,43,44
 275 285 275 285 299 239.5 c 128,-1,45
 323 194 323 194 354.5 162.5 c 128,-1,46
 386 131 386 131 423.5 114.5 c 128,-1,47
 461 98 461 98 502 98 c 0,48,49
 574 98 574 98 605 119.5 c 128,-1,50
 636 141 636 141 636 197 c 0,51,52
 636 237 636 237 611.5 269.5 c 128,-1,53
 587 302 587 302 548 329.5 c 128,-1,54
 509 357 509 357 461.5 381 c 128,-1,55
 414 405 414 405 368 429 c 0,56,57
 326 450 326 450 279 481.5 c 128,-1,58
 232 513 232 513 192.5 556 c 128,-1,59
 153 599 153 599 126.5 654.5 c 128,-1,60
 100 710 100 710 100 780 c 0,61,62
 100 813 100 813 110.5 846.5 c 128,-1,63
 121 880 121 880 139.5 911.5 c 128,-1,64
 158 943 158 943 183.5 971.5 c 128,-1,65
 209 1000 209 1000 240 1023 c 1,66,67
 205 1055 205 1055 182.5 1091 c 128,-1,68
 160 1127 160 1127 160 1170 c 0,69,70
 160 1232 160 1232 192 1282 c 128,-1,71
 224 1332 224 1332 277 1367 c 128,-1,72
 330 1402 330 1402 397.5 1421 c 128,-1,73
 465 1440 465 1440 537 1440 c 0,74,75
 583 1440 583 1440 629 1434.5 c 128,-1,76
 675 1429 675 1429 716 1419 c 128,-1,77
 757 1409 757 1409 791.5 1395 c 128,-1,78
 826 1381 826 1381 850 1363 c 0,79,80
 856 1358 856 1358 853 1327 c 128,-1,81
 850 1296 850 1296 840.5 1257 c 128,-1,82
 831 1218 831 1218 817.5 1180 c 128,-1,83
 804 1142 804 1142 790 1123 c 1,84,-1
 711 1131 l 1,85,86
 694 1225 694 1225 648.5 1277.5 c 128,-1,87
 603 1330 603 1330 531 1330 c 0,88,89
 472 1330 472 1330 441 1306 c 128,-1,90
 410 1282 410 1282 410 1240 c 0,91,92
 410 1208 410 1208 429.5 1183.5 c 128,-1,93
 449 1159 449 1159 484 1137 c 128,-1,94
 519 1115 519 1115 566.5 1092 c 128,-1,95
 614 1069 614 1069 671 1039 c 0,96,97
 714 1017 714 1017 762.5 986.5 c 128,-1,98
 811 956 811 956 852 912.5 c 128,-1,99
 893 869 893 869 919.5 810 c 128,-1,100
 946 751 946 751 946 673 c 0,19,20
EndSplineSet
EndChar

StartChar: bullet
Encoding: 8226 8226 135
Width: 569
Flags: W
LayerCount: 2
Fore
SplineSet
498 662 m 0,0,1
 498 601 498 601 480.5 551 c 128,-1,2
 463 501 463 501 431.5 465 c 128,-1,3
 400 429 400 429 356.5 409 c 128,-1,4
 313 389 313 389 260 389 c 0,5,6
 212 389 212 389 176.5 405.5 c 128,-1,7
 141 422 141 422 117.5 452 c 128,-1,8
 94 482 94 482 82 523 c 128,-1,9
 70 564 70 564 70 612 c 0,10,11
 70 672 70 672 88.5 722 c 128,-1,12
 107 772 107 772 139 808.5 c 128,-1,13
 171 845 171 845 214.5 865 c 128,-1,14
 258 885 258 885 309 885 c 0,15,16
 354 885 354 885 389.5 868.5 c 128,-1,17
 425 852 425 852 449 822.5 c 128,-1,18
 473 793 473 793 485.5 752 c 128,-1,19
 498 711 498 711 498 662 c 0,0,1
EndSplineSet
EndChar

StartChar: paragraph
Encoding: 182 182 136
Width: 1276
Flags: W
LayerCount: 2
Fore
SplineSet
495 -250 m 1,0,-1
 495 -167 l 1,1,2
 564 -153 564 -153 597.5 -136 c 128,-1,3
 631 -119 631 -119 631 -105 c 2,4,-1
 632 522 l 1,5,6
 614 519 614 519 593 517.5 c 128,-1,7
 572 516 572 516 545 516 c 0,8,9
 433 516 433 516 338.5 541.5 c 128,-1,10
 244 567 244 567 175.5 616 c 128,-1,11
 107 665 107 665 68.5 737 c 128,-1,12
 30 809 30 809 30 903 c 0,13,14
 30 988 30 988 66 1059 c 128,-1,15
 102 1130 102 1130 169.5 1181.5 c 128,-1,16
 237 1233 237 1233 333 1261.5 c 128,-1,17
 429 1290 429 1290 549 1290 c 0,18,19
 571 1290 571 1290 608 1288.5 c 128,-1,20
 645 1287 645 1287 691 1285 c 128,-1,21
 737 1283 737 1283 788.5 1280.5 c 128,-1,22
 840 1278 840 1278 890 1275 c 0,23,24
 1008 1268 1008 1268 1144 1260 c 1,25,-1
 1206 1260 l 1,26,-1
 1206 1177 l 1,27,28
 1138 1163 1138 1163 1104 1146 c 128,-1,29
 1070 1129 1070 1129 1070 1115 c 2,30,-1
 1070 -105 l 2,31,32
 1070 -118 1070 -118 1101.5 -135.5 c 128,-1,33
 1133 -153 1133 -153 1206 -167 c 1,34,-1
 1206 -250 l 1,35,-1
 495 -250 l 1,0,-1
632 640 m 1,36,-1
 633 1165 l 1,37,38
 616 1166 616 1166 603 1166 c 2,39,-1
 580 1166 l 2,40,41
 535 1166 535 1166 490 1151.5 c 128,-1,42
 445 1137 445 1137 408.5 1108 c 128,-1,43
 372 1079 372 1079 349 1036.5 c 128,-1,44
 326 994 326 994 326 938 c 0,45,46
 326 884 326 884 341 830.5 c 128,-1,47
 356 777 356 777 388 734.5 c 128,-1,48
 420 692 420 692 469.5 666 c 128,-1,49
 519 640 519 640 588 640 c 2,50,-1
 632 640 l 1,36,-1
892 1136 m 1,51,52
 872 1141 872 1141 852 1144 c 128,-1,53
 832 1147 832 1147 812 1149 c 1,54,-1
 812 -105 l 2,55,56
 812 -116 812 -116 826.5 -124.5 c 128,-1,57
 841 -133 841 -133 851 -136 c 1,58,59
 863 -133 863 -133 877.5 -124.5 c 128,-1,60
 892 -116 892 -116 892 -105 c 2,61,-1
 892 1136 l 1,51,52
EndSplineSet
EndChar

StartChar: germandbls
Encoding: 223 223 137
Width: 1332
GlyphClass: 2
Flags: W
AnchorPoint: "Anchor-4" 1332 900 basechar 0
AnchorPoint: "Anchor-3" 653 -100 basechar 0
AnchorPoint: "Anchor-2" 653 -100 basechar 0
AnchorPoint: "Anchor-1" 653 -100 basechar 0
AnchorPoint: "Anchor-0" 653 1690 basechar 0
LayerCount: 2
Fore
SplineSet
1292 283 m 0,0,1
 1292 217 1292 217 1265.5 160 c 128,-1,2
 1239 103 1239 103 1187.5 61 c 128,-1,3
 1136 19 1136 19 1058.5 -5.5 c 128,-1,4
 981 -30 981 -30 879 -30 c 0,5,6
 833 -30 833 -30 784.5 -22 c 128,-1,7
 736 -14 736 -14 694.5 -2.5 c 128,-1,8
 653 9 653 9 623.5 21.5 c 128,-1,9
 594 34 594 34 587 43 c 0,10,11
 581 50 581 50 578 73.5 c 128,-1,12
 575 97 575 97 574.5 129.5 c 128,-1,13
 574 162 574 162 575 198 c 128,-1,14
 576 234 576 234 578.5 266.5 c 128,-1,15
 581 299 581 299 585 322.5 c 128,-1,16
 589 346 589 346 594 353 c 1,17,-1
 687 342 l 1,18,19
 713 223 713 223 772 161.5 c 128,-1,20
 831 100 831 100 908 100 c 0,21,22
 971 100 971 100 1006.5 125.5 c 128,-1,23
 1042 151 1042 151 1042 207 c 0,24,25
 1042 253 1042 253 1022.5 287.5 c 128,-1,26
 1003 322 1003 322 970.5 349.5 c 128,-1,27
 938 377 938 377 897 400 c 128,-1,28
 856 423 856 423 812.5 446 c 128,-1,29
 769 469 769 469 728 494.5 c 128,-1,30
 687 520 687 520 654.5 553 c 128,-1,31
 622 586 622 586 602.5 629 c 128,-1,32
 583 672 583 672 583 729 c 0,33,34
 583 789 583 789 607 828 c 128,-1,35
 631 867 631 867 666.5 895 c 128,-1,36
 702 923 702 923 744 943.5 c 128,-1,37
 786 964 786 964 821.5 988 c 128,-1,38
 857 1012 857 1012 881 1043 c 128,-1,39
 905 1074 905 1074 905 1122 c 0,40,41
 905 1188 905 1188 885.5 1238.5 c 128,-1,42
 866 1289 866 1289 831.5 1324 c 128,-1,43
 797 1359 797 1359 749 1377 c 128,-1,44
 701 1395 701 1395 645 1395 c 0,45,46
 604 1395 604 1395 567.5 1379 c 128,-1,47
 531 1363 531 1363 504 1319 c 128,-1,48
 477 1275 477 1275 461 1197.5 c 128,-1,49
 445 1120 445 1120 445 996 c 2,50,-1
 445 0 l 1,51,-1
 45 0 l 1,52,-1
 45 83 l 1,53,54
 113 95 113 95 144 112.5 c 128,-1,55
 175 130 175 130 175 142 c 2,56,-1
 175 941 l 2,57,58
 175 1061 175 1061 200.5 1147.5 c 128,-1,59
 226 1234 226 1234 265 1295 c 128,-1,60
 304 1356 304 1356 349 1394.5 c 128,-1,61
 394 1433 394 1433 433 1458 c 0,62,63
 493 1496 493 1496 574 1523 c 128,-1,64
 655 1550 655 1550 743 1550 c 0,65,66
 842 1550 842 1550 922 1518.5 c 128,-1,67
 1002 1487 1002 1487 1058.5 1436 c 128,-1,68
 1115 1385 1115 1385 1146 1320.5 c 128,-1,69
 1177 1256 1177 1256 1177 1190 c 0,70,71
 1177 1108 1177 1108 1151.5 1056 c 128,-1,72
 1126 1004 1126 1004 1088 971 c 128,-1,73
 1050 938 1050 938 1005 917 c 128,-1,74
 960 896 960 896 922 877 c 128,-1,75
 884 858 884 858 858.5 834 c 128,-1,76
 833 810 833 810 833 770 c 0,77,78
 833 723 833 723 867 690 c 128,-1,79
 901 657 901 657 952 629 c 128,-1,80
 1003 601 1003 601 1062.5 573 c 128,-1,81
 1122 545 1122 545 1173 506.5 c 128,-1,82
 1224 468 1224 468 1258 414.5 c 128,-1,83
 1292 361 1292 361 1292 283 c 0,0,1
EndSplineSet
EndChar

StartChar: registered
Encoding: 174 174 138
Width: 730
Flags: W
LayerCount: 2
Fore
SplineSet
716 1084 m 256,0,1
 716 1009 716 1009 689.5 942 c 128,-1,2
 663 875 663 875 616 825.5 c 128,-1,3
 569 776 569 776 504.5 747 c 128,-1,4
 440 718 440 718 364 718 c 0,5,6
 289 718 289 718 225 747 c 128,-1,7
 161 776 161 776 114.5 825.5 c 128,-1,8
 68 875 68 875 41.5 942 c 128,-1,9
 15 1009 15 1009 15 1084 c 256,10,11
 15 1159 15 1159 41.5 1226 c 128,-1,12
 68 1293 68 1293 114.5 1342.5 c 128,-1,13
 161 1392 161 1392 225 1421 c 128,-1,14
 289 1450 289 1450 364 1450 c 0,15,16
 440 1450 440 1450 504.5 1421 c 128,-1,17
 569 1392 569 1392 616 1342.5 c 128,-1,18
 663 1293 663 1293 689.5 1226 c 128,-1,19
 716 1159 716 1159 716 1084 c 256,0,1
637 1084 m 0,20,21
 637 1143 637 1143 616.5 1195.5 c 128,-1,22
 596 1248 596 1248 560 1287 c 128,-1,23
 524 1326 524 1326 474 1348.5 c 128,-1,24
 424 1371 424 1371 364 1371 c 0,25,26
 305 1371 305 1371 255.5 1348.5 c 128,-1,27
 206 1326 206 1326 170 1287 c 128,-1,28
 134 1248 134 1248 113.5 1195.5 c 128,-1,29
 93 1143 93 1143 93 1084 c 0,30,31
 93 1024 93 1024 113.5 972 c 128,-1,32
 134 920 134 920 170 881 c 128,-1,33
 206 842 206 842 255.5 819.5 c 128,-1,34
 305 797 305 797 364 797 c 0,35,36
 424 797 424 797 474 819.5 c 128,-1,37
 524 842 524 842 560 881 c 128,-1,38
 596 920 596 920 616.5 972 c 128,-1,39
 637 1024 637 1024 637 1084 c 0,20,21
205 883 m 1,40,-1
 205 908 l 1,41,42
 226 913 226 913 234.5 916.5 c 128,-1,43
 243 920 243 920 243 925 c 2,44,-1
 243 1249 l 1,45,46
 233 1247 233 1247 224 1246 c 128,-1,47
 215 1245 215 1245 207 1244 c 1,48,-1
 203 1279 l 1,49,50
 232 1286 232 1286 271.5 1290 c 128,-1,51
 311 1294 311 1294 353 1294 c 0,52,53
 398 1294 398 1294 429.5 1286.5 c 128,-1,54
 461 1279 461 1279 481 1265.5 c 128,-1,55
 501 1252 501 1252 510 1234 c 128,-1,56
 519 1216 519 1216 519 1196 c 0,57,58
 519 1150 519 1150 495 1119 c 128,-1,59
 471 1088 471 1088 421 1075 c 1,60,-1
 512 940 l 2,61,62
 519 929 519 929 527.5 925.5 c 128,-1,63
 536 922 536 922 558 924 c 1,64,-1
 561 900 l 1,65,66
 551 897 551 897 537 893.5 c 128,-1,67
 523 890 523 890 508.5 886.5 c 128,-1,68
 494 883 494 883 482.5 881 c 128,-1,69
 471 879 471 879 465 879 c 0,70,71
 445 879 445 879 438 894 c 2,72,-1
 353 1066 l 1,73,-1
 333 1066 l 2,74,75
 327 1066 327 1066 321 1068 c 1,76,-1
 321 925 l 2,77,78
 321 921 321 921 327 917 c 128,-1,79
 333 913 333 913 356 908 c 1,80,-1
 356 883 l 1,81,-1
 205 883 l 1,40,-1
342 1256 m 2,82,-1
 331 1256 l 2,83,84
 326 1256 326 1256 321 1255 c 1,85,-1
 321 1110 l 1,86,87
 326 1109 326 1109 330 1109 c 2,88,-1
 340 1109 l 2,89,90
 391 1109 391 1109 410.5 1129 c 128,-1,91
 430 1149 430 1149 430 1187 c 0,92,93
 430 1216 430 1216 407 1236 c 128,-1,94
 384 1256 384 1256 342 1256 c 2,82,-1
EndSplineSet
EndChar

StartChar: copyright
Encoding: 169 169 139
Width: 1508
Flags: W
LayerCount: 2
Fore
SplineSet
1084 426 m 1,0,1
 1028 364 1028 364 981 327.5 c 128,-1,2
 934 291 934 291 892 271 c 128,-1,3
 850 251 850 251 810.5 245 c 128,-1,4
 771 239 771 239 731 239 c 0,5,6
 659 239 659 239 592.5 268 c 128,-1,7
 526 297 526 297 475 350.5 c 128,-1,8
 424 404 424 404 393 480 c 128,-1,9
 362 556 362 556 362 651 c 0,10,11
 362 742 362 742 397.5 825 c 128,-1,12
 433 908 433 908 496 970 c 128,-1,13
 559 1032 559 1032 646.5 1069 c 128,-1,14
 734 1106 734 1106 838 1106 c 0,15,16
 869 1106 869 1106 904 1099.5 c 128,-1,17
 939 1093 939 1093 971.5 1082.5 c 128,-1,18
 1004 1072 1004 1072 1030.5 1058 c 128,-1,19
 1057 1044 1057 1044 1071 1029 c 1,20,21
 1072 1022 1072 1022 1068.5 1003 c 128,-1,22
 1065 984 1065 984 1059 959 c 128,-1,23
 1053 934 1053 934 1044.5 905.5 c 128,-1,24
 1036 877 1036 877 1027 851.5 c 128,-1,25
 1018 826 1018 826 1010.5 806.5 c 128,-1,26
 1003 787 1003 787 997 779 c 1,27,-1
 932 788 l 1,28,29
 925 828 925 828 914 866 c 128,-1,30
 903 904 903 904 885.5 932.5 c 128,-1,31
 868 961 868 961 841.5 978.5 c 128,-1,32
 815 996 815 996 778 996 c 0,33,34
 689 996 689 996 636.5 920 c 128,-1,35
 584 844 584 844 584 684 c 0,36,37
 584 618 584 618 602.5 564.5 c 128,-1,38
 621 511 621 511 652.5 473 c 128,-1,39
 684 435 684 435 724.5 414.5 c 128,-1,40
 765 394 765 394 810 394 c 0,41,42
 834 394 834 394 855.5 397 c 128,-1,43
 877 400 877 400 902 409.5 c 128,-1,44
 927 419 927 419 958.5 437.5 c 128,-1,45
 990 456 990 456 1034 487 c 1,46,-1
 1084 426 l 1,0,1
1298 677 m 0,47,48
 1298 795 1298 795 1257.5 899.5 c 128,-1,49
 1217 1004 1217 1004 1144.5 1082 c 128,-1,50
 1072 1160 1072 1160 972 1205 c 128,-1,51
 872 1250 872 1250 753 1250 c 0,52,53
 635 1250 635 1250 535.5 1205 c 128,-1,54
 436 1160 436 1160 363.5 1082 c 128,-1,55
 291 1004 291 1004 250.5 899.5 c 128,-1,56
 210 795 210 795 210 677 c 0,57,58
 210 558 210 558 250.5 453 c 128,-1,59
 291 348 291 348 363.5 270 c 128,-1,60
 436 192 436 192 535.5 147 c 128,-1,61
 635 102 635 102 753 102 c 0,62,63
 872 102 872 102 972 147 c 128,-1,64
 1072 192 1072 192 1144.5 270 c 128,-1,65
 1217 348 1217 348 1257.5 453 c 128,-1,66
 1298 558 1298 558 1298 677 c 0,47,48
1428 677 m 0,67,68
 1428 531 1428 531 1377.5 402 c 128,-1,69
 1327 273 1327 273 1237 177 c 128,-1,70
 1147 81 1147 81 1023 25.5 c 128,-1,71
 899 -30 899 -30 753 -30 c 0,72,73
 655 -30 655 -30 567.5 -4.5 c 128,-1,74
 480 21 480 21 405 67 c 128,-1,75
 330 113 330 113 270 177.5 c 128,-1,76
 210 242 210 242 168 320.5 c 128,-1,77
 126 399 126 399 103 489.5 c 128,-1,78
 80 580 80 580 80 677 c 0,79,80
 80 823 80 823 130.5 951.5 c 128,-1,81
 181 1080 181 1080 270.5 1175.5 c 128,-1,82
 360 1271 360 1271 483.5 1326.5 c 128,-1,83
 607 1382 607 1382 753 1382 c 0,84,85
 850 1382 850 1382 938 1357 c 128,-1,86
 1026 1332 1026 1332 1101 1286 c 128,-1,87
 1176 1240 1176 1240 1236.5 1175.5 c 128,-1,88
 1297 1111 1297 1111 1339.5 1033 c 128,-1,89
 1382 955 1382 955 1405 864.5 c 128,-1,90
 1428 774 1428 774 1428 677 c 0,67,68
EndSplineSet
EndChar

StartChar: trademark
Encoding: 8482 8482 140
Width: 1263
Flags: W
LayerCount: 2
Fore
SplineSet
165 807 m 1,0,-1
 165 847 l 1,1,2
 203 854 203 854 216 861 c 128,-1,3
 229 868 229 868 229 873 c 2,4,-1
 229 1204 l 1,5,-1
 129 1204 l 2,6,7
 116 1204 116 1204 105 1185.5 c 128,-1,8
 94 1167 94 1167 75 1125 c 1,9,-1
 40 1135 l 1,10,11
 41 1145 41 1145 43 1162.5 c 128,-1,12
 45 1180 45 1180 47.5 1198.5 c 128,-1,13
 50 1217 50 1217 53 1234 c 128,-1,14
 56 1251 56 1251 58 1261 c 1,15,-1
 516 1261 l 1,16,-1
 533 1248 l 1,17,18
 533 1239 533 1239 531 1223.5 c 128,-1,19
 529 1208 529 1208 526.5 1190.5 c 128,-1,20
 524 1173 524 1173 521.5 1156 c 128,-1,21
 519 1139 519 1139 516 1128 c 1,22,-1
 480 1128 l 1,23,24
 472 1162 472 1162 467.5 1183 c 128,-1,25
 463 1204 463 1204 445 1204 c 2,26,-1
 347 1204 l 1,27,-1
 347 873 l 2,28,29
 347 868 347 868 360 861 c 128,-1,30
 373 854 373 854 412 847 c 1,31,-1
 412 807 l 1,32,-1
 165 807 l 1,0,-1
1210 1221 m 1,33,34
 1188 1221 1188 1221 1158 1212 c 1,35,-1
 1162 869 l 2,36,37
 1162 864 1162 864 1177 858 c 128,-1,38
 1192 852 1192 852 1223 847 c 1,39,-1
 1223 807 l 1,40,-1
 995 807 l 1,41,-1
 995 847 l 1,42,43
 1024 852 1024 852 1040 858 c 128,-1,44
 1056 864 1056 864 1056 869 c 2,45,-1
 1052 1129 l 1,46,-1
 875 807 l 1,47,-1
 830 807 l 1,48,-1
 658 1130 l 1,49,-1
 655 869 l 2,50,51
 655 864 655 864 668 858 c 128,-1,52
 681 852 681 852 711 847 c 1,53,-1
 711 807 l 1,54,-1
 534 807 l 1,55,-1
 534 847 l 1,56,57
 591 856 591 856 591 869 c 2,58,-1
 595 1209 l 1,59,60
 580 1216 580 1216 565 1218.5 c 128,-1,61
 550 1221 550 1221 538 1221 c 1,62,-1
 538 1261 l 1,63,-1
 692 1261 l 2,64,65
 700 1261 700 1261 706.5 1255.5 c 128,-1,66
 713 1250 713 1250 723 1230 c 2,67,-1
 873 946 l 1,68,-1
 1030 1230 l 1,69,70
 1041 1252 1041 1252 1047 1256.5 c 128,-1,71
 1053 1261 1053 1261 1061 1261 c 2,72,-1
 1210 1261 l 1,73,-1
 1210 1221 l 1,33,34
EndSplineSet
EndChar

StartChar: acute
Encoding: 180 180 141
Width: 653
Flags: W
LayerCount: 2
Fore
SplineSet
294 1037 m 1,0,1
 285 1038 285 1038 271 1044 c 128,-1,2
 257 1050 257 1050 242.5 1057.5 c 128,-1,3
 228 1065 228 1065 215.5 1072.5 c 128,-1,4
 203 1080 203 1080 197 1085 c 1,5,-1
 401 1519 l 1,6,7
 409 1518 409 1518 428.5 1515.5 c 128,-1,8
 448 1513 448 1513 474 1509 c 128,-1,9
 500 1505 500 1505 529 1500 c 128,-1,10
 558 1495 558 1495 583.5 1490.5 c 128,-1,11
 609 1486 609 1486 629 1482 c 128,-1,12
 649 1478 649 1478 656 1476 c 1,13,-1
 689 1417 l 1,14,-1
 294 1037 l 1,0,1
EndSplineSet
EndChar

StartChar: dieresis
Encoding: 168 168 142
Width: 801
Flags: W
LayerCount: 2
Fore
SplineSet
765 1270 m 0,0,1
 765 1231 765 1231 751.5 1196 c 128,-1,2
 738 1161 738 1161 714.5 1135.5 c 128,-1,3
 691 1110 691 1110 660 1095 c 128,-1,4
 629 1080 629 1080 595 1080 c 0,5,6
 532 1080 532 1080 498.5 1113 c 128,-1,7
 465 1146 465 1146 465 1210 c 0,8,9
 465 1250 465 1250 479 1284.5 c 128,-1,10
 493 1319 493 1319 517 1344.5 c 128,-1,11
 541 1370 541 1370 571.5 1385 c 128,-1,12
 602 1400 602 1400 635 1400 c 0,13,14
 695 1400 695 1400 730 1368 c 128,-1,15
 765 1336 765 1336 765 1270 c 0,0,1
335 1270 m 0,16,17
 335 1231 335 1231 321.5 1196 c 128,-1,18
 308 1161 308 1161 284.5 1135.5 c 128,-1,19
 261 1110 261 1110 230 1095 c 128,-1,20
 199 1080 199 1080 165 1080 c 0,21,22
 102 1080 102 1080 68.5 1113 c 128,-1,23
 35 1146 35 1146 35 1210 c 0,24,25
 35 1250 35 1250 49 1284.5 c 128,-1,26
 63 1319 63 1319 87 1344.5 c 128,-1,27
 111 1370 111 1370 141.5 1385 c 128,-1,28
 172 1400 172 1400 205 1400 c 0,29,30
 265 1400 265 1400 300 1368 c 128,-1,31
 335 1336 335 1336 335 1270 c 0,16,17
EndSplineSet
EndChar

StartChar: notequal
Encoding: 8800 8800 143
Width: 940
Flags: W
LayerCount: 2
Fore
SplineSet
713 790 m 1,0,-1
 855 790 l 1,1,-1
 890 756 l 1,2,3
 887 745 887 745 880 728 c 128,-1,4
 873 711 873 711 865 693 c 128,-1,5
 857 675 857 675 850 659 c 128,-1,6
 843 643 843 643 839 635 c 1,7,-1
 614 635 l 1,8,-1
 522 490 l 1,9,-1
 855 490 l 1,10,-1
 890 456 l 1,11,12
 887 445 887 445 880 428 c 128,-1,13
 873 411 873 411 865 393 c 128,-1,14
 857 375 857 375 850 359 c 128,-1,15
 843 343 843 343 839 335 c 1,16,-1
 423 335 l 1,17,-1
 305 150 l 1,18,19
 296 143 296 143 273.5 135.5 c 128,-1,20
 251 128 251 128 225.5 121.5 c 128,-1,21
 200 115 200 115 176 109 c 128,-1,22
 152 103 152 103 140 99 c 1,23,-1
 106 144 l 1,24,-1
 227 335 l 1,25,-1
 85 335 l 1,26,-1
 50 369 l 1,27,28
 53 380 53 380 59.5 396.5 c 128,-1,29
 66 413 66 413 73.5 430.5 c 128,-1,30
 81 448 81 448 88.5 464 c 128,-1,31
 96 480 96 480 101 490 c 1,32,-1
 325 490 l 1,33,-1
 417 635 l 1,34,-1
 85 635 l 1,35,-1
 50 669 l 1,36,37
 53 680 53 680 59.5 696.5 c 128,-1,38
 66 713 66 713 73.5 730.5 c 128,-1,39
 81 748 81 748 88.5 764 c 128,-1,40
 96 780 96 780 101 790 c 1,41,-1
 515 790 l 1,42,-1
 631 972 l 1,43,44
 645 980 645 980 666.5 987.5 c 128,-1,45
 688 995 688 995 711 1001 c 128,-1,46
 734 1007 734 1007 756.5 1012 c 128,-1,47
 779 1017 779 1017 794 1021 c 1,48,-1
 833 978 l 1,49,-1
 713 790 l 1,0,-1
EndSplineSet
EndChar

StartChar: AE
Encoding: 198 198 144
Width: 1675
GlyphClass: 2
Flags: W
AnchorPoint: "Anchor-4" 1675 900 basechar 0
AnchorPoint: "Anchor-3" 907 -100 basechar 0
AnchorPoint: "Anchor-2" 907 -100 basechar 0
AnchorPoint: "Anchor-1" 907 -100 basechar 0
AnchorPoint: "Anchor-0" 982 1370 basechar 0
LayerCount: 2
Fore
SplineSet
1633 324 m 1,0,1
 1628 281 1628 281 1623 230.5 c 128,-1,2
 1618 180 1618 180 1612.5 133.5 c 128,-1,3
 1607 87 1607 87 1602 51 c 128,-1,4
 1597 15 1597 15 1593 0 c 1,5,-1
 621 0 l 1,6,-1
 621 83 l 1,7,8
 689 97 689 97 721.5 113.5 c 128,-1,9
 754 130 754 130 754 144 c 2,10,-1
 754 615 l 1,11,-1
 503 615 l 1,12,-1
 315 151 l 1,13,14
 302 122 302 122 323.5 107 c 128,-1,15
 345 92 345 92 416 83 c 1,16,-1
 416 0 l 1,17,-1
 0 0 l 1,18,-1
 0 83 l 1,19,20
 60 91 60 91 94 106.5 c 128,-1,21
 128 122 128 122 141 151 c 1,22,-1
 521 1093 l 2,23,24
 528 1110 528 1110 525.5 1121.5 c 128,-1,25
 523 1133 523 1133 507 1142.5 c 128,-1,26
 491 1152 491 1152 460.5 1160 c 128,-1,27
 430 1168 430 1168 381 1177 c 1,28,-1
 381 1260 l 1,29,-1
 1528 1260 l 1,30,-1
 1568 1225 l 1,31,32
 1566 1199 1566 1199 1562.5 1157 c 128,-1,33
 1559 1115 1559 1115 1553.5 1071 c 128,-1,34
 1548 1027 1548 1027 1541 988 c 128,-1,35
 1534 949 1534 949 1527 930 c 1,36,-1
 1442 930 l 1,37,38
 1437 1023 1437 1023 1418 1076.5 c 128,-1,39
 1399 1130 1399 1130 1360 1130 c 2,40,-1
 1034 1130 l 1,41,-1
 1034 735 l 1,42,-1
 1429 735 l 1,43,-1
 1466 697 l 1,44,45
 1457 683 1457 683 1445 663.5 c 128,-1,46
 1433 644 1433 644 1420.5 624 c 128,-1,47
 1408 604 1408 604 1395.5 586.5 c 128,-1,48
 1383 569 1383 569 1374 560 c 1,49,50
 1360 574 1360 574 1340 584 c 128,-1,51
 1320 594 1320 594 1302.5 600.5 c 128,-1,52
 1285 607 1285 607 1275 610 c 0,53,54
 1266 613 1266 613 1270 615 c 1,55,-1
 1034 615 l 1,56,-1
 1034 194 l 2,57,58
 1034 179 1034 179 1041.5 167.5 c 128,-1,59
 1049 156 1049 156 1071.5 147.5 c 128,-1,60
 1094 139 1094 139 1134.5 134.5 c 128,-1,61
 1175 130 1175 130 1241 130 c 2,62,-1
 1325 130 l 2,63,64
 1371 130 1371 130 1404 142.5 c 128,-1,65
 1437 155 1437 155 1462.5 182 c 128,-1,66
 1488 209 1488 209 1509 251 c 128,-1,67
 1530 293 1530 293 1551 352 c 1,68,-1
 1633 324 l 1,0,1
754 1108 m 2,69,70
 754 1119 754 1119 747.5 1124 c 128,-1,71
 741 1129 741 1129 732 1127.5 c 128,-1,72
 723 1126 723 1126 713 1117 c 128,-1,73
 703 1108 703 1108 696 1091 c 2,74,-1
 549 735 l 1,75,-1
 754 735 l 1,76,-1
 754 1108 l 2,69,70
EndSplineSet
EndChar

StartChar: Oslash
Encoding: 216 216 145
Width: 1289
GlyphClass: 2
Flags: W
AnchorPoint: "Anchor-4" 1289 900 basechar 0
AnchorPoint: "Anchor-3" 634 -100 basechar 0
AnchorPoint: "Anchor-2" 634 -100 basechar 0
AnchorPoint: "Anchor-1" 634 -100 basechar 0
AnchorPoint: "Anchor-0" 634 1370 basechar 0
LayerCount: 2
Fore
SplineSet
933 629 m 0,0,1
 933 689 933 689 924.5 746.5 c 128,-1,2
 916 804 916 804 901 858 c 1,3,-1
 445 239 l 1,4,5
 487 178 487 178 540.5 144 c 128,-1,6
 594 110 594 110 654 110 c 256,7,8
 714 110 714 110 765.5 141.5 c 128,-1,9
 817 173 817 173 854 237 c 128,-1,10
 891 301 891 301 912 399 c 128,-1,11
 933 497 933 497 933 629 c 0,0,1
335 641 m 0,12,13
 335 576 335 576 343.5 516.5 c 128,-1,14
 352 457 352 457 368 403 c 1,15,-1
 825 1022 l 1,16,17
 782 1084 782 1084 726.5 1119.5 c 128,-1,18
 671 1155 671 1155 604 1155 c 0,19,20
 538 1155 538 1155 487.5 1120.5 c 128,-1,21
 437 1086 437 1086 403 1020 c 128,-1,22
 369 954 369 954 352 858.5 c 128,-1,23
 335 763 335 763 335 641 c 0,12,13
1074 1093 m 1,24,25
 1146 1002 1146 1002 1182 886.5 c 128,-1,26
 1218 771 1218 771 1218 647 c 0,27,28
 1218 556 1218 556 1195.5 471 c 128,-1,29
 1173 386 1173 386 1132.5 310.5 c 128,-1,30
 1092 235 1092 235 1036 172.5 c 128,-1,31
 980 110 980 110 911.5 65 c 128,-1,32
 843 20 843 20 765.5 -5 c 128,-1,33
 688 -30 688 -30 605 -30 c 0,34,35
 520 -30 520 -30 447 -6.5 c 128,-1,36
 374 17 374 17 312 59 c 1,37,-1
 267 -2 l 1,38,39
 258 -10 258 -10 234.5 -18.5 c 128,-1,40
 211 -27 211 -27 183.5 -34 c 128,-1,41
 156 -41 156 -41 130.5 -46.5 c 128,-1,42
 105 -52 105 -52 93 -53 c 1,43,-1
 60 -15 l 1,44,-1
 196 169 l 1,45,46
 125 258 125 258 87.5 372.5 c 128,-1,47
 50 487 50 487 50 612 c 0,48,49
 50 748 50 748 94.5 871 c 128,-1,50
 139 994 139 994 220 1087 c 128,-1,51
 301 1180 301 1180 413.5 1235 c 128,-1,52
 526 1290 526 1290 663 1290 c 0,53,54
 750 1290 750 1290 823.5 1267 c 128,-1,55
 897 1244 897 1244 957 1202 c 1,56,-1
 1003 1264 l 1,57,58
 1017 1272 1017 1272 1040 1280 c 128,-1,59
 1063 1288 1063 1288 1087.5 1295 c 128,-1,60
 1112 1302 1112 1302 1136 1306.5 c 128,-1,61
 1160 1311 1160 1311 1175 1313 c 1,62,-1
 1208 1275 l 1,63,-1
 1074 1093 l 1,24,25
EndSplineSet
EndChar

StartChar: infinity
Encoding: 8734 8734 146
Width: 1396
Flags: W
LayerCount: 2
Fore
SplineSet
374 446 m 0,0,1
 394 446 394 446 413.5 450 c 128,-1,2
 433 454 433 454 455.5 465 c 128,-1,3
 478 476 478 476 505 494.5 c 128,-1,4
 532 513 532 513 567 543 c 1,5,6
 544 571 544 571 516.5 599.5 c 128,-1,7
 489 628 489 628 460 651 c 128,-1,8
 431 674 431 674 402.5 688.5 c 128,-1,9
 374 703 374 703 349 703 c 0,10,11
 320 703 320 703 300 692 c 128,-1,12
 280 681 280 681 266.5 664 c 128,-1,13
 253 647 253 647 247 626.5 c 128,-1,14
 241 606 241 606 241 587 c 0,15,16
 241 563 241 563 250 538 c 128,-1,17
 259 513 259 513 276.5 492.5 c 128,-1,18
 294 472 294 472 318.5 459 c 128,-1,19
 343 446 343 446 374 446 c 0,0,1
1020 710 m 0,20,21
 981 710 981 710 935.5 687 c 128,-1,22
 890 664 890 664 824 610 c 1,23,24
 848 583 848 583 876 554.5 c 128,-1,25
 904 526 904 526 933.5 503.5 c 128,-1,26
 963 481 963 481 991.5 466.5 c 128,-1,27
 1020 452 1020 452 1045 452 c 0,28,29
 1073 452 1073 452 1093.5 463 c 128,-1,30
 1114 474 1114 474 1127.5 491 c 128,-1,31
 1141 508 1141 508 1147 528.5 c 128,-1,32
 1153 549 1153 549 1153 568 c 0,33,34
 1153 592 1153 592 1143.5 617 c 128,-1,35
 1134 642 1134 642 1117 662.5 c 128,-1,36
 1100 683 1100 683 1075.5 696.5 c 128,-1,37
 1051 710 1051 710 1020 710 c 0,20,21
431 885 m 0,38,39
 481 885 481 885 526.5 869 c 128,-1,40
 572 853 572 853 611.5 827.5 c 128,-1,41
 651 802 651 802 685 770 c 128,-1,42
 719 738 719 738 746 706 c 1,43,44
 801 754 801 754 846.5 788 c 128,-1,45
 892 822 892 822 932 843.5 c 128,-1,46
 972 865 972 865 1009.5 875 c 128,-1,47
 1047 885 1047 885 1085 885 c 0,48,49
 1139 885 1139 885 1184.5 867 c 128,-1,50
 1230 849 1230 849 1264 815 c 128,-1,51
 1298 781 1298 781 1316.5 731.5 c 128,-1,52
 1335 682 1335 682 1335 619 c 0,53,54
 1335 555 1335 555 1304 492.5 c 128,-1,55
 1273 430 1273 430 1221.5 380.5 c 128,-1,56
 1170 331 1170 331 1103 300.5 c 128,-1,57
 1036 270 1036 270 963 270 c 0,58,59
 913 270 913 270 867 286 c 128,-1,60
 821 302 821 302 780 327.5 c 128,-1,61
 739 353 739 353 704.5 385 c 128,-1,62
 670 417 670 417 642 449 c 1,63,64
 582 395 582 395 537 360.5 c 128,-1,65
 492 326 492 326 454.5 306 c 128,-1,66
 417 286 417 286 382.5 278 c 128,-1,67
 348 270 348 270 309 270 c 0,68,69
 255 270 255 270 209.5 288 c 128,-1,70
 164 306 164 306 131 340 c 128,-1,71
 98 374 98 374 79 423.5 c 128,-1,72
 60 473 60 473 60 536 c 0,73,74
 60 600 60 600 90.5 663 c 128,-1,75
 121 726 121 726 172.5 775 c 128,-1,76
 224 824 224 824 291 854.5 c 128,-1,77
 358 885 358 885 431 885 c 0,38,39
EndSplineSet
EndChar

StartChar: plusminus
Encoding: 177 177 147
Width: 840
Flags: W
LayerCount: 2
Fore
SplineSet
820 226 m 1,0,1
 817 215 817 215 810 198 c 128,-1,2
 803 181 803 181 795 163 c 128,-1,3
 787 145 787 145 780 129 c 128,-1,4
 773 113 773 113 769 105 c 1,5,-1
 85 105 l 1,6,-1
 50 139 l 1,7,8
 53 150 53 150 59.5 166.5 c 128,-1,9
 66 183 66 183 73.5 200.5 c 128,-1,10
 81 218 81 218 88.5 234 c 128,-1,11
 96 250 96 250 101 260 c 1,12,-1
 785 260 l 1,13,-1
 820 226 l 1,0,1
515 351 m 1,14,15
 505 346 505 346 489 340 c 128,-1,16
 473 334 473 334 456 328 c 128,-1,17
 439 322 439 322 422.5 317 c 128,-1,18
 406 312 406 312 395 310 c 1,19,-1
 360 342 l 1,20,-1
 360 615 l 1,21,-1
 85 615 l 1,22,-1
 50 649 l 1,23,24
 53 660 53 660 59.5 676.5 c 128,-1,25
 66 693 66 693 73.5 710.5 c 128,-1,26
 81 728 81 728 88.5 744 c 128,-1,27
 96 760 96 760 101 770 c 1,28,-1
 360 770 l 1,29,-1
 360 1036 l 1,30,31
 369 1039 369 1039 385 1044.5 c 128,-1,32
 401 1050 401 1050 419 1056 c 128,-1,33
 437 1062 437 1062 453.5 1067 c 128,-1,34
 470 1072 470 1072 481 1075 c 1,35,-1
 515 1042 l 1,36,-1
 515 770 l 1,37,-1
 785 770 l 1,38,-1
 820 736 l 1,39,40
 817 725 817 725 810 708 c 128,-1,41
 803 691 803 691 795 673 c 128,-1,42
 787 655 787 655 780 639 c 128,-1,43
 773 623 773 623 769 615 c 1,44,-1
 515 615 l 1,45,-1
 515 351 l 1,14,15
EndSplineSet
EndChar

StartChar: lessequal
Encoding: 8804 8804 148
Width: 940
Flags: W
LayerCount: 2
Fore
SplineSet
890 266 m 1,0,1
 887 255 887 255 880 238 c 128,-1,2
 873 221 873 221 865 203 c 128,-1,3
 857 185 857 185 850 169 c 128,-1,4
 843 153 843 153 839 145 c 1,5,-1
 85 145 l 1,6,-1
 50 179 l 1,7,8
 53 190 53 190 59.5 206.5 c 128,-1,9
 66 223 66 223 73.5 240.5 c 128,-1,10
 81 258 81 258 88.5 274 c 128,-1,11
 96 290 96 290 101 300 c 1,12,-1
 855 300 l 1,13,-1
 890 266 l 1,0,1
890 446 m 1,14,15
 879 436 879 436 865.5 422.5 c 128,-1,16
 852 409 852 409 837.5 395 c 128,-1,17
 823 381 823 381 807 368 c 128,-1,18
 791 355 791 355 776 346 c 1,19,-1
 85 590 l 1,20,-1
 50 635 l 1,21,22
 57 665 57 665 69 701.5 c 128,-1,23
 81 738 81 738 91 764 c 1,24,-1
 855 1037 l 1,25,-1
 890 1002 l 1,26,27
 887 991 887 991 882 972 c 128,-1,28
 877 953 877 953 871 932 c 128,-1,29
 865 911 865 911 859.5 892 c 128,-1,30
 854 873 854 873 851 864 c 1,31,-1
 333 678 l 1,32,-1
 863 492 l 1,33,-1
 890 446 l 1,14,15
EndSplineSet
EndChar

StartChar: greaterequal
Encoding: 8805 8805 149
Width: 940
Flags: W
LayerCount: 2
Fore
SplineSet
890 266 m 1,0,1
 887 255 887 255 880 238 c 128,-1,2
 873 221 873 221 865 203 c 128,-1,3
 857 185 857 185 850 169 c 128,-1,4
 843 153 843 153 839 145 c 1,5,-1
 85 145 l 1,6,-1
 50 179 l 1,7,8
 53 190 53 190 59.5 206.5 c 128,-1,9
 66 223 66 223 73.5 240.5 c 128,-1,10
 81 258 81 258 88.5 274 c 128,-1,11
 96 290 96 290 101 300 c 1,12,-1
 855 300 l 1,13,-1
 890 266 l 1,0,1
50 937 m 1,14,15
 61 947 61 947 74.5 960.5 c 128,-1,16
 88 974 88 974 102.5 988 c 128,-1,17
 117 1002 117 1002 133 1015 c 128,-1,18
 149 1028 149 1028 164 1037 c 1,19,-1
 855 793 l 1,20,-1
 890 748 l 1,21,22
 883 719 883 719 873 684 c 128,-1,23
 863 649 863 649 849 619 c 1,24,-1
 85 346 l 1,25,-1
 50 381 l 1,26,27
 53 391 53 391 58 410.5 c 128,-1,28
 63 430 63 430 69 451 c 128,-1,29
 75 472 75 472 80.5 491 c 128,-1,30
 86 510 86 510 89 519 c 1,31,-1
 607 704 l 1,32,-1
 77 891 l 1,33,-1
 50 937 l 1,14,15
EndSplineSet
EndChar

StartChar: yen
Encoding: 165 165 150
Width: 1061
Flags: W
LayerCount: 2
Fore
SplineSet
226 0 m 1,0,-1
 226 83 l 1,1,2
 271 92 271 92 301 102 c 128,-1,3
 331 112 331 112 348.5 121.5 c 128,-1,4
 366 131 366 131 373 139.5 c 128,-1,5
 380 148 380 148 380 155 c 2,6,-1
 380 372 l 1,7,-1
 87 372 l 1,8,-1
 65 396 l 1,9,10
 67 403 67 403 72 418 c 128,-1,11
 77 433 77 433 82.5 449 c 128,-1,12
 88 465 88 465 93.5 479.5 c 128,-1,13
 99 494 99 494 102 502 c 1,14,-1
 380 502 l 1,15,-1
 380 512 l 1,16,17
 345 590 345 590 305.5 667 c 128,-1,18
 266 744 266 744 226 814.5 c 128,-1,19
 186 885 186 885 146.5 946.5 c 128,-1,20
 107 1008 107 1008 72 1055 c 0,21,22
 63 1066 63 1066 53.5 1074.5 c 128,-1,23
 44 1083 44 1083 28 1088.5 c 128,-1,24
 12 1094 12 1094 -14 1097 c 128,-1,25
 -40 1100 -40 1100 -82 1100 c 1,26,-1
 -86 1183 l 1,27,28
 -57 1187 -57 1187 -16 1192.5 c 128,-1,29
 25 1198 25 1198 67 1202.5 c 128,-1,30
 109 1207 109 1207 145.5 1210.5 c 128,-1,31
 182 1214 182 1214 203 1214 c 0,32,33
 232 1214 232 1214 263 1201 c 128,-1,34
 294 1188 294 1188 311 1165 c 0,35,36
 384 1066 384 1066 452 951.5 c 128,-1,37
 520 837 520 837 590 693 c 1,38,-1
 775 1055 l 1,39,40
 790 1081 790 1081 765.5 1096 c 128,-1,41
 741 1111 741 1111 664 1121 c 1,42,-1
 664 1204 l 1,43,-1
 1090 1204 l 1,44,-1
 1090 1121 l 1,45,46
 1056 1115 1056 1115 1031.5 1108.5 c 128,-1,47
 1007 1102 1007 1102 990 1094.5 c 128,-1,48
 973 1087 973 1087 962 1077.5 c 128,-1,49
 951 1068 951 1068 944 1055 c 2,50,-1
 660 509 l 1,51,-1
 660 502 l 1,52,-1
 925 502 l 1,53,-1
 950 479 l 1,54,-1
 910 372 l 1,55,-1
 660 372 l 1,56,-1
 660 155 l 2,57,58
 660 149 660 149 667 140.5 c 128,-1,59
 674 132 674 132 691.5 122 c 128,-1,60
 709 112 709 112 739 102 c 128,-1,61
 769 92 769 92 816 83 c 1,62,-1
 816 0 l 1,63,-1
 226 0 l 1,0,-1
EndSplineSet
EndChar

StartChar: mu
Encoding: 181 181 151
Width: 1185
Flags: W
LayerCount: 2
Fore
SplineSet
1185 102 m 1,0,1
 1156 79 1156 79 1115.5 55.5 c 128,-1,2
 1075 32 1075 32 1033 13 c 128,-1,3
 991 -6 991 -6 951 -18.5 c 128,-1,4
 911 -31 911 -31 883 -31 c 256,5,6
 855 -31 855 -31 833 -16.5 c 128,-1,7
 811 -2 811 -2 794.5 22.5 c 128,-1,8
 778 47 778 47 767.5 80.5 c 128,-1,9
 757 114 757 114 753 152 c 1,10,11
 716 102 716 102 684 67.5 c 128,-1,12
 652 33 652 33 622 11 c 128,-1,13
 592 -11 592 -11 562 -21 c 128,-1,14
 532 -31 532 -31 500 -31 c 0,15,16
 460 -31 460 -31 407 5.5 c 128,-1,17
 354 42 354 42 303 103 c 1,18,-1
 303 76 l 2,19,20
 303 -9 303 -9 319 -80.5 c 128,-1,21
 335 -152 335 -152 360.5 -210 c 128,-1,22
 386 -268 386 -268 418 -313 c 128,-1,23
 450 -358 450 -358 481 -389 c 1,24,25
 471 -392 471 -392 449.5 -400.5 c 128,-1,26
 428 -409 428 -409 400.5 -420 c 128,-1,27
 373 -431 373 -431 342.5 -443.5 c 128,-1,28
 312 -456 312 -456 285 -467 c 128,-1,29
 258 -478 258 -478 237.5 -487 c 128,-1,30
 217 -496 217 -496 209 -500 c 1,31,-1
 160 -461 l 1,32,-1
 160 681 l 2,33,34
 160 720 160 720 159 743.5 c 128,-1,35
 158 767 158 767 147.5 781 c 128,-1,36
 137 795 137 795 112.5 802 c 128,-1,37
 88 809 88 809 41 814 c 1,38,-1
 41 894 l 1,39,40
 135 900 135 900 217 916.5 c 128,-1,41
 299 933 299 933 382 960 c 1,42,-1
 388 953 l 2,43,44
 394 947 394 947 402 938.5 c 128,-1,45
 410 930 410 930 418 921 c 128,-1,46
 426 912 426 912 430 907 c 1,47,-1
 430 386 l 2,48,49
 430 338 430 338 446 300 c 128,-1,50
 462 262 462 262 484.5 235.5 c 128,-1,51
 507 209 507 209 531.5 195 c 128,-1,52
 556 181 556 181 573 181 c 0,53,54
 589 181 589 181 606.5 185.5 c 128,-1,55
 624 190 624 190 644.5 204.5 c 128,-1,56
 665 219 665 219 691 244.5 c 128,-1,57
 717 270 717 270 750 312 c 1,58,-1
 750 748 l 2,59,60
 750 764 750 764 746.5 786.5 c 128,-1,61
 743 809 743 809 737.5 831 c 128,-1,62
 732 853 732 853 725.5 872 c 128,-1,63
 719 891 719 891 712 900 c 1,64,65
 742 904 742 904 778.5 910.5 c 128,-1,66
 815 917 815 917 853.5 925 c 128,-1,67
 892 933 892 933 929.5 942 c 128,-1,68
 967 951 967 951 998 960 c 1,69,-1
 1036 911 l 1,70,71
 1034 898 1034 898 1031.5 884.5 c 128,-1,72
 1029 871 1029 871 1027 853.5 c 128,-1,73
 1025 836 1025 836 1023 813 c 128,-1,74
 1021 790 1021 790 1020 759 c 1,75,-1
 1020 308 l 2,76,77
 1020 261 1020 261 1022 232 c 128,-1,78
 1024 203 1024 203 1029 187 c 128,-1,79
 1034 171 1034 171 1041 165 c 128,-1,80
 1048 159 1048 159 1059 159 c 0,81,82
 1081 159 1081 159 1101.5 164.5 c 128,-1,83
 1122 170 1122 170 1155 187 c 1,84,-1
 1185 102 l 1,0,1
EndSplineSet
EndChar

